<?xml version="1.0" encoding="UTF-8"?>
<svg xmlns="http://www.w3.org/2000/svg" width="335" height="543" viewBox="0 0 335 543">
  <path fill="#3880ff" fill-rule="evenodd" clip-rule="evenodd" d="M301 292C331.888 300 333.285 315.186 333.285 315.186C333.285 330.712 335.745 367.045 331.888 379.128C319.562 487.304 266.329 542.095 154.087 542.095C41.838 542.095 13.7228 508.525 1.39612 400.349C0.494459 397.51 5.34058e-05 394.497 5.34058e-05 391.367L0 344.906C0 328.559 13.3679 315.186 29.7142 315.186H29.7201C46.0722 315.186 59.4402 328.559 59.4402 344.906L59.4403 391.367C59.4403 392.461 59.382 393.543 59.2599 394.607C68.6488 473.738 71.878 484.43 154.087 484.43C236.307 484.43 264.63 464.751 274.019 385.62C273.903 384.555 273.838 383.479 273.838 382.385V344.9L269 341H265.5L125.87 379.128C109.529 379.128 96.1554 365.76 96.1554 349.419C96.1554 349.419 95.1264 321.105 96.1554 319.711C111.459 298.965 275.217 285.322 301 292ZM189.054 271.793L248.5 267.793C248.5 267.793 195.5 45.5955 189.054 28.0955C182.608 10.5955 161.5 -2.40452 151.334 0.375398C135.561 4.68853 126.823 22.9902 129.662 38.7929C132.5 54.5956 189.054 271.793 189.054 271.793ZM272.448 264.793L331.888 261.793L325.168 48.8155C325.168 32.4691 311.8 19.0954 295.448 19.0954H295.442C279.096 19.0954 265.728 32.4691 265.728 48.8155L272.448 264.793Z"></path>
  <path fill="#3880ff" d="M157 273.793L97.5539 283.793C97.5539 283.793 32.5 137.095 29.2599 120.095C26.0198 103.095 39.6337 88.3753 55.9858 88.3753C72.3322 88.3753 80.5 98.5955 90.7059 120.095L157 273.793Z"></path>
</svg>
