<svg width="400" height="547" viewBox="0 0 400 547" xmlns="http://www.w3.org/2000/svg">
<path fill="#3880ff" fill-rule="evenodd" clip-rule="evenodd" d="M398.39 268.185V297.893C398.39 313.419 400.851 371.265 396.994 383.348C384.667 491.524 331.435 546.316 219.192 546.316C106.943 546.316 13.7228 461.524 1.39612 353.348C0.494459 350.509 5.34058e-05 347.496 5.34058e-05 344.366L0 297.905C0 281.558 13.3679 268.185 29.7142 268.185H29.7201C46.0722 268.185 59.4402 281.558 59.4402 297.905L59.4403 344.366C59.4403 345.46 59.382 346.542 59.2599 347.606C68.6488 426.738 136.983 488.65 219.192 488.65C301.412 488.65 329.735 456.732 339.124 377.6C339.008 376.536 338.944 375.46 338.944 374.366V327.607H321.702V327.602L125.87 347.602C109.529 347.602 96.1554 334.234 96.1554 317.893C96.1554 317.893 95.1264 289.58 96.1554 288.185C111.459 267.439 398.39 268.185 398.39 268.185ZM185.583 254.375L245.029 250.375V215.72C245.029 199.368 231.655 186 215.309 186C198.957 186 185.583 199.368 185.583 215.72V254.375ZM273.838 245.375L333.279 241.375V29.7199C333.279 13.3736 319.911 -0.00012207 303.559 -0.00012207H303.553C287.206 -0.00012207 273.838 13.3736 273.838 29.7199V245.375Z"/>
<path fill="#3880ff" d="M155.601 258.375L96.1554 264.375V235.72C96.1554 219.368 109.529 206 125.881 206C142.228 206 155.601 219.368 155.601 235.72V258.375Z"/>
</svg>
