<?xml version="1.0" encoding="UTF-8"?>
<svg xmlns="http://www.w3.org/2000/svg" width="400" height="588" viewBox="0 0 400 588">
  <path fill-rule="evenodd" clip-rule="evenodd" d="M398.39 309.185V338.893C398.39 354.419 400.851 412.265 396.994 424.348C384.667 532.524 331.435 587.316 219.192 587.316C106.943 587.316 13.7228 502.524 1.39612 394.348C0.494459 391.509 5.34058e-05 388.496 5.34058e-05 385.366L0 338.905C0 322.558 13.3679 309.185 29.7142 309.185H29.7201C46.0722 309.185 59.4402 322.558 59.4402 338.905L59.4403 385.366C59.4403 386.46 59.382 387.542 59.2599 388.606C68.6488 467.738 136.983 529.65 219.192 529.65C301.412 529.65 329.735 497.732 339.124 418.6C339.008 417.536 338.944 416.46 338.944 415.366V368.607H321.702V368.602L125.87 388.602C109.529 388.602 96.1554 375.234 96.1554 358.893C96.1554 358.893 95.1264 330.58 96.1554 329.185C111.459 308.439 398.39 309.185 398.39 309.185ZM185.583 295.375L245.029 291.375V29.7201C245.029 13.3679 231.655 0 215.309 0C198.957 0 185.583 13.3679 185.583 29.7201V295.375ZM273.838 286.375L333.279 282.375V70.7199C333.279 54.3736 319.911 40.9999 303.559 40.9999H303.553C287.206 40.9999 273.838 54.3736 273.838 70.7199V286.375Z"></path>
  <path d="M155.601 299.375L96.1554 305.375V276.72C96.1554 260.368 109.529 247 125.881 247C142.228 247 155.601 260.368 155.601 276.72V299.375Z"></path>
</svg>
