<svg width="400" height="543" viewBox="0 0 400 543" xmlns="http://www.w3.org/2000/svg">
<path fill-rule="evenodd" clip-rule="evenodd" d="M398.39 264.685V294.393C398.39 309.919 400.851 367.765 396.994 379.848C384.667 488.024 331.435 542.816 219.192 542.816C106.943 542.816 13.7228 458.024 1.39612 349.848C0.494459 347.009 5.34058e-05 343.996 5.34058e-05 340.866L0 29.72C0 13.3737 13.3679 0 29.7142 0H29.7201C46.0722 0 59.4402 13.3737 59.4402 29.72L59.4403 340.866C59.4403 341.96 59.382 343.042 59.2599 344.106C68.6488 423.237 136.983 485.15 219.192 485.15C301.412 485.15 329.735 453.232 339.124 374.1C339.008 373.036 338.944 371.96 338.944 370.866V324.107H321.702V324.102L125.87 304.102C109.529 304.102 96.1554 290.734 96.1554 274.393C96.1554 274.393 95.1264 246.079 96.1554 244.685C111.459 223.939 398.39 264.685 398.39 264.685ZM185.583 220.875L245.029 226.875V164.417C245.029 148.065 231.655 134.697 215.309 134.697C198.957 134.697 185.583 148.065 185.583 164.417V220.875ZM273.838 230.875L333.279 237.875V194.417C333.279 178.071 319.911 164.697 303.559 164.697H303.553C287.206 164.697 273.838 178.071 273.838 194.417V230.875Z"/>
<path d="M155.601 215.875L96.1554 210.875V184.417C96.1554 168.065 109.529 154.697 125.881 154.697C142.228 154.697 155.601 168.065 155.601 184.417V215.875Z"/>
</svg>
