<svg width="400" height="577" viewBox="0 0 400 577" xmlns="http://www.w3.org/2000/svg">
<path fill-rule="evenodd" clip-rule="evenodd" d="M398.39 298.185V327.893C398.39 343.419 400.851 401.265 396.994 413.348C384.667 521.524 331.435 576.316 219.192 576.316C106.943 576.316 13.7228 491.524 1.39612 383.348C0.494459 380.509 5.34058e-05 377.496 5.34058e-05 374.366L0 327.905C0 311.558 13.3679 298.185 29.7142 298.185H29.7201C46.0722 298.185 59.4402 311.558 59.4402 327.905L59.4403 374.366C59.4403 375.46 59.382 376.542 59.2599 377.606C68.6488 456.738 136.983 518.65 219.192 518.65C301.412 518.65 329.735 486.732 339.124 407.6C339.008 406.536 338.944 405.46 338.944 404.366V357.607H321.702V357.602L125.87 337.602C109.529 337.602 96.1554 324.234 96.1554 307.893C96.1554 307.893 95.1264 279.58 96.1554 278.185C111.459 257.439 398.39 298.185 398.39 298.185ZM185.583 254.375L245.029 260.375V29.7201C245.029 13.3679 231.655 0 215.309 0C198.957 0 185.583 13.3679 185.583 29.7201V254.375ZM273.838 264.375L333.279 271.375V59.72C333.279 43.3736 319.911 29.9999 303.559 29.9999H303.553C287.206 29.9999 273.838 43.3736 273.838 59.72V264.375Z"/>
<path d="M155.601 248.375L96.1554 244.375V59.72C96.1554 43.3678 109.529 29.9999 125.881 29.9999C142.228 29.9999 155.601 43.3678 155.601 59.72V248.375Z"/>
</svg>
