<svg xmlns="http://www.w3.org/2000/svg" width="100%" height="100%" viewBox="0 0 500 500" fill-rule="evenodd" stroke-miterlimit="2" xmlns:v="https://vecta.io/nano"><style><![CDATA[.B{fill-rule:nonzero}.C{fill:#1d366b}.D{fill:#f579a3}.E{fill:#9c8484}.F{fill:#2a4f8b}.G{fill:#a88e8e}.H{fill:#b19595}.I{fill:#3a64a5}.J{fill:#d74d7d}.K{fill:#a58b8b}.L{fill:#897474}.M{fill:#917a7a}.N{fill:#998181}.O{fill:#a08787}.P{fill:#a48a8a}.Q{fill:#ac9191}.R{fill:#887373}.S{fill:#bae7ff}.T{fill:#6185be}.U{fill:#1a2d51}.V{fill:#ba9d9d}.W{fill:#9f8686}.X{fill:#a28989}.Y{fill:#9a8282}.Z{fill:#524545}.a{fill:#957e7e}.b{fill:#7cbdff}.c{fill:#fffdff}.d{fill:#ad9292}.e{fill:#f2c3e2}.f{fill:#8d7777}.g{fill:#8a7575}.h{fill:#8c7676}.i{fill:#977f7f}.j{fill:#947d7d}.k{fill:#8e7878}.l{fill:#8b7575}.m{fill:#9ac0ef}.n{fill:#e4cafe}.o{fill:#8fcee9}.p{fill:#95caff}.q{fill:#a4645a}]]></style><g fill="#dee1ef" class="B"><path d="M178.292 220.052c30.73 17.74 30.892 46.508.362 64.25s-80.194 17.743-110.923.001-30.892-46.51-.362-64.25 80.194-17.742 110.923 0z"/><path d="M423.26 396.252c-2.857-1.65-5.94-3.084-9.194-4.306-7.674-2.882-14.516-7.756-19.168-14.506-3.963-5.75-9.946-11.127-17.938-15.74l-.65-.37c-11.853-6.693-26.347-10.87-41.496-12.534-12.067-1.325-22.84-4.723-31.18-9.537s-14.243-11.045-16.572-18.033c-2.916-8.764-10.182-17.15-21.775-23.995l-.643-.375c-30.965-17.878-81.54-18.29-113.104-.796-14.03 7.776-22.1 17.743-24.295 28.06-8.96 1.248-17.447 3.896-24.42 7.95-20.16 11.715-20.053 30.703.238 42.42 20.285 11.71 53.074 11.714 73.232-.001.993-.577 12.18 1.148 16.766 1.638 4.626.493 9.066 1.302 13.252 2.385 6.617 1.712-5.685 12.047-15.5 17.746-21.952 12.756-21.836 33.434.26 46.192 22.09 12.753 57.794 12.757 79.747-.001l.11-.065c6.32-3.693 13.745-5.122 20.898-3.58 14.26 3.078 29.7 3.752 44.456 2.024 2.6-.304 5.185.294 7.442 1.6.012.006.024.013.036.02 22.09 12.753 57.794 12.757 79.747-.001 21.946-12.753 21.83-33.44-.26-46.192z"/></g><path d="M340.134 353.24c0 5.1 10.282 9.233 22.966 9.233s22.965-4.133 22.965-9.233-10.282-12.728-22.965-12.728-22.966 7.63-22.966 12.728zm19.703-39.143h6.525v19.365l-6.525 2.073v-21.438z" class="I B"/><path d="M366.362 333.462v11.522c0 1.802-1.46 3.263-3.262 3.263s-3.263-1.46-3.263-3.263v-9.45l6.525-2.073z" class="B T"/><path d="M372.74 282.856l4.15-34.434-2.734-25.98 7.76-2.024c.992-.454 2.197-.45 3.242.208l25.017 15.716c2.578 1.62 3.923 4.636 3.404 7.636l-10.2 62.792a13.01 13.01 0 0 1-9.018 10.227l-37.82 11.886c-3.466 1.06-7.234.17-9.86-2.328l-25.842-27.68 51.9-16.018z" class="B C"/><path d="M376.43 222.97l25.016 15.715a7.51 7.51 0 0 1 3.405 7.636l-9.534 55.15a13.01 13.01 0 0 1-9.017 10.227l-29.04 8.877a10.05 10.05 0 0 1-9.861-2.328l-22.12-21.034 38.732-12.01 7.2-59.743c.3-2.492 3.092-3.823 5.217-2.488z" class="B I"/><path d="M375.884 247.94l-4.255 28.574c-.64 4.29-3.737 7.567-7.618 8.686a25.66 25.66 0 0 1-4.235-6.385c-1.822-3.938-2.634-8.254-3.43-12.52l-.463-2.476 8.838-19.207 11.164 3.328z" class="B o"/><path d="M351.767 237.15a11.66 11.66 0 0 1 3.883-7.21c1.363-1.167 2.997-1.966 4.8-2.164 3.725-.41 7.28 1.64 10.16 4.033 6.68 5.548 11.323 13.242 14.372 21.37s4.606 16.733 5.94 25.312c.358 2.308.703 4.646.472 6.97s-1.1 4.667-2.83 6.236c-2.57 2.334-6.455 2.505-9.867 1.86-5.637-1.063-10.85-4.098-14.684-8.358 3.88-1.12 6.98-4.395 7.618-8.686l4.255-28.574-11.164-3.328-8.838 19.207-3.46-18.514c-.433-2.315-.862-4.67-.752-7a14.2 14.2 0 0 1 .097-1.146z" class="B S"/><path d="M350.578 241.593c.27-1.128.643-2.23 1.092-3.298-.1 2.34.32 4.695.752 7l.413 2.2-2.495 2.97c-.52-2.94-.456-5.986.238-8.892zm-5.384 15.007l-2.277 2.7-4.227-1.495a10.94 10.94 0 0 1 6.504-1.215z" class="o B"/><path d="M368.17 381.05l36.39-19.522 20.603 12.748-34.718 20.75-19.012-6.18-3.264-7.798z" class="B C"/><path d="M359.394 403.193c-1.3-4.555-.738-12.167.813-16.643s3.727-8.727 5.042-13.277 1.704-9.605-.292-13.9l8.862 5.39c1.867-5.048 4.043-10.075 6.863-14.66l-9.35-3.606c-2.614-1.008-5.257-2.025-8.033-2.4s-5.74-.06-8.106 1.44c-2.648 1.677-4.257 4.653-4.953 7.7s-.582 6.23-.465 9.363l1.47 39.402c1.006 1.072 7.24 2.336 8.15 1.182z" class="B J"/><path d="M356.023 408.74a13.46 13.46 0 0 1 .836 5.984c.61.403 1.37.386 2.09.29.976-2.152 1.67-4.647 1.802-7.007-1.193.794-3.32 1.005-4.73.732z" class="B U"/><path d="M346.496 406.073c.454.91 1.542 1.36 2.56 1.37s2.003-.33 2.98-.614c2.975-.867 6.1-1.24 9.186-1.12-.484-1.953-1.44-3.223-2.695-4.8l-5.76-1.38c-1.752 1.636-3.806 2.928-6.01 3.872l-.158.273c-.36.746-.476 1.655-.107 2.395z" class="B J"/><path d="M361.224 405.71c-3.096-.12-6.21.252-9.186 1.12-.978.285-1.963.625-2.98.614s-2.107-.46-2.56-1.37c-.37-.74-.252-1.65.107-2.395.046-.094.105-.182.158-.273-3.048 1.306-6.392 1.926-9.702 1.688-.594-.042-1.184.352-1.22.947-.046.76.446 1.435.96 1.993 3.22 3.486 8.41 5.014 13.003 3.826 1.54-.397 3.004-1.073 4.562-1.392.798-.163 1.648-.217 2.453-.098 2.468.363 4.783-1.666 4.5-4.144a3.96 3.96 0 0 0-.089-.502z" class="B U"/><path d="M347.733 411.002c-1.3-4.555-.74-12.167.813-16.643s3.726-8.727 5.042-13.278 1.704-9.605-.292-13.9l8.862 5.392c1.867-5.05 4.043-10.075 6.862-14.66l-9.35-3.606c-2.614-1.008-5.258-2.024-8.033-2.4s-5.74-.06-8.107 1.438c-2.647 1.678-4.257 4.655-4.952 7.7s-.582 6.232-.465 9.364l1.47 39.403c1.006 1.07 7.24 2.336 8.15 1.182z" class="B D"/><path d="M344.36 416.548a13.45 13.45 0 0 1 .837 5.985c.608.402 1.368.386 2.09.29.976-2.152 1.67-4.648 1.802-7.008-1.194.795-3.322 1.005-4.73.732z" class="B C"/><path d="M334.835 413.88c.454.912 1.542 1.36 2.56 1.37s2.003-.328 2.982-.614a28.89 28.89 0 0 1 9.185-1.119c-.483-1.953-1.44-3.222-2.695-4.8l-5.758-1.38c-1.753 1.636-3.806 2.928-6.01 3.872l-.158.274c-.36.745-.476 1.653-.107 2.394z" class="B D"/><path d="M349.562 413.52a28.89 28.89 0 0 0-9.185 1.119c-.98.286-1.963.625-2.982.614s-2.106-.46-2.56-1.37c-.37-.74-.252-1.65.107-2.394.046-.095.105-.183.158-.274-3.05 1.306-6.393 1.926-9.703 1.69-.593-.042-1.184.352-1.22.945-.046.76.446 1.437.96 1.994 3.217 3.487 8.41 5.014 13.003 3.827 1.54-.4 3.002-1.074 4.562-1.392.798-.163 1.648-.218 2.453-.1 2.468.365 4.782-1.665 4.5-4.142a3.93 3.93 0 0 0-.09-.502z" class="B C"/><path d="M406.377 382.74c3.556-2.367 7.078-4.898 9.768-8.215s4.5-7.546 4.122-11.8c-.435-4.9-3.653-9.13-7.395-12.308-5.103-4.337-11.823-7.297-18.44-6.255-3.2.502-6.164 1.9-9.087 3.264l-10.295 4.84c-3.466 1.63-6.972 3.282-9.94 5.703s-5.388 5.73-5.965 9.517c-.32 2.112-.015 4.4 1.252 6.12 1.204 1.634 3.105 2.576 4.932 3.458l16.607 8.016c3.047 1.47 6.2 2.967 9.564 3.2 5.378.358 10.4-2.543 14.876-5.53zM278.1 147.102c1.474-4.28 4.73-7.6 8.14-10.658-.08-1.918-.128-3.795-.012-5.558-2.692.36-4.425 2.955-5.798 5.3L268.766 156.1c-9.083-1.27-18.148-3.05-27.23-4.323-3.34 3.294-5.03 8.74-2.8 12.863l28.477 5.26c3.394.63 6.787-.34 9.33-2.467l.365-11.362c.097-3.03.203-6.114 1.2-8.98z" class="F B"/><path d="M278.1 147.102c-.988 2.866-1.094 5.95-1.19 8.98l-.365 11.362c1.04-.87 1.943-1.928 2.64-3.157 2.504-4.412 4.535-9.035 6.223-13.953 1.42-4.14 1.03-9.14.832-13.9-3.4 3.047-6.665 6.378-8.14 10.658z" class="B C"/><path d="M242.625 158.822c-.382 2.1-2.318 3.576-4.437 3.33-1.125-.13-2.248-.345-3.357-.56l-5.975-1.156c-1.726-.334-3.583-.73-4.278-2.844-.323-.98-.236-2.07.202-3.006 1.14-2.438 3.804-3.427 6.34-3.568 3.88-.215 7.8 1.404 10.47 4.212a4.07 4.07 0 0 1 1.045 3.537c-.003.018-.006.036-.01.054z" class="B D"/><path d="M293.08 235.207c.193-2.273.794-4.938-.828-6.542-1.183-1.17-3.3-1.4-3.903-2.962-.713-1.837 1.34-3.52 1.852-5.422.73-2.71-1.768-5.25-1.98-8.048-.192-2.54 1.602-4.898 3.825-6.144 1.135-.637 2.367-1.04 3.638-1.33-2.91-5.494-8.905-9.894-15.018-10.484l1.638 76.783c3.218 3.187 9.125 4.083 12.993 1.73-.183-8.847.268-17.866 1.32-26.8-2.517-2.954-3.866-6.915-3.537-10.8z" class="B C"/><path d="M296.312 206.06l-.628-1.3c-1.27.3-2.503.693-3.638 1.33-2.223 1.246-4.017 3.603-3.825 6.144.21 2.8 2.71 5.337 1.98 8.048-.513 1.902-2.565 3.585-1.852 5.422.602 1.552 2.72 1.79 3.903 2.962 1.622 1.604 1.02 4.27.828 6.542-.33 3.875 1.02 7.836 3.537 10.8.79-6.698 1.905-13.345 3.4-19.817 1.488-6.45-1.104-14.03-3.703-20.12z" class="B U"/><path d="M314.676 203.247c-.19 18.454-1.615 39.34.9 57.624 1.628 11.82.695 24.447 2.322 36.268-4.653 2.315-10.326 1.434-14.387-1.81 1.216-11.756-.963-23.57-3.133-35.188l-10.625-56.893c6.63.27 18.292-.27 24.922 0z" class="B C"/><path d="M303.82 134.61c-.442-.783-1.237-1.3-2.004-1.758-1.23-.75-2.48-1.5-3.85-1.937s-2.88-.584-4.244-.122-2.545 1.594-2.82 3.008c-1.48 7.58-2.937 15.482-3.6 23.175l-2.668 30.513c-.452 5.165-.894 10.4-.61 15.558a29.87 29.87 0 0 0 6.543 4.174c1.765.834 3.613 1.513 5.523 2.005l.1-13.948c.258-15.138 1.184-30.248 4.46-44.996l1.962-8.542c.29-1.368.334-3.005.803-4.312.356-.987 1.06-1.678.416-2.818z" class="B p"/><path d="M319.236 157.243l-.35-1.43-11.034 1.53-3.77 30.673-7.903 7.26-.1 13.948.883.225c8.64 1.96 18.125-.242 25.017-5.807-.4-7.936-.1-17.156-.5-25.092-.35-7.142-.71-14.325-2.254-21.308z" class="B C"/><path d="M310.154 138.06c-3.865-4.38-9.207-7.04-14.912-8.44-4.926-1.2-10.19.824-12.726 5.216-2.224 3.85-3.3 8.527-3.47 13.016-.28 7.482 1.447 14.894 1.756 22.375a59.31 59.31 0 0 1-3.899 23.686c1.7 3.56 4.153 6.638 7.1 9.134-.285-5.158.157-10.393.61-15.558l2.302-26.324-3.154-13.252c.96-.762 2.304-1.508 3.264-2.27l-1.874-2.858 5.614-8.335.126-.648c.276-1.414 1.456-2.546 2.82-3.008s2.875-.325 4.244.122 2.62 1.186 3.85 1.937c.767.468 1.562.975 2.004 1.758.636 1.126-.04 1.814-.4 2.782l2.32 8.91-3.026 2.185 2 4.32c-2.374 3.062-4.468 6.34-6.274 9.768-1.524 10.803-2.075 21.744-2.262 32.7l7.903-7.26 3.77-30.673 11.034-1.53c-1.603-6.48-4.325-12.758-8.732-17.752z" class="B F"/><path d="M287.035 145.64c-.96.763-2.304 1.5-3.264 2.27l3.154 13.252.366-4.2c.653-7.474 2.05-15.145 3.484-22.527l-5.614 8.335 1.874 2.858zm15.68 2.847l3.026-2.185-2.32-8.9c-.005.013-.01.024-.016.036-.47 1.307-.512 2.944-.803 4.312l-1.962 8.542c-.905 4.072-1.616 8.174-2.198 12.295 1.806-3.428 3.9-6.706 6.274-9.768l-2-4.32z" class="C B"/><path d="M315.665 195.792l-22.09 13.978c-2.236-.094-4.377-1.453-5.41-3.438s-1.647-5.002.25-6.19l17.705-11.035 1.78-32.66c.146-2.673 1.86-5.128 4.438-5.85 3.326-.932 6.13 1.6 7.187 4.504.853 2.34.79 4.902.692 7.39-.352 8.896-.823 19.642-1.79 28.85-.193 1.83-1.206 3.466-2.763 4.45z" class="B F"/><path d="M283.093 215.503a18.66 18.66 0 0 0 8.184-5.254c1.116-1.235 2.105-2.747 2.07-4.41-.05-2.352-2.208-4.23-4.498-4.767s-4.682-.05-6.984.437c-.988.21-2.033.447-2.76 1.147s-.955 2.027-.187 2.685c.814.698 2.045.24 3.055-.12s2.455-.4 2.82.61c-1.315 1.44-3.407 1.776-5.288 2.296s-3.934 1.593-4.287 3.512c-.32 1.737 1.022 3.46 2.68 4.07s3.513.327 5.197-.204z" class="B D"/><g class="S B"><path d="M295.687 137.673c3.87-.56 6.307-2.686 6.784-4.335l.736 1.212a2.66 2.66 0 0 1 .028 2.704c-1.77 3.083-5.367 4.546-5.367 4.546l-2.18-4.127z"/><path d="M293.265 132.534v2.798c.362 1.735 2.422 2.34 2.422 2.34l-3.398 2.262c-1.865-3.634-.87-6.1.976-7.4z"/></g><g class="J B"><path d="M295.687 137.673l-2.68 1.785.484 3.728 1.89.85 2.128-2.92-1.82-3.442z"/><path d="M293.5 143.186l-7.505 30.835 3.053 5.93 5.736-3.73.605-32.186-1.89-.85z"/></g><path d="M293.265 133.758v1.574c.005.682.458 1.364 1.36 1.885 1.805 1.042 4.718 1.042 6.508.001.897-.522 1.343-1.204 1.34-1.886v-7.237c-2.32 2.845-5.62 4.884-9.206 5.663z" class="B D"/><path d="M302.47 128.095V124.3c-.004-.682-.457-1.364-1.36-1.885-1.802-1.04-4.717-1.042-6.5 0-.896.52-1.34 1.203-1.336 1.885v9.458c3.586-.78 6.887-2.818 9.206-5.663z" class="B J"/><path d="M308.783 115.608c0 7.848-6.363 14.21-14.212 14.21s-14.212-6.363-14.212-14.21 6.364-14.212 14.212-14.212 14.212 6.363 14.212 14.212z" class="B D"/><path d="M305.857 120.12c-2.77-.56-5.24-3.203-5.806-5.972-3.95.672-13.7-2.107-17.6-5.962-1.2-1.177-1.94-3.252-1.89-4.925s.988-3.33 2.476-4.098 3.48-.517 4.624.703c.202-1.126 1.6-2.37 2.732-2.526s2.332.483 2.833 1.51c1.924-1.828 4.85-2.526 7.347-1.624a7.36 7.36 0 0 1 4.702 5.923c1.483-.572 3.332.086 4.345 1.31a3.93 3.93 0 0 1 .303 4.455c1.563.397 2.593 2.074 2.88 3.66a4.33 4.33 0 0 1-1.76 4.227c.8 1.248.488 2.87-.69 3.762s-3.518.656-4.503-.446z" class="B C"/><path d="M309.836 120.477c0 2.034-1.65 3.682-3.683 3.682s-3.682-1.648-3.682-3.682 1.65-3.682 3.682-3.682 3.683 1.648 3.683 3.682z" class="B D"/><path d="M289.1 386.9c1.466-1.366 1.372-3.797-.28-4.933-1.426-.98-3.218-1.52-4.962-1.586-3.038-.12-6 .784-8.88 1.726-3.344 1.09-6.834 2.07-10.178 3.16-1.76 2.675-2.192 6.152-1.26 9.206.447 1.47 1.742 2.56 3.264 2.76 3.592.476 7.54-.56 10.802-2.055 4.2-1.923 8.033-5.05 11.497-8.278z" class="B U"/><path d="M275.683 344.983c-.98 12.646-.716 25.402.44 38.043.293 3.206-11.985 6.132-13.857 3.51-1.568-10.55-2.905-21.6-2.905-32.504l16.32-9.048z" class="B C"/><path d="M67.335 209.944l-1.89-1.083-10.415 53.5 1.9 1.092 10.416-53.51z" class="B F"/><path d="M61.803 260.646l-4.884 2.807 10.416-53.51 4.883-2.807-10.415 53.51z" class="B C"/><path d="M132.422 175.996l-1.89-1.083-10.415 53.5 1.89 1.092 10.415-53.51z" class="B F"/><path d="M126.9 226.698l-4.883 2.807 10.415-53.5 4.884-2.806-10.416 53.508zm19.285-50.34l-1.9-1.083 13.248 64.496 1.9 1.1-13.248-64.504z" class="C B"/><path d="M164.316 238.056l-4.883 2.806-13.248-64.504 4.883-2.807 13.248 64.505z" class="B F"/><path d="M85.02 213.647l-1.89-1.083 13.248 64.495 1.89 1.092-13.248-64.504z" class="B C"/><path d="M103.153 275.344l-4.884 2.807-13.248-64.504 4.883-2.806 13.25 64.503z" class="B F"/><path d="M58.68 102.394l-10.156 98.953 81.222-46.893 8.015-97.718-79.08 45.658z" class="B q"/><path d="M139.898 160.315l20.305 11.723-81.22 46.892-20.304-11.723 81.22-46.892z" class="B b"/><path d="M160.203 172.038v6.998l-81.22 46.892v-6.998l81.22-46.892z" class="B I"/><path d="M58.68 207.207v6.998l20.304 11.723v-6.998L58.68 207.207z" class="B C"/><path d="M58.68 102.394l79.08-45.658 12.385 109.577-79.08 45.657L58.68 102.394z" fill="#eab9c1" class="B"/><g class="C B"><path d="M211.4 260.07c-5.23-2.546-10.19-5.65-14.77-9.235a17.31 17.31 0 0 0-.04 1.528c.024 1.062.63 2.024 1.55 2.554l14.09 7.88c2.453 1.444 5.455 2.93 7.983 1.328 1.208-.766 1.92-2.05 2.122-3.447-1.006.783-2.3 1.276-3.562 1.37-2.568.19-5.055-.852-7.37-1.978z"/><path d="M222.377 259.28c-.333-3.518-3.183-6.037-5.86-7.964-1.015-.73-1.94-1.567-2.79-2.482-1.698-1.824-3.596-3.874-3.13-6.32-3.48 1.1-7.774.856-11.346.1-1.533 2.468-2.424 5.324-2.61 8.223 4.58 3.586 9.54 6.69 14.77 9.235 2.315 1.126 4.802 2.167 7.37 1.978 1.272-.094 2.556-.587 3.562-1.37a5.89 5.89 0 0 0 .035-1.399z"/></g><path d="M201.92 193.276c-.375-2.434-2.96-4.602-2.043-6.887 1-2.5 5.316-2.415 5.97-5.017.466-1.858-1.407-3.792-.743-5.6.487-1.318 2.05-1.804 3.372-2.286s3.118-1.688 2.93-3.08c-5.153 1.725-10.484 2.91-15.88 3.554l.87 29.9 3.52-5.127c1.127-1.64 2.307-3.498 2.004-5.465z" class="B U"/><path d="M214.58 149.228l-19.615 12.35.56 12.39c5.396-.645 10.727-1.83 15.88-3.554.188 1.393-1.61 2.6-2.93 3.08s-2.885.968-3.372 2.286c-.664 1.798 1.21 3.732.743 5.6-.654 2.602-4.97 2.527-5.97 5.017-.917 2.285 1.668 4.453 2.043 6.887.303 1.967-.877 3.824-2.004 5.465l-3.52 5.127c.26 16.564.066 33.5-1.43 41.517 0 0 8.832 2.063 16.683-1.1 3.435-9.05 5.152-71.667 2.932-95.057z" class="B F"/><g class="C B"><path d="M186.712 282.376c-5.23-2.546-10.19-5.65-14.77-9.236a17.76 17.76 0 0 0-.04 1.53c.024 1.06.63 2.023 1.55 2.553l14.088 7.88c2.453 1.446 5.455 2.93 7.983 1.328 1.208-.765 1.92-2.05 2.123-3.446-1.007.783-2.29 1.275-3.563 1.37-2.567.2-5.055-.85-7.37-1.978z"/><path d="M197.68 281.586c-.333-3.52-3.183-6.038-5.86-7.965-1.014-.73-1.94-1.568-2.79-2.482-1.698-1.823-3.596-3.874-3.13-6.32-3.48 1.1-7.773.857-11.346.1-1.533 2.468-2.424 5.324-2.61 8.222 4.58 3.587 9.54 6.7 14.77 9.236 2.315 1.127 4.803 2.168 7.37 1.978 1.272-.095 2.556-.587 3.563-1.37a5.94 5.94 0 0 0 .034-1.398z"/></g><path d="M181.346 151.575l-3.217 7.55c-2.636 6.936-3.793 14.337-3.588 21.754.723 26.198-3.973 72.815-5.09 84.48 2.28 2.43 5.79 3.402 9.114 3.59a13.29 13.29 0 0 0 9.245-3.107c6.11-30.845 13.78-106.227 13.78-106.227l-20.244-8.04z" class="B F"/><path d="M248.218 109.267l4.534 1.287c1.03.292 2.1.586 3.157.424s2.106-.92 2.244-1.98c.155-1.177-.805-2.197-1.778-2.877-1.534-1.073-3.307-1.804-5.15-2.126.644-.362 1.314-1.123 1.66-1.777s.168-1.636-.53-1.88c-.568-.198-1.165.155-1.66.492l-3.826 2.595c-.643.436-1.325.92-1.585 1.653-.284.802.028 1.72.577 2.37s1.54 1.587 2.36 1.82z" class="B D"/><path d="M206.27 110.996l2.012 9.79c3.133 3.243 7.266 5.86 11.6 7.626a8.25 8.25 0 0 0 3.009.595c-4.908-6.55-10.5-12.59-16.62-18z" class="B T"/><path d="M228.386 127.104l20.46-16.585a4.94 4.94 0 0 0-.763-4.214c-.877-1.2-2.618-1.928-4.095-1.962-6.573 4.49-13.633 8.515-20.207 13.006-6.047-4.61-12.946-8.826-18.993-13.438.513 2.18 1 4.614 1.484 7.085 6.13 5.42 11.713 11.46 16.62 18a8.55 8.55 0 0 0 5.494-1.902z" class="B p"/><path d="M178.67 134.883c-.48-1.974-1.456-3.937-1.097-5.936.222-1.235.938-2.326 1.283-3.533s.274-3.677-.98-3.677l-4.507 6.467c2 5.446 3.227 11.033 3.363 16.678.084-.117.178-.227.257-.346a12.43 12.43 0 0 0 1.682-9.653z" class="B T"/><path d="M207.955 107.444c-1.64-3.495-5.496-5.383-9.274-4.592-6.55 1.37-13.862 3.36-19.44 4.918l-4.076 1.138c-3.538.988-6.58 3.257-8.524 6.373l-11.69 18.657c-3.634-3.727-7.613-7.42-11.247-11.146-2.408.28-5.212.967-6.928 2.678 3.038 5.708 7.934 12.31 12.87 17.935 3.172 3.616 8.81 3.522 11.874-.185 4.216-5.103 7.793-10.083 11.846-15.016l4.507-6.467c1.255 0 1.327 2.47.98 3.677s-1.06 2.298-1.283 3.533c-.36 2 .618 3.962 1.097 5.936a12.43 12.43 0 0 1-1.682 9.653c-.08.12-.173.23-.257.346.048 1.937-.03 3.88-.258 5.827-.26 2.222.38 4.483 1.952 6.074 4.467 4.526 10.62 7.908 16.768 7.868 7.38-.048 14.647-3.737 19.04-9.664 3.518-17.852.46-33.185-6.278-47.543z" class="B p"/><g class="S B"><path d="M183.252 106.52c2.894 2.053 7.66 3.594 7.66 3.594l-2.9 5.34-3.954-4.34c-1.136-1.246-1.453-3.033-.815-4.594z"/><path d="M190.91 110.114l4.79 2.272-.49-6.396-1.465-.718-2.835 4.842z"/></g><path d="M184.473 99.55l-.755 4.312c1.386 1.242 3.187 2.028 5.05 2.12 1.742.086 3.5-.44 4.94-1.406l-.213-3.586c-2.87.143-6.443-.172-9.02-1.44z" class="B J"/><path d="M183.718 103.86l-.466 2.66c2.047 1.936 4.867 3.226 7.66 3.594.86-1.4 1.995-2.7 2.854-4.08l-.058-1.46c-1.45.967-3.198 1.492-4.94 1.406-1.862-.092-3.663-.878-5.05-2.12zm19.94-14.78c0 8.2-6.64 14.83-14.832 14.83s-14.83-6.64-14.83-14.83 6.64-14.832 14.83-14.832 14.832 6.64 14.832 14.832z" class="D B"/><path d="M204.787 80.983c-4.413 4.756-13.514 7.513-19.826 6 .22 3.446-1.55 6.95-4.456 8.816-.938.603-1.97 1.04-3 1.472-3.4-1.768-6.162-5.565-6.25-9.397-.058-2.55.87-5.09 2.472-7.064.87-1.072 1.972-1.65 2.967-2.543.787-.704 1.288-1.662 2.033-2.43 3.434-3.545 8.977-5.013 13.67-3.377 2.442.85 4.544 2.41 6.456 4.115.536.478 5.243 5.142 5.933 4.4z" class="B C"/><path d="M179.508 96.746a3.74 3.74 0 1 1-7.482 0 3.74 3.74 0 1 1 7.482 0z" class="B D"/><g class="J B"><path d="M190.91 110.114l-1.843 3.405 2.586 2.24 2.11-.855.35-3.27-3.204-1.52z"/><path d="M204.338 140.743c-2.397-9.042-6.003-17.677-10.573-25.838l-2.11.855c1.95 9.052 2.993 18.535 2.572 27.785 2.358 1.816 4.73 3.867 7.088 5.683l3.024-8.485z"/></g><path d="M144.518 123.367c-.07 1-.7 1.876-1.504 2.457s-1.77.893-2.732 1.127a20.97 20.97 0 0 1-4.441.589c-1.78.044-3.678-.184-5.074-1.29s-2.02-3.328-.9-4.72c1.02-1.278 2.902-1.347 4.536-1.306l4.147.105c-.606-.423-1.297-1.46-1.647-2.1s-.324-1.568.26-2.022c.445-.345 1.09-.328 1.603-.095s.916.65 1.29 1.07c1 1.1 4.54 5.2 4.472 6.198z" class="B D"/><path d="M166.263 336.4c5.298 1.13 10.542 3.538 14.97 6.66a59.45 59.45 0 0 1-22.651 2.862c-.608-2.76-.992-5.696-.96-8.522 2.642.2 6.04-.497 8.643-1z" fill="#4370ae" class="B"/><path d="M177.354 283.95a8.4 8.4 0 0 0-7.058-1.609l-26.13 5.9c6.696 1.674 13.23 4.006 19.46 6.976 1.84-.586 3.848-1.326 5.687-1.912-1.715 6.892-3.754 13.472-7.24 19.66l11.397 2.98 6.73-23.05c.96-3.28-.168-6.815-2.847-8.936zm-22.428 53.915c3.846 1.976 8.7 1.68 12.337-.677l4.365-14.946-14.272-2.193-2.43 17.816z" class="C B"/><path d="M169.313 293.296l-5.687 1.912c-6.23-2.97-12.764-5.302-19.46-6.976l-12.917 2.91 28.594 10.683-2.487 18.223 14.272 2.193 1.842-6.305-11.397-2.98c3.486-6.19 5.525-12.77 7.24-19.66z" class="B U"/><path d="M195.205 355.974c5.298 1.13 10.543 3.54 14.97 6.66-7.272 2.405-15.01 3.382-22.652 2.86-.608-2.76-.99-5.696-.96-8.522 2.643.2 6.04-.497 8.643-1z" fill="#4370ae" class="B"/><path d="M182.892 319.35l-6.947-.79 1.12 5.484c2.324-.978 4.368-2.62 5.827-4.695z" class="B C"/><path d="M191.437 314.665c-.396-4.348-3.326-8.05-7.467-9.432l-37.816-12.63-34.398-3.37c-1.346 3.74-2.708 7.558-2.836 11.53s1.18 8.203 4.313 10.65c3.248 2.537 7.706 2.703 11.827 2.626 6.076-.115 12.485-.001 18.523-.692l32.362 5.2 6.947.79c-1.46 2.076-3.503 3.717-5.827 4.695l6.755 33.067c3.478 2.096 8.454 1.674 11.385-1.137l-3.768-41.31z" class="B F"/><path d="M266.905 381.347l-36.08-21.23-20.602 12.748 34.717 20.75 19.013-6.18 2.952-6.1zm41.74 20.383c1.466-1.367 1.372-3.798-.28-4.932-1.427-.98-3.218-1.52-4.96-1.588-3.04-.118-6 .784-8.882 1.727-3.344 1.1-6.834 2.07-10.178 3.16-1.76 2.675-2.2 6.152-1.26 9.205.447 1.47 1.742 2.56 3.264 2.76 3.592.476 7.54-.56 10.802-2.055 4.2-1.924 8.033-5.05 11.497-8.278z" class="C B"/><path d="M295.228 359.813c-.98 12.645-.716 25.403.44 38.043.293 3.205-11.985 6.132-13.856 3.51-1.57-10.55-2.906-21.59-2.906-32.504l16.322-9.048z" class="B F"/><path d="M235.952 384.18c5.13.772 10.402-.338 15.196-2.317s9.187-4.805 13.55-7.612l23.344-15.027c2.592-1.67-.015-6.93-2.472-8.792s-5.82-2.17-8.833-1.51-5.756 2.173-8.43 3.705c-7.563 4.326-14.978 8.93-22.804 12.757s-16.174 17.8-9.55 18.797z" class="B C"/><path d="M226.245 376.013c3.152 5.9 9.2 10.18 15.824 11.178 5.13.773 10.402-.337 15.197-2.317s9.187-4.804 13.55-7.612l23.343-15.027c2.592-1.668-.013-6.93-2.47-8.79s-5.82-2.17-8.833-1.512-5.755 2.174-8.43 3.704c-7.562 4.327-14.978 8.93-22.804 12.758s-16.723 6.607-25.375 7.62z" class="B F"/><path d="M400.96 313.486l-.812.668c-2.37-9.825-10.034-19.3-22.97-26.76l-.65-.37c-11.853-6.692-26.347-10.87-41.496-12.534-12.067-1.324-22.84-4.723-31.18-9.537s-14.244-11.045-16.572-18.032c-2.916-8.766-10.182-17.15-21.775-23.995l-.643-.375c-30.965-17.88-81.54-18.3-113.104-.797-13.632 7.555-21.65 17.18-24.1 27.182l-.824-.547v7.2h.015c.016 12.04 7.974 24.09 23.887 33.28 12.074 6.97 26.968 11.286 42.54 12.95 11.94 1.275 22.642 4.646 30.92 9.426s14.132 10.968 16.373 17.88c2.917 9.01 10.423 17.63 22.49 24.595 32.186 18.584 84.484 18.316 115.865-.806 14.822-9.033 22.114-20.724 22.014-32.4l.018.01v-7.033z" class="B I"/><path d="M377.176 280.524c30.964 17.877 31.844 47.177 1.75 65.516-31.38 19.123-83.68 19.4-115.865.807-12.068-6.967-19.574-15.584-22.49-24.595-2.24-6.91-8.094-13.1-16.373-17.88s-18.982-8.15-30.92-9.425c-15.573-1.664-30.467-5.98-42.54-12.95-32.18-18.58-31.89-48.873 1.02-67.113 31.564-17.492 82.14-17.082 113.104.797l.643.375c11.593 6.844 18.86 15.23 21.775 23.995 2.328 6.987 8.233 13.217 16.572 18.032s19.112 8.213 31.18 9.537c15.15 1.664 29.643 5.843 41.496 12.535l.65.37z" class="B b"/><g class="c B"><path d="M309.54 323.135l-31.822 18.494-23.152-13.368 31.823-18.493 23.15 13.367zm-15.87-65.095l-31.823 18.493-23.15-13.366 31.823-18.493 23.15 13.366zm55.798 16.13l-31.823 18.493-23.15-13.367 31.82-18.493 23.153 13.367zm-51.165 34.28l-44.923 2.984-3.263-18.636 44.922-2.985 3.264 18.637z"/><path d="M233.12 228.9l-44.923 2.984-3.263-18.637 44.922-2.984 3.264 18.637zm137.847 69.327l-13.66 25.08-31.092-4.96 13.66-25.082 31.093 4.962zM266.185 230.85l-13.662 25.082-31.1-4.962 13.66-25.08 31.093 4.96z"/></g><path d="M171.145 240.472l.01-.03c-.004.01-.007.02-.01.03z" class="B K"/><path d="M171.134 240.507c.003-.012.007-.023.01-.035l-.01.035z" class="B G"/><g fill="#ab9090" class="B"><path d="M171.125 240.54l.007-.03v-.001l-.007.03z"/><path d="M171.133 240.508z"/></g><path d="M171.116 240.578v-.001l.01-.036-.01.037z" fill="#ae9393" class="B"/><path d="M171.1 240.616l.006-.038-.006.038z" class="B H"/><g fill="#b39797" class="B"><path d="M171.106 240.64h0l.004-.024-.004.025z"/><path d="M171.104 240.657l.001-.007z"/></g><path d="M171.1 240.704l.003-.047-.003.047z" fill="#b79b9b" class="B"/><path d="M171.1 240.757v-.03.03zm0-.047z" class="V B"/><path d="M171.103 240.822l-.002-.02.002.02zm-.003-.05v-.015.015z" fill="#bd9f9f" class="B"/><path d="M171.113 240.905l-.005-.033c.001.01.003.022.005.033zm-.01-.067v-.001z" fill="#c0a2a2" class="B"/><path d="M171.155 240.44l9.25-24.53-9.25 24.53z" class="B d"/><g class="W B"><path d="M180.42 215.878l.013-.03c-.005.01-.01.02-.013.03z"/><path d="M180.432 215.847l.001-.001-.001.001z"/></g><path d="M180.405 215.9l.014-.032-.014.032z" class="B X"/><path d="M180.405 215.912v-.002.002z" class="B K"/><path d="M180.45 215.815c.005-.008.01-.016.013-.024v-.001c-.004.01-.008.017-.013.025z" class="B Y"/><path d="M180.433 215.846l.016-.03-.016.03z" class="B E"/><path d="M173.123 240.034l8.292-21.99-8.292 21.99z" class="B Z"/><g fill="#a98e8e" class="B"><path d="M201.605 258.34h-.001a.37.37 0 0 1-.027.029l.028-.03zm-.05.05h-.001-.023c.008-.006.016-.014.024-.02z"/><path d="M201.515 258.422zm.115-.112l-.016.02c.006-.007.01-.014.016-.02z"/></g><g class="Z B"><path d="M201.747 258.104v-.001l9.25-24.53-9.25 24.53zm-.027.063v-.001.001zm-.03.058v-.001zm-.035.052zm-.04.053l-.01.01zm-.037.04l-.023.02h.001l.022-.02zm.7.17l.004-.01zm-.746-.14zm10.098-24.682l-.01.038.034-.14-.016.074-.008.03z"/><path d="M211.605 233.8l-.01.036-.025.07-9.25 24.53 9.25-24.53a1.39 1.39 0 0 0 .047-.142c-.003.013-.007.024-.01.037z"/></g><path d="M209.028 233.982l-8.294 21.993-27.61-15.94 8.298-21.99.057.032 27.55 15.907zm2.017-.607l.006-.07v-.016c.001-.015.001-.03 0-.044v-.03l-.003-.035-.004-.034a.4.4 0 0 0-.005-.034l-.006-.033-.01-.037-.016-.05-.01-.03-.013-.03c-.005-.01-.01-.02-.013-.028s-.01-.02-.016-.03-.01-.016-.014-.024-.015-.025-.024-.037l-.04-.053-.044-.046v-.001a.56.56 0 0 0-.097-.071l-29.584-17.08c-.243-.14-.53-.035-.688.23l-.015.028-.016.03-.001.001-.013.03-.014.032v.002l-9.25 24.53c-.004.01-.007.02-.01.03l-.01.035-.001.002-.008.032-.01.037-.006.038-.004.025-.005.063v.068.03l.007.07c.001.01.003.022.005.033.037.206.143.382.302.474L201 258.46c.167.097.356.077.51-.033l.022-.016c.008-.006.016-.014.024-.02l.022-.02.028-.03.025-.03c.006-.008.013-.015.018-.023l.04-.057c.013-.022.022-.04.032-.06v-.001l.027-.064 9.27-24.596.017-.07.01-.063z" class="B I"/><g class="Z B"><path d="M211.607 232.693l.006.02-.02-.056.013.036zm-.774.017v-.001.001zm.8.076l.012.054-.018-.076.006.022zm-.756-.03zm.04.053zm.038.062c-.004-.008-.01-.016-.014-.024l.014.024zm.71.064l.006.05-.01-.07.004.02zm-.68-.006l-.013-.028.013.028zm.023.072l-.01-.03.01.03zm.676.1l.002.04-.006-.075c.001.01.003.017.003.025zm-.66-.05zm.667.195l-.002.056v-.092c.001.007.001.014.001.02zm-.643-.057l-.004-.034c.002.01.003.023.004.034zm-.01-.078l-.006-.033.006.033zm.012.144v-.03a.32.32 0 0 1 .001.031zm.635.116l-.005.066-.003.027.01-.124v.006l-.002.025z"/><path d="M211.05 233.304v-.016.016zm-.004.06zm.62.17l-.01.067-.003.012.02-.133-.004.03-.003.024zm-.63-.096v.001-.001zm-.015.066v.003z"/></g><path d="M201.747 258.103v.001l-.027.062-.03.058c-.012.022-.023.037-.034.053s-.02.025-.025.032l-.016.02-.037.04-.023.02-.023.02-.022.016c-.153.1-.342.13-.51.033l-29.585-17.08c-.16-.092-.265-.268-.3-.47l-.006-.037c-.002-.01-.003-.023-.004-.035l-.003-.034v-.032-.06l.004-.054.006-.04.006-.038v-.001l.01-.036.007-.03.013-.04.01-.03 9.294-24.626c.005-.008.01-.016.013-.024.16-.27.447-.375.7-.235l29.584 17.08a.56.56 0 0 1 .097.071v.001c.014.012.026.026.04.04l.04.05.03.046.014.024.016.03.013.028.013.03.01.03.012.035.013.052.006.033.005.034c.002.01.003.023.004.034l.003.035a.32.32 0 0 1 .001.031c.001.014.001.03 0 .044v.016l-.005.06-.01.073v.001l-.016.065-.022.07-.001.001-9.25 24.53zm-1.122.987c.09.052.166.11.23.17a.96.96 0 0 0 .307.068l.083.001.03-.003.058-.006h.005c.012-.001.023-.004.035-.006l.054-.01.038-.01.052-.015c.013-.004.026-.01.04-.015l.05-.02a.34.34 0 0 0 .039-.018l.047-.024.038-.022.046-.028.036-.026.044-.034.033-.026.07-.062.02-.02.036-.04.03-.033c.013-.014.017-.02.02-.025l.043-.055.017-.024.04-.058c.004-.008.01-.015.014-.023l.047-.08.047-.095.01-.023.04-.095 9.25-24.53a1.39 1.39 0 0 0 .047-.142l.036-.147v-.002l.02-.133c.001-.008.003-.015.003-.023l.01-.13v-.13l-.002-.067-.006-.075-.01-.074-.01-.07-.015-.073-.018-.076-.01-.036-.023-.07-.024-.07-.026-.062-.03-.065-.032-.062-.03-.055-.047-.074-.017-.025-.072-.09-.014-.016-.08-.083-.1-.084c-.035-.026-.07-.05-.108-.07l-29.747-17.156-.067-.022-.062-.015c-.007-.002-.014-.003-.02-.004l-.044-.008-.026-.003-.035-.003c-.48-.035-.958.302-1.18.892l-9.25 24.53c-.25.66-.097 1.418.33 1.834l.128.065 29.584 17.08z" class="B c"/><path d="M201.275 259.326l.058-.006h.005c.012-.001.023-.004.035-.006l.054-.01.038-.01.052-.015c.013-.004.026-.01.04-.015l.05-.02a.34.34 0 0 0 .039-.018l.047-.024.038-.022.046-.028.036-.026.044-.034.033-.026.07-.062.018-.017.037-.04.03-.033c.013-.014.017-.02.02-.025l.043-.055.017-.024.04-.058c.004-.008.01-.015.014-.023l.001-.001v-.001l.046-.078.003-.006h.001l.043-.088.01-.022h0l.04-.095 9.296-24.672.012-.044c.002-.01.005-.02.008-.03l.016-.074v-.003l.014-.078.003-.024c.002-.01.003-.02.004-.03s.003-.015.003-.023l.004-.032.005-.066.002-.025v-.043l.002-.056-.002-.036-.002-.067-.002-.04c-.001-.017-.003-.025-.004-.034l-.01-.074-.004-.038-.006-.032-.015-.073c-.003-.012-.005-.024-.007-.037l-.01-.04-.01-.036-.01-.035c-.003-.012-.008-.023-.013-.036l-.024-.07-.01-.028-.016-.034-.03-.065-.014-.03c-.005-.01-.012-.022-.018-.033l-.03-.055-.016-.027-.03-.047-.017-.025-.014-.02-.038-.048-.016-.02-.018-.02-.03-.033-.05-.05-.04-.034-.05-.042-.03-.022-.032-.023-.055-.034-29.755-17.16-.06-.02-.062-.015c-.01-.003-.015-.003-.02-.004l-.044-.008-.026-.003-.035-.003.98.058.065.007.07.01.065.016.062.02.058.023.057.027.055.03 29.793 17.236.015.016.034.033.017.018c.01.013.02.024.03.036l.017.02.037.047.012.017.05.075.066.115.058.127.047.134.026.092.03.15.02.157.006.128v.015l-.002.1v.01l-.007.083-.003.027-.007.058-.015.1-.003.012c-.004.026-.01.05-.016.077h-.001l-.007.028-.012.044v.036l-.01.037-.025.07-9.28 24.603-.02.044-.01.023-.033.065v.002l-.038.067-.026.04-.017.027c-.007.01-.015.02-.023.032s-.01.016-.016.024l-.044.054-.018.023-.032.036-.037.04-.018.016-.07.063-.032.027-.045.033-.036.025-.046.03-.037.022-.048.024-.038.018-.05.02-.04.015-.052.015-.038.01-.054.01-.036.006-.062.006c-.01 0-.02.002-.03.002a.96.96 0 0 1-.093-.001l-.985-.06.083.001.03-.003z" class="B e"/><path d="M181.415 218.043l.001-.003.005.003h-.006z" fill="#34b6ef" class="B"/><path d="M200.753 255.926l-.02.05-27.61-15.94 8.298-21.99.057.032 27.55 15.907-8.275 21.944z" class="B J"/><path d="M170.508 243.805z" class="B L"/><path d="M170.504 243.803zm-.088-.03z" class="f B"/><path d="M170.337 243.755l.014.003zm.06.015h.001z" class="M B"/><path d="M170.317 243.75h.002zm-.054-.008l.017.002z" class="a B"/><path d="M170.243 243.74h.002zm-.053-.006v.002z" class="N B"/><path d="M170.17 243.732zm-.055-.002h0z" class="E B"/><path d="M170.098 243.73h.002zm-.06 0h0z" class="O B"/><path d="M169.954 243.736c.006-.001.014-.001.02-.002h.003c-.008 0-.016.001-.024.002zm.07-.006h.014z" class="P B"/><path d="M169.857 243.75h.006zm.1-.014h0z" class="G B"/><path d="M169.714 243.785l.01-.004zm.046-.013l.032-.01.001-.001-.033.01zm.068-.017l.03-.006-.03.006z" class="Q B"/><path d="M169.55 243.857zm.15-.057h0zm-.08.02h.001c.006-.003.014-.006.02-.01h.001l-.023.01z" class="H B"/><path d="M169.55 243.857l-10.177 5.914 10.177-5.914z" class="B V"/><path d="M159.372 249.77z" class="B H"/><path d="M159.293 249.826l.001-.001c.008-.005.015-.01.022-.017l-.023.018zm-.026.022l.005-.005zm.073-.058l.002-.001c.007-.004.013-.01.02-.013l-.022.014z" class="Q B"/><path d="M159.26 249.856zm-.02.427c-.005-.005-.01-.01-.013-.016.004.006.008.01.013.016zm-.02-.383z" class="G B"/><path d="M159.215 249.906zm-.015.04v-.001l.008-.012zm.008.3v-.001z" class="P B"/><path d="M159.17 249.987zm.014.217l-.007-.018zm.003-.254l.003-.004z" class="O B"/><path d="M159.158 250.03zm.01-.04zm-.001.173l-.005-.018z" class="E B"/><g class="N B"><path d="M159.153 250.08c0-.008.001-.015.002-.023l-.002.023zm.004-.047z"/><path d="M159.156 250.12l-.001-.02z"/></g><path d="M159.227 250.267zm.013.017v-.001.001zm-.03-.04l-.001-.001v.001h.001zm-.012-.018l-.014-.023c.004.008.01.015.014.023zm-.022-.04l.001.001c-.004-.008-.008-.016-.01-.024.002.008.006.015.01.023zm-.02-.084v.002l-.002-.024c0 .008.001.015.002.023zm.007.042c-.002-.006-.004-.014-.006-.023l.006.023z" class="R B"/><g class="g B"><path d="M176.487 261.35l-.05-.032c.018.01.035.02.05.032zm-9.607-5.45h-.004l.037.004-.033-.004zm-.224.008h-.005l.05-.003h-.002l-.042.003zm.294.012h-.003l.04.006h-.004l-.032-.006zm-.542.035h-.001l.037-.01-.036.01zm.6-.023l.043.01-.043-.01zm-.543.004h-.002l.04-.008-.038.008zm10.105 5.5l.006.007z"/><path d="M167.087 255.95h-.002l.08.027h-.001c-.025-.01-.05-.02-.077-.026zm.09.03h-.001a.92.92 0 0 1 .1.048c-.032-.02-.064-.033-.098-.047zm9.474 5.598c-.001-.007-.003-.014-.005-.022l.005.022zm-9.878-5.674h-.04.04zm.038.001h-.003c.012 0 .024.001.037.002h-.003l-.03-.002zm-.268.017h-.001l.084-.01h-.002l-.08.01zm10.08 5.576c-.004-.008-.01-.015-.013-.022l.013.022zm-.028-.045zm-.038-.043h0zm.084.127c-.002-.007-.006-.014-.01-.02.003.007.007.014.01.02zm-10.398-5.51a.65.65 0 0 1 .065-.033h-.001l-.064.033zm10.408 5.58h0zm-10.32-5.62h-.002l.058-.022-.056.022zm10.177 5.382l.024.018-.023-.018h-.001z"/></g><path d="M167.168 255.978l.008.003zm.104.05z" class="L B"/><path d="M167.08 255.947l.007.003zm.084.028l.001.001z" class="f B"/><path d="M167.003 255.93zm.053.012c.01.003.017.004.024.005l-.024-.005z" class="M B"/><path d="M166.93 255.916l.02.003zm.05.01h.004z" class="a B"/><path d="M166.86 255.908l.02.002-.02-.002zm.04.005c.01.002.014.003.02.003l-.02-.003z" class="N B"/><path d="M166.787 255.904l.022.001c-.007 0-.015-.001-.022-.001zm.053.003h.003z" class="E B"/><path d="M166.77 255.904h0zm-.058.001c.006-.001.013-.001.02-.001h.004l-.024.001z" class="O B"/><path d="M166.698 255.905h0zm-.068-.005l.02-.002h.005l-.026.002z" class="P B"/><path d="M166.537 255.923l.005-.001zm.086-.013h.002z" class="G B"/><path d="M166.398 255.958l.01-.003zm.042-.013c.014-.003.023-.006.033-.01h.001l-.034.01zm.066-.015l.03-.006-.03.006z" class="Q B"/><path d="M166.238 256.028zm.068-.035h.001l.02-.01h.002l-.024.01zm.078-.03z" class="H B"/><path d="M161.008 259.067l5.23-3.04-5.23 3.04z" class="B V"/><path d="M197.437 259.34l-26.82-15.484 26.82 15.484z" class="B h"/><path d="M161 259.073z" class="B H"/><path d="M160.95 259.105l.028-.02.02-.012-.048.032zm-.044.037l.027-.023-.027.023z" class="Q B"/><path d="M160.902 259.146zm-.042.044l.017-.02a.29.29 0 0 0-.017.019z" class="G B"/><path d="M160.86 259.192v-.001.001zm-.028.044v-.001l.015-.024c-.006.008-.01.017-.015.025z" class="P B"/><path d="M160.812 259.28v-.002l.01-.02c-.004.007-.007.015-.01.022zm.015-.037l.005-.007z" class="O B"/><path d="M160.8 259.32h0zm.007-.03l.005-.012zm-.007.118c.002.015.005.03.01.042-.003-.008-.004-.015-.006-.02l-.004-.02z" class="E B"/><g class="N B"><path d="M160.796 259.355c-.001.013 0 .027.001.04v-.005a.18.18 0 0 1-.002-.024zm.001-.015c.001-.006.001-.013.002-.02v.004z"/><path d="M160.8 259.412l-.002-.01.002.01z"/></g><path d="M160.792 260.542h-.001.001z" class="B a"/><path d="M197.437 259.34z" class="B L"/><path d="M160.804 259.43l-.006-.022.006.022zm-.004.02h0zm-.005-.084a.18.18 0 0 0 .002.024c-.001-.007-.002-.015-.002-.023v-.001zm.215 1.3l-.217-.125.217.125z" class="R B"/><path d="M176.436 261.318l-9.162-5.3 9.162 5.3z" class="B h"/><g class="L B"><path d="M176.598 261.46l.023.04.017.04c-.007-.022-.023-.053-.045-.084zm-.068-.076c.002.003-.01-.008-.023-.018l.023.018zm.027.026l.024.028c-.003-.005-.014-.016-.024-.028zm.087.146l.005.022c0 .005-.002-.008-.005-.022zm-.208-.238c.018.01.035.02.05.032a.48.48 0 0 0-.051-.032zm.214.288c.001.024 0 .035-.001.046.002-.015.002-.03.001-.046z"/><path d="M176.65 261.653c-.003.017-.006.034-.012.05.006-.017.01-.034.012-.05z"/></g><path d="M171.343 266.633l-.137-.08.137.08z" class="B d"/><path d="M170.17 265.957l-9.16-5.3 9.16 5.3z" class="B g"/><path d="M171.206 266.553l-.16-.09.16.09z" class="B K"/><path d="M171.045 266.462l-.138-.08.138.08z" class="B X"/><path d="M170.907 266.382l-.094-.054.094.054z" class="B W"/><path d="M170.813 266.328l-.08-.047.08.047z" class="B E"/><path d="M170.732 266.28l-.075-.044.075.044z" class="B Y"/><path d="M170.657 266.237l-.072-.04.072.04z" class="B i"/><path d="M170.585 266.196l-.07-.04.07.04z" class="B j"/><path d="M170.514 266.155l-.073-.042.073.042z" class="B M"/><path d="M170.44 266.113l-.076-.044.076.044z" class="B k"/><path d="M170.365 266.07l-.09-.052.09.052z" class="B l"/><path d="M170.276 266.017l-.106-.06.106.06z" class="B R"/><path d="M160.797 259.342v-.001l.006-.036.01-.026c.002-.007.005-.015.01-.022.007-.017.01-.02.01-.02.004-.008.01-.017.015-.025l.013-.02v-.001l.017-.02c.015-.018.02-.022.024-.026l.035-.03.062-.043 5.24-3.045c.024-.014.046-.024.068-.035l.024-.01c.017-.008.035-.015.054-.02l.024-.008c.01-.004.02-.007.032-.01l.035-.01.03-.007.03-.006.086-.012.033-.003.042-.003h.014c.008-.001.016-.001.024-.001h.05l.022.001c.01 0 .02.001.03.002l.04.003.03.003.02.003.05.01c.008.001.015.002.022.004l.053.013.024.005.084.028.108.052 9.164 5.29c.02.012.04.024.058.038l.014.01c.013.01.025.02.036.03l.042.047.001.001c.03.04.045.07.054.102.006.023.008.036.01.05v.01c.001.015.001.03-.001.046v.001c-.003.017-.006.034-.012.05-.028-.08-.096-.155-.202-.217l-9.162-5.29c-.287-.166-.75-.166-1.036 0l-5.23 3.04a.42.42 0 0 0-.198.214v-.001c-.005-.013-.008-.027-.01-.042-.004-.026-.005-.04-.004-.053z" class="B m"/><path d="M161.008 259.237l5.23-3.04c.285-.166.75-.166 1.036 0l9.162 5.29c.106.062.174.138.202.217-.028.078-.094.153-.198.214l-5.23 3.04c-.285.166-.75.166-1.037 0l-9.162-5.29c-.106-.062-.173-.138-.2-.217a.42.42 0 0 1 .198-.214z" fill="#bbddf8" class="B"/><path d="M187.193 265.9l.064-.032-.064.032zm-.08.04l.054-.02-.054.02z" class="K B"/><path d="M187.057 265.96l.03-.01-.03.01zm-.07.015l.03-.006-.03.006z" class="X B"/><path d="M186.867 265.995l.082-.012-.082.012z" class="B W"/><path d="M186.79 266l.044-.003-.044.003z" class="B E"/><path d="M186.715 266.002h0z" class="B Y"/><path d="M186.643 266h.033c-.01 0-.023-.001-.033-.002z" class="B i"/><path d="M186.57 265.992c.01.002.022.003.033.004l-.033-.004z" class="B j"/><path d="M186.496 265.98c.012.003.024.005.036.007l-.036-.007z" class="B M"/><path d="M186.417 265.963l.044.01-.044-.01z" class="B k"/><path d="M186.31 265.928l.08.027-.08-.027z" class="B l"/><path d="M186.196 265.875a1.05 1.05 0 0 0 .101.049l-.1-.05z" class="B R"/><path d="M149.488 253.648v.003c.001.032.003.054.007.076l.004.023.004.025c.002.007.006.015.008.023l.014.042c.01.026.014.033.017.04l.02.042.025.04.028.04c.005.006.01.012.013.02s.014.015.02.023l.026.03.045.044.03.027.058.045.03.022c.03.022.064.043.1.063l29.585 17.08.11.06c.21.1.457.16.712.186l.07.005.124.007h.023a3.08 3.08 0 0 0 .288-.012c.007-.001.016-.001.024-.003.154-.015.303-.047.444-.09l.11-.038c.085-.032.166-.07.24-.113l19.002-11.044.027-.017.025-.016.02-.016c.012-.008.02-.014.027-.02s.016-.012.023-.018l.02-.017.02-.016.02-.02.034-.034.025-.027.026-.03.023-.032.008-.01.027-.043c.004-.006.007-.012.01-.018l.01-.02.01-.022c.003-.008.007-.015.01-.023s.005-.013.007-.02l.007-.022.006-.02.006-.022c.001-.007.002-.013.004-.02l.003-.023.003-.02c.001-.007.001-.015.002-.023l.001-.026-.005 1.756-.002.027-.001.023-.006.042-.004.02-.006.022-.006.02-.007.022-.007.02a.16.16 0 0 0-.01.023l-.01.02c-.004.007-.008.015-.01.023l-.01.018-.016.027-.033.046-.048.06-.046.045-.016.016a.2.2 0 0 0-.022.019c-.007.005-.014.01-.02.017l-.024.02-.023.017-.05.034c-.008.006-.018.012-.027.018l-.036.02-19.068 11.076c-.01.005-.018.01-.028.012l-.097.042-.105.038-.095.027-.06.016-.084.018-.05.01-.037.006-.106.014c-.01.002-.02.003-.03.004s-.013.002-.02.002c-.014.002-.027.002-.04.003l-.102.007-.025.002h-.04l-.083.001c-.01-.001-.02 0-.03 0l-.04-.002-.077-.005c-.01 0-.022-.001-.034-.001s-.024-.003-.036-.005l-.076-.008c-.012-.002-.023-.003-.035-.004l-.033-.005-.08-.014c-.012-.003-.025-.004-.037-.007l-.026-.006-.094-.023-.04-.01-.022-.007-.032-.01-.092-.03a.2.2 0 0 0-.026-.01c-.036-.013-.058-.024-.08-.034l-.04-.017-.11-.057-29.585-17.082c-.3-.173-.45-.4-.448-.626l.005-1.756z" class="B e"/><path d="M170.617 243.857l26.82 15.484a.52.52 0 0 1 .052.034c.243.172.227.425-.05.585l-10.177 5.915-.07.035-.025.01-.054.02-.027.01-.03.01-.038.01-.03.006-.04.008-.082.012-.034.003-.044.003c-.013.001-.025.001-.038.001h-.036c-.013 0-.026 0-.04-.001s-.023-.001-.033-.002l-.04-.003-.033-.004c-.013-.001-.026-.003-.038-.005l-.036-.007-.035-.007-.044-.01c-.01-.002-.02-.005-.028-.008l-.08-.027c-.047-.02-.08-.035-.113-.053l-26.82-15.485c-.055-.032-.1-.068-.135-.106v-.001c-.005-.005-.01-.01-.013-.016l-.018-.022-.001-.001-.024-.04-.017-.04-.01-.042-.003-.04h0c0-.008.001-.015.002-.023s.001-.015.002-.023l.005-.02.006-.022c.004-.008.006-.014.008-.02s.007-.015.01-.023l.028-.043.013-.016c.01-.01.02-.023.03-.034l.035-.03c.008-.005.015-.01.022-.017s.017-.012.027-.018.013-.01.02-.013l10.258-5.956c.006-.003.014-.006.02-.01l.06-.023.022-.007.04-.01.03-.008c.014-.004.028-.006.042-.01l.024-.005.09-.013h.006c.006-.001.014-.001.02-.002l.05-.004h.033.042.034l.038.003.036.002a.42.42 0 0 0 .037.004l.034.005.04.007.03.007.047.01.026.007.08.027c.046.02.08.036.113.054zm-9.822 15.5v-.001l.002-.024c.001-.006.001-.013.002-.02l.007-.026c.007-.023.01-.028.012-.033s.007-.015.01-.022l.023-.038.01-.01.028-.032.017-.017.027-.023.018-.014.028-.02.02-.012 5.24-3.045c.022-.013.045-.024.07-.035l.02-.01.058-.022.02-.007.037-.01c.01-.002.02-.005.03-.008l.04-.008.024-.005.088-.012c.012-.002.02-.002.026-.003l.05-.003h.012c.006-.001.013-.001.02-.001h.055l.056.003.033.003.037.004.033.005.04.006.03.006.046.012.024.006.08.027c.044.018.078.034.11.052l9.162 5.3c.018.01.035.02.05.032l.02.016.024.018.037.037c.005.005.01.01.013.016l.013.016c.01.01.01.017.015.023l.013.022.017.04.01.04v.027c.001.025 0 .036-.001.047v.001c-.003.017-.006.034-.012.05-.028.078-.094.153-.198.214l-5.23 3.04c-.285.166-.75.166-1.037 0l-9.162-5.29c-.106-.062-.173-.138-.2-.217-.003-.01-.004-.016-.006-.022l-.006-.022v-.004l-.001-.013c-.001-.007-.002-.015-.002-.023zm40.27.434c.03-.193-.044-.38-.212-.54-.063-.06-.138-.118-.23-.17l-29.712-17.146c-.597-.276-1.468-.255-2.018.065L149.93 253.03c-.295.17-.442.395-.44.62.001.032.003.054.007.076l.004.023a.42.42 0 0 0 .012.048l.014.042.017.04.02.042.025.04.028.04c.01.014.022.028.034.042l.026.03.045.044.03.027.058.045.03.022c.03.022.064.043.1.063l29.585 17.08.11.06c.21.1.457.16.712.186l.07.005.124.007h.023a3.08 3.08 0 0 0 .288-.012c.007-.001.016-.001.024-.003.154-.015.303-.047.444-.09l.11-.038c.085-.032.166-.07.24-.113l18.967-11.022.096-.062.09-.07.08-.076c.03-.033.045-.054.06-.076a.58.58 0 0 0 .05-.081.56.56 0 0 0 .035-.083.47.47 0 0 0 .022-.083z" class="B c"/><path d="M159.155 250.056c0-.007.001-.015.002-.023l.005-.02.006-.022c.004-.008.006-.014.008-.02s.007-.015.01-.023.008-.013.01-.017.01-.017.017-.026l.013-.016c.01-.01.02-.023.03-.034l.034-.03.023-.018.025-.017c.007-.005.014-.01.022-.014l10.186-5.92a.79.79 0 0 1 .071-.036l.023-.01.057-.02.024-.01.035-.01c.01-.004.022-.007.033-.01s.024-.004.036-.007l.03-.006.1-.013h.007l.024-.002.046-.003h.037c.012-.001.024-.001.037-.001h.038l.035.002.038.004.034.003.02.003.054.01c.007.001.014.003.02.004l.06.014c.006.001.014.003.02.005l.088.03c.047.02.08.036.113.054l26.872 15.518c.243.172.227.425-.05.585l-10.177 5.915-.07.035-.025.01-.054.02-.027.01-.03.01-.038.01-.03.006-.04.008-.082.012-.034.003-.044.003c-.013.001-.025.001-.038.001h-.036c-.013 0-.026 0-.04-.001s-.023-.001-.033-.002l-.04-.003-.033-.004c-.013-.001-.026-.003-.038-.005l-.036-.007-.035-.007-.044-.01c-.01-.002-.02-.005-.028-.008l-.08-.027c-.047-.02-.08-.035-.113-.053l-26.82-15.485c-.055-.032-.1-.068-.135-.106v-.001c-.005-.005-.01-.01-.013-.016l-.018-.022h-.001c-.003-.007-.006-.012-.01-.018l-.014-.023-.017-.04-.01-.042-.003-.042c0-.008.001-.015.002-.023z" class="B m"/><path d="M343.353 318.74l-.01-.03.01.03z" class="B K"/><path d="M343.363 318.775l-.01-.034.01.034z" class="B G"/><g fill="#ab9090" class="B"><path d="M343.372 318.8l-.007-.03h-.001l.008.03z"/><path d="M343.364 318.777l-.001-.001v-.001z"/></g><path d="M343.38 318.846v-.001l-.01-.035.01.036z" fill="#ae9393" class="B"/><path d="M343.387 318.885l-.006-.04c.003.013.004.027.006.04z" class="B H"/><path d="M343.4 318.9h0l-.004-.024.004.025zm.003.026z" fill="#b39797" class="B"/><path d="M343.396 318.972l-.003-.046.003.046z" fill="#b79b9b" class="B"/><path d="M343.397 319.026v-.03.03zm-.001-.046v-.008.008z" class="V B"/><path d="M343.394 319.1l.001-.02c0 .007-.001.014-.001.02zm.003-.05v-.015.015z" fill="#bd9f9f" class="B"/><path d="M343.384 319.174l.005-.033c-.001.01-.003.022-.005.033zm.01-.068v-.015.015z" fill="#c0a2a2" class="B"/><path d="M343.342 318.7l-9.25-24.53 9.25 24.53z" class="B d"/><g class="W B"><path d="M334.078 294.146l-.013-.03.013.03z"/><path d="M334.064 294.116v-.001.001z"/></g><path d="M334.092 294.178l-.014-.032.014.032z" class="B X"/><path d="M334.093 294.18l-.001-.002z" class="B K"/><path d="M334.048 294.084l-.013-.025.013.025z" class="B Y"/><path d="M334.064 294.115c-.004-.01-.01-.02-.016-.03.006.01.012.02.016.03z" class="B E"/><path d="M341.374 318.302l-8.292-22 8.292 22z" class="B Z"/><g fill="#a98e8e" class="B"><path d="M312.892 336.608l.001.001c.008.01.018.02.027.03h.001l-.03-.03zm.05.05c.008.007.016.015.025.02-.01-.006-.017-.013-.025-.02z"/><path d="M312.982 336.7zm-.115-.122h-.001l.017.02-.016-.02z"/></g><path d="M312.75 336.373v-.001l-9.25-24.53 9.25 24.53zm.027.062v.001l.001.001-.001-.002zm.03.06v-.001zm.034.052zm.04.052l.01.01zm.037.04h-.001l.022.02c-.006-.007-.014-.013-.02-.02zm-.7.17l-.004-.008zm.747-.13zm-10.097-24.69l.01.037-.034-.14.016.074c.002.01.005.02.008.03zm.022.08l.01.037.025.07 9.25 24.53-9.286-24.636z" class="Z B"/><path d="M333.02 296.344l.057-.033h.005l8.293 21.993-27.61 15.942-.02-.05-8.274-21.944 27.55-15.907zm-29.557 15.363l.016.066v.003l.023.066 9.277 24.595c.01.02.02.038.03.057l.034.052.025.032c.005.007.01.014.016.02.018.02.028.03.038.04l.02.02.025.02.02.017a.46.46 0 0 0 .51.033l29.584-17.08c.16-.092.265-.267.302-.47v-.004l.005-.033.005-.035v-.015c0-.006.001-.013.001-.02l.002-.03v-.045l-.001-.024-.003-.046-.006-.04-.006-.04-.01-.036-.008-.03v-.001l-.01-.037-.01-.03-9.264-24.564-.013-.03-.001-.001v-.001c-.004-.01-.01-.02-.016-.03l-.013-.025c-.16-.27-.447-.375-.69-.234l-29.585 17.08c-.035.02-.067.044-.097.07-.014.013-.026.027-.04.04l-.04.05-.03.047-.014.023-.016.032c-.005.008-.008.018-.012.028l-.013.03-.012.03-.01.036-.012.052c-.003.01-.005.022-.007.033l-.01.068-.002.035-.002.03v.044l.006.077.01.074z" class="B I"/><g class="Z B"><path d="M302.9 310.962l-.01.035.022-.07-.012.036z"/><path d="M302.864 311.054a.28.28 0 0 0-.011.055.69.69 0 0 1 .017-.076l-.006.02zm.756-.03zm-.04.054zm-.038.06c.005-.007.01-.015.014-.023l-.014.023zm-.71.066c-.004.023-.005.036-.006.05l.01-.07-.005.02zm.68-.006c.004-.01.007-.02.012-.028-.005.008-.008.018-.012.028zm-.024.06l.012-.03-.012.03zm-.676.102c-.002.014-.002.026-.002.04l.005-.074c0 .01-.002.016-.003.025v.01zm.66-.05zm-.665.193l.001.057v-.093l-.001.022v.014zm.64-.056l.005-.034-.005.034zm.01-.067l.007-.033c-.003.01-.005.022-.007.033zm-.015.132l.002-.03-.002.03zm-.635.116l.006.066.003.026v.006l-.01-.13v.032zm.636-.055zm.004.06z"/><path d="M302.83 311.803l.012.067a1.76 1.76 0 0 1-.02-.12c.002.01.003.02.004.03a.15.15 0 0 0 .004.024zm.648-.03v.003-.003z"/></g><path d="M303.5 311.842c-.01-.022-.016-.043-.023-.066v-.003l-.016-.065v-.001l-.01-.063-.006-.07-.001-.06.002-.03c0-.012.001-.023.002-.035l.005-.034c.001-.012.003-.023.005-.034l.007-.033.01-.037.014-.05.012-.03.013-.03c.004-.01.007-.02.012-.028l.016-.032c.005-.007.01-.015.014-.023a.46.46 0 0 1 .023-.037l.04-.054.044-.046c.03-.027.062-.052.097-.07l29.585-17.08c.242-.14.53-.036.687.23l.015.028c.006.01.012.02.016.03v.001l.001.001.013.03.014.032v.002l9.28 24.63.01.035v.001c.003.013.004.027.006.04l.004.024.005.063v.007l.001.06c0 .01-.001.02-.002.032l-.001.034-.005.035c-.001.01-.003.022-.005.033v.004c-.037.202-.143.377-.302.47l-29.584 17.08a.46.46 0 0 1-.51-.033l-.02-.017c-.01-.005-.017-.013-.025-.02l-.022-.02-.027-.03-.027-.03c-.006-.007-.012-.015-.017-.023l-.038-.057a.54.54 0 0 1-.033-.061l-.028-.064v-.001l-9.25-24.53zm39.955 8.436l.128-.065c.428-.416.58-1.174.33-1.834l-9.25-24.53c-.223-.6-.7-.926-1.18-.89l-.036.003-.025.004a.31.31 0 0 0-.044.006c-.007.002-.014.003-.02.004l-.045.01-.077.023-.057.023-.028.013-.03.013-.056.03-29.585 17.08c-.037.02-.072.046-.106.07h-.001a1.37 1.37 0 0 0-.095.079l-.086.088c-.004.006-.008.01-.013.016-.026.03-.05.06-.072.09-.006.008-.01.017-.016.025l-.048.074-.03.055-.033.06-.03.066-.025.062-.025.07-.022.07c-.004.012-.007.024-.01.036a.69.69 0 0 0-.017.076l-.015.073c-.005.023-.008.046-.01.07l-.01.074-.005.074-.002.067v.093l.001.036.01.13.003.023.022.133v.001a1.61 1.61 0 0 0 .034.141c.015.055.03.103.05.15l9.25 24.53c.01.032.025.064.04.095l.053.11.05.085.015.024.04.06.017.024.043.055.012.016.038.042a.65.65 0 0 1 .035.039l.02.018c.02.023.045.043.068.063l.033.026c.014.012.03.023.044.034l.037.026.046.028a.27.27 0 0 0 .037.021c.015.01.032.017.047.025a.34.34 0 0 0 .039.018l.05.02.038.015.052.015.038.01c.02.005.037.008.056.01l.033.006.064.005c.01.001.02.003.03.003l.083-.001a.97.97 0 0 0 .308-.067 1.12 1.12 0 0 1 .227-.17l29.585-17.08z" class="B c"/><path d="M313.222 337.594l-.058-.004h-.003l-.036-.007-.056-.01-.038-.01-.052-.015-.038-.015-.05-.02a.34.34 0 0 1-.039-.018l-.047-.025a.27.27 0 0 1-.037-.021l-.046-.028-.037-.026-.044-.034-.033-.026-.083-.077-.04-.043-.03-.033-.01-.01-.012-.016-.043-.055-.017-.024-.04-.06-.014-.022v-.002l-.046-.078-.004-.006v-.001l-.042-.088-.01-.022v-.001l-.04-.095-9.286-24.636c-.003-.012-.007-.023-.01-.036l-.012-.044-.008-.03-.016-.074v-.002l-.014-.08c-.002-.008-.002-.016-.004-.024l-.004-.03-.003-.023v-.006l-.003-.026-.006-.066v-.032c-.001-.01-.001-.024-.001-.036l-.001-.057v-.014l.001-.022.002-.067c0-.014 0-.026.002-.04v-.01c.001-.01.003-.016.003-.025l.01-.074.004-.037c.003-.02.005-.026.007-.033l.015-.073a.22.22 0 0 1 .006-.037l.01-.04.01-.036.01-.035.012-.036.025-.07.01-.028.015-.034.03-.066.013-.028.02-.033c.01-.02.02-.037.03-.055l.016-.027.032-.047.016-.025.015-.02.037-.048a.28.28 0 0 1 .016-.02.12.12 0 0 0 .017-.02l.015-.016c.005-.006.01-.01.017-.017.01-.012.022-.023.033-.034l.016-.016.038-.034.052-.042.01-.008.02-.015.033-.022.054-.034 29.64-17.1c.01-.006.02-.01.03-.014l.027-.012v-.001l.05-.02.068-.02.062-.016.02-.004a.31.31 0 0 1 .044-.006c.014-.003.02-.003.025-.004l.036-.003-.98.058-.065.006-.07.012-.065.015-.062.02-.058.023-.057.027-.055.03-29.692 17.15-.05.04h0l-.05.043c-.007.006-.01.01-.015.015l-.034.034-.048.054-.017.02-.05.064-.05.074-.065.116-.058.127-.048.134-.025.092-.03.15-.02.148v.006l-.006.132.002.113v.01l.007.083.003.027.007.058.004.024.012.066v.012l.016.076v.002l.008.028.012.044.01.036.012.037.025.07 9.25 24.53c.01.03.02.05.03.075l.01.02c.004.008.006.015.01.023l.01.023.032.065h.001l.038.068.026.04c.006.01.012.017.016.026s.016.022.024.032.01.017.016.025l.043.055c.007.007.013.015.02.022.013.016.022.025.032.035l.037.04.018.017a.99.99 0 0 0 .069.062l.032.028c.015.01.03.022.044.033l.037.025.046.028.037.023.048.024.038.018.05.02c.013.004.026.01.038.014l.052.016.038.01.055.01.036.007c.02.003.04.004.062.006.01 0 .02.002.03.002l.092-.001.994-.06h-.01c-.027.002-.056.002-.083.001-.01 0-.02-.002-.03-.003z" class="B e"/><path d="M333.082 296.312l-.001-.003h-.005l.006.001z" fill="#34b6ef" class="B"/><path d="M313.744 334.195l.02.05 27.61-15.942-8.292-22-.006-.001-.057.033-27.55 15.907 8.274 21.944z" class="B J"/><path d="M343.99 322.074z" class="B L"/><path d="M343.993 322.072zm.087-.03l-.008.002z" class="f B"/><path d="M344.16 322.024zm-.058.014h-.002z" class="M B"/><path d="M344.18 322.02h-.001c-.007.001-.013.002-.02.004l.02-.005zm.054-.02l-.017.003z" class="a B"/><path d="M344.254 322.008h-.001zm.054-.005l-.02.002c.007-.001.013-.002.02-.002z" class="N B"/><path d="M344.326 322h-.001zm.056 0h-.022.022z" class="E B"/><path d="M344.4 321.998h-.001zm.06.002h-.02.02z" class="O B"/><path d="M344.543 322.005l-.02-.002h-.003c.008 0 .016.001.024.002zm-.07-.005h-.014.014z" class="P B"/><path d="M344.64 322.017l-.005-.001zm-.1-.012h-.008.008z" class="G B"/><path d="M344.782 322.053l-.01-.003zm-.044-.013l-.033-.01.033.01zm-.068-.017a.2.2 0 0 1-.029-.006l.03.006z" class="Q B"/><path d="M344.948 322.126zm-.15-.068h-.001zm.08.042h-.022.022z" class="H B"/><path d="M344.948 322.126l10.177 5.914-10.177-5.914z" class="B V"/><path d="M355.125 328.04z" class="B H"/><path d="M355.203 328.094l-.022-.017c.007.006.015.012.022.017zm.027.023l-.003-.005zm-.074-.057l-.02-.014c.007.004.013.01.02.014z" class="Q B"/><path d="M355.238 328.125zm.02.427c.005-.004.01-.01.012-.016h.001c-.004.006-.008.01-.013.016zm.02-.384z" class="G B"/><path d="M355.282 328.174zm.025.04zm-.02.3l.01-.017z" class="P B"/><path d="M355.327 328.257l-.007-.016zm-.015.216l.008-.018zm-.002-.255h-.001z" class="O B"/><path d="M355.34 328.3zm-.01-.04zm0 .172l.005-.02z" class="E B"/><path d="M355.344 328.348c.001-.007-.001-.015-.001-.023 0 .008.002.016.001.023zm-.004-.046zm0 .098l.002-.02z" class="N B"/><path d="M355.27 328.536h-.001zm.018-.022v-.001.001zm.012-.018v.001c.005-.008.01-.016.013-.024-.003.007-.008.015-.013.023zm.02-.042v.002l.01-.024c-.002.007-.006.015-.01.022zm.023-.084h0c0-.007.002-.015.002-.023l-.001-.001-.001.023zm-.008.043v.001l.006-.024c-.001.008-.004.015-.006.023z" class="R B"/><g class="g B"><path d="M338 339.62c.016-.012.033-.023.05-.032-.018.01-.035.02-.05.032zm9.617-5.442h.003l-.036.004h.003l.03-.004zm.225-.002l-.045-.002h.002l.043.002zm-.294.012c-.01.001-.023.003-.035.006.013-.003.024-.005.035-.006zm.542.035h.002l-.038-.01.036.01zm-.6-.023h-.043.043zm.542.005h.001l-.04-.008.04.008zm-10.106 5.5l-.006.007zm9.484-5.488h.001l-.078.027.077-.027z"/><path d="M347.32 334.25h.002c-.035.014-.068.03-.1.048.032-.02.064-.034.097-.047zm-9.472 5.596c.001-.006.004-.013.005-.02-.001.008-.004.015-.005.02zm9.877-5.673h0zm-.038.001h.004l-.037.001h.003c.01-.001.02-.001.03-.001zm.267.016h.002l-.084-.012h.002l.08.012zm-10.08 5.576l.013-.02-.013.02zm.028-.046h0zm.037-.042zm-.082.128c.002-.007.006-.014.01-.02-.003.007-.007.014-.01.02zm10.397-5.51a.57.57 0 0 0-.066-.034l.001.001a.66.66 0 0 1 .065.033zm-10.41 5.58h0zm10.322-5.62h.001l-.058-.022.057.022zM338 339.635l-.023.018.023-.018z"/></g><path d="M347.33 334.247l-.01.003zm-.104.05z" class="L B"/><path d="M347.418 334.216l-.008.002zm-.084.028l-.001.001z" class="f B"/><path d="M347.494 334.198zm-.054.012l-.022.005c.007-.001.015-.003.022-.005z" class="M B"/><path d="M347.566 334.185zm-.05.008l-.022.005c.007-.002.015-.003.022-.005z" class="a B"/><path d="M347.638 334.177l-.02.001.02-.001zm-.05.005h-.003z" class="N B"/><path d="M347.7 334.174h-.023.023zm-.043.001h-.003z" class="E B"/><path d="M347.728 334.173h-.003zm.057.001l-.023-.001.023.001z" class="O B"/><path d="M347.8 334.174h-.014.014zm.066.004l-.024-.002.024.002z" class="P B"/><path d="M347.96 334.192l-.005-.001zm-.086-.012h-.001z" class="G B"/><path d="M348.1 334.226v-.003zm-.042-.01l-.035-.01h-.001l.036.01zm-.058-.017l-.03-.006.03.006z" class="Q B"/><path d="M348.26 334.297zm-.06-.035v-.001c-.006-.003-.013-.005-.02-.008h-.001c.008.003.016.005.022.01zm-.087-.03z" class="H B"/><path d="M353.49 337.336l-5.23-3.04 5.23 3.04z" class="B V"/><path d="M317.06 337.6l26.82-15.484-26.82 15.484z" class="B h"/><path d="M353.498 337.34z" class="B H"/><path d="M353.546 337.374l-.028-.02c-.007-.004-.013-.01-.02-.013l.048.033zm.044.036l-.027-.023c.007.005.017.014.027.023z" class="Q B"/><path d="M353.595 337.415zm.04.045l-.017-.02.017.02z" class="G B"/><path d="M353.637 337.46h-.001.001zm.03.045v-.001l-.016-.025.016.026z" class="P B"/><path d="M353.686 337.55v-.003l-.01-.02.01.024zm-.016-.04l-.004-.006z" class="O B"/><path d="M353.697 337.6h0zm-.007-.03l-.003-.014v.003zm.007.117c-.002.014-.006.03-.01.042.003-.008.004-.015.006-.02l.004-.02z" class="E B"/><path d="M353.7 337.624c.001.012 0 .026-.002.04l.003-.03zm0-.024l-.003-.02v.005zm-.003.08h0z" class="N B"/><path d="M353.702 337.635v.001-.001z" class="B a"/><path d="M317.06 337.6z" class="B L"/><path d="M353.693 337.698c.002-.007.004-.015.005-.023l-.005.023zm-.007.022h0zm.016-.086c0 .01-.002.017-.002.025 0-.008.002-.015.002-.023v-.002zm-.214 1.3l.217-.125-.217.125z" class="R B"/><path d="M338.06 339.587l9.162-5.3-9.162 5.3z" class="B h"/><g class="L B"><path d="M337.898 339.727c-.004.006-.006.012-.01.018l-.013.02c-.003.006-.005.013-.008.02s-.007.014-.01.02c.007-.022.023-.054.045-.084zm.068-.074c-.001.002.01-.008.023-.018l-.023.018zm-.026.025l-.024.028.024-.028zm-.087.147c-.001.008-.004.015-.005.02s.002-.008.005-.02zm.207-.238c-.018.01-.035.02-.05.032a.36.36 0 0 1 .051-.032zm-.214.288c-.001.024 0 .035.001.046-.002-.015-.002-.03-.001-.046z"/><path d="M337.847 339.922a.28.28 0 0 0 .012.05.28.28 0 0 1-.012-.05z"/></g><path d="M343.154 344.902l.138-.08-.138.08z" class="B d"/><path d="M344.326 344.225l9.162-5.3-9.162 5.3z" class="B g"/><path d="M343.292 344.823l.16-.093-.16.093z" class="B K"/><path d="M343.452 344.73l.138-.08-.138.08z" class="B X"/><path d="M343.6 344.65l.094-.054-.094.054z" class="B W"/><path d="M343.684 344.596l.08-.047-.08.047z" class="B E"/><path d="M343.765 344.55l.075-.042-.075.042z" class="B Y"/><path d="M343.84 344.507l.072-.042-.072.042z" class="B i"/><path d="M343.912 344.465l.07-.04-.07.04z" class="B j"/><path d="M343.983 344.424l.073-.042-.073.042z" class="B M"/><path d="M344.056 344.382l.076-.044-.076.044z" class="B k"/><path d="M344.132 344.338l.09-.052-.09.052z" class="B l"/><path d="M344.22 344.286l.105-.06-.105.06z" class="B R"/><path d="M353.7 337.61v-.001l-.007-.036-.007-.025-.01-.024-.01-.02-.016-.026c-.007-.012-.01-.014-.013-.018l-.018-.02-.024-.025-.035-.03-.062-.043-5.24-3.044-.07-.035c-.006-.004-.014-.006-.022-.01l-.055-.02-.024-.01-.03-.008c-.012-.004-.024-.007-.036-.01s-.02-.005-.032-.007l-.03-.006-.086-.013-.032-.003-.043-.002h-.014c-.008 0-.016-.001-.023-.001h-.034l-.04.001-.03.001-.04.003c-.01.002-.02.003-.03.004l-.02.003-.05.008c-.007.002-.015.003-.022.005l-.054.013c-.007.002-.015.004-.022.005l-.084.028c-.047.02-.08.034-.108.052l-9.165 5.29a.34.34 0 0 0-.058.038l-.05.04-.043.047v.001a.33.33 0 0 0-.055.101c-.005.023-.007.036-.008.05l-.001.01c-.001.015-.001.03.001.046v.001a.28.28 0 0 0 .012.05c.03-.08.095-.154.202-.215l9.162-5.29c.287-.166.75-.166 1.036 0l5.23 3.04c.105.06.17.135.197.214h0 .001c.004-.013.008-.028.01-.042l.002-.013c.002-.014.003-.028.002-.04z" class="B m"/><path d="M353.49 337.506l-5.23-3.04c-.285-.166-.75-.166-1.036 0l-9.162 5.29c-.107.06-.173.136-.202.215.028.08.093.154.2.214l5.23 3.04a1.15 1.15 0 0 0 1.036 0l9.162-5.3c.107-.06.174-.137.2-.216-.027-.08-.092-.153-.197-.214z" fill="#bbddf8" class="B"/><path d="M327.304 344.178c-.023-.01-.043-.02-.064-.032.02.012.04.023.064.032zm.08.022l-.054-.02.054.02z" class="K B"/><path d="M327.44 344.227l-.03-.01c.01.004.02.006.03.01zm.07.017l-.03-.006.03.006z" class="X B"/><path d="M327.63 344.263l-.083-.01.083.01z" class="B W"/><path d="M327.708 344.27c-.015 0-.03-.002-.044-.003l.044.003z" class="B E"/><path d="M327.782 344.27c-.013.001-.024.001-.036 0 .012.001.023.001.036 0z" class="B Y"/><path d="M327.854 344.268l-.033.001.033-.001z" class="B i"/><path d="M327.928 344.26l-.034.004.034-.004z" class="B j"/><path d="M328 344.25c-.012.003-.023.005-.036.007l.036-.007z" class="B M"/><path d="M328.08 344.23l-.044.01c.016-.003.03-.007.044-.01z" class="B k"/><path d="M328.187 344.197c-.025.01-.052.02-.08.027l.08-.027z" class="B l"/><path d="M328.3 344.143a.8.8 0 0 1-.102.049.8.8 0 0 0 .102-.049z" class="B R"/><path d="M365.01 331.917v.013l-.006.066c-.001.008-.003.015-.005.023l-.004.025c-.002.007-.006.014-.008.022l-.014.042c-.002.007-.003.013-.006.02l-.01.02-.02.04-.025.04-.028.04-.013.02c-.007.008-.015.014-.02.022l-.027.03c-.014.015-.03.03-.045.043l-.03.028-.058.045c-.01.008-.018.014-.028.022-.03.022-.064.042-.1.063l-29.696 17.138c-.21.1-.457.162-.712.187l-.07.006-.124.006h-.023c-.096.001-.192-.003-.288-.013-.007-.001-.016-.001-.024-.002a2.36 2.36 0 0 1-.444-.091l-.11-.038c-.085-.032-.166-.07-.24-.113L313.73 338.51c-.008-.005-.016-.012-.024-.018l-.02-.018-.02-.015-.02-.02-.035-.034-.023-.027c-.01-.01-.02-.02-.027-.03l-.024-.032-.007-.01-.027-.044-.015-.027-.016-.032-.01-.024-.007-.02-.007-.022c-.003-.007-.005-.013-.007-.02s-.003-.015-.005-.022l-.003-.02-.004-.023-.003-.02-.001-.023c-.001-.008-.001-.017-.001-.027l.005 1.77.003.036c0 .007.001.013.002.02l.003.023.004.02c.002.007.003.015.006.022s.003.013.006.02l.007.022c.004.013.006.016.008.02l.01.023c.002.006.005.012.01.02s.008.015.012.023l.01.018a.38.38 0 0 1 .016.027l.033.045.008.012c.013.017.027.032.04.047l.046.046.017.016c.007.005.014.012.02.018l.02.018c.008.007.017.012.024.018l.023.018.05.034c.008.006.018.012.027.018l.035.02 18.967 11.022a1.09 1.09 0 0 0 .102.053l.028.014.096.04.106.038.095.027.06.016.084.018.05.01.038.006.106.016.03.003.06.006.103.006.024.001c.014.001.028 0 .04 0l.083.001h.032c.012 0 .025-.002.038-.002l.077-.003h.034l.036-.004.075-.01c.012-.002.025-.002.036-.004l.033-.006.08-.014.038-.006.025-.006.094-.024.04-.01.022-.006.032-.01.092-.03.026-.01.08-.034.04-.017.11-.058 29.585-17.08c.3-.173.45-.4.45-.626l-.006-1.756z" class="B e"/><path d="M343.982 322.077l.092-.032.026-.007.047-.012.032-.006c.012-.003.026-.005.04-.007l.033-.005.038-.004.034-.003c.013 0 .026-.001.04-.002h.11l.05.004c.007 0 .014.001.02.002h.007a.88.88 0 0 1 .086.011c.01.003.02.005.028.006l.04.01.03.01.04.01.022.008.06.023.022.01.07.036 10.177 5.914.03.02.027.018.02.016.024.02c.023.022.034.034.043.046l.03.042.02.04.008.02.006.022.005.02.003.023c0 .008.002.016.001.023l.001.001c0 .008-.002.016-.003.024l-.007.042-.015.04a.27.27 0 0 1-.021.041l-.01.017-.02.022c-.003.006-.007.012-.012.016a.54.54 0 0 1-.136.107l-26.82 15.484a.8.8 0 0 1-.102.049.86.86 0 0 1-.092.032l-.072.018a.34.34 0 0 1-.034.007c-.012.003-.023.005-.036.007l-.037.004-.034.004-.04.004-.033.001c-.012.001-.026.001-.04.001s-.024.001-.036 0-.025 0-.038-.001-.03-.002-.044-.003l-.033-.003-.083-.01-.04-.01-.03-.006a.42.42 0 0 1-.038-.011l-.03-.01c-.01-.002-.017-.005-.026-.008l-.054-.02-.025-.01c-.023-.01-.043-.02-.064-.032l-10.183-5.918c-.276-.16-.292-.413-.05-.585l.052-.033 26.82-15.484c.032-.02.066-.035.102-.05zm9.718 15.582v.012c-.002.012-.004.02-.006.027l-.007.02h0c-.027.08-.094.155-.2.216l-9.162 5.3a1.15 1.15 0 0 1-1.036 0l-5.23-3.04c-.106-.06-.17-.135-.2-.214a.28.28 0 0 1-.012-.05v-.001l-.002-.034.002-.022c.002-.025.005-.032.006-.04.007-.026.01-.033.014-.04s.005-.013.008-.02l.013-.02c.004-.006.006-.012.01-.018l.018-.02.013-.017.024-.023.036-.03.02-.016c.016-.012.033-.023.05-.032l9.162-5.3c.03-.018.064-.034.1-.048l.09-.03.025-.006.046-.012.03-.006c.012-.003.025-.005.038-.007l.033-.005.036-.004.034-.003c.013-.001.025-.001.037-.001h.02l.056-.001.03.001a.43.43 0 0 1 .05.003l.025.002.084.012c.012.002.02.004.027.006.014.002.028.005.04.008l.03.008.038.01.02.008.058.022.02.008c.025.01.048.023.07.036l5.23 3.04.03.018.025.018.017.012c.01.01.02.016.027.022l.02.02.023.025.007.01.02.03c.015.024.018.032.02.04l.007.018.007.025.004.017c.002.006.002.013.003.02l.002.023v.002c0 .008-.002.015-.002.023zm-40.25.484l.033.082.05.082c.022.032.038.052.057.073l.078.08.1.07.108.07 18.967 11.023c.074.043.155.08.24.113l.11.038a2.36 2.36 0 0 0 .444.091l.024.002c.096.01.192.014.288.013.008-.001.015-.001.023-.001l.124-.006.07-.006c.255-.025.5-.086.712-.187l.112-.057 29.77-17.21a.41.41 0 0 0 .03-.028l.045-.043.027-.03.033-.042c.01-.013.02-.026.028-.04l.025-.04.02-.04.017-.04c.006-.014.01-.028.014-.042s.01-.03.012-.047l.005-.023.006-.066v-.01c.001-.225-.146-.45-.44-.62l-18.965-11.02c-.55-.32-1.42-.342-2.02-.065l-.128.065-29.585 17.08a1.12 1.12 0 0 0-.227.17c-.17.16-.242.348-.214.53a.55.55 0 0 0 .019.085z" class="B c"/><path d="M355.343 328.325l-.003-.023v-.002l-.01-.04-.01-.02-.01-.023-.01-.017-.018-.027-.044-.05c-.02-.02-.027-.025-.035-.03l-.022-.017-.025-.017-.02-.014-10.187-5.92a.68.68 0 0 0-.071-.036l-.023-.01c-.018-.008-.038-.015-.057-.022l-.024-.008-.035-.01c-.01-.004-.022-.007-.034-.01l-.035-.008-.03-.006-.09-.012h-.008l-.024-.002-.046-.004h-.014c-.007 0-.015 0-.023-.001h-.037l-.04.001h-.034l-.038.004-.034.003c-.007 0-.013.001-.02.002l-.054.01-.02.005-.057.014-.02.005-.088.03c-.047.02-.08.035-.113.054l-26.872 15.517c-.243.172-.227.425.05.585l10.176 5.915.07.035c.007.004.016.007.025.01l.054.02.026.008c.01.004.02.006.03.01l.038.01.03.006.04.01.083.01c.01.002.022.002.033.003l.044.003a.48.48 0 0 0 .038.001c.012.001.023.001.036 0h.04l.033-.001.04-.004.034-.004.037-.004.036-.007.034-.007a.47.47 0 0 0 .044-.011l.028-.007.08-.027.114-.054 26.82-15.484a.54.54 0 0 0 .136-.107c.005-.005.01-.01.013-.016l.018-.022v-.001c.004-.006.008-.01.01-.017l.013-.023c.004-.007.006-.012.008-.02s.008-.015.01-.022l.01-.042.003-.042c.001-.007-.001-.015-.001-.023z" class="B m"/><path d="M136.115 244.027l10.706 5.8c.027-2.42-.13-4.84-1.045-7.06-2.034-4.927-7.18-8.1-12.14-10.048-2.82-1.106-6.13-.3-8.582 1.488s-4.165 4.396-5.54 7.095c-3.15 6.188-4.783 13.024-6.173 19.828a331.18 331.18 0 0 0-4.715 30.06c11.32 6.813 25.74 7.377 37.528 1.412.257-7.19.276-14.794.317-22.36-3.938-4.378-13.706-16.543-10.356-26.217z" fill="#fff" class="B"/><path d="M146.82 249.827l-10.706-5.8c-3.35 9.674 6.418 21.84 10.356 26.217l.293-18.232.057-2.185z" fill="#eab9c1" class="B"/><path d="M188.1 274.815l9.026-.025c2.3 1.125 4.917 1.593 7.465 1.336 1.2-.12 2.557-.56 2.928-1.7.264-.807-.088-1.685-.533-2.41-2.166-3.528-6.88-5.252-10.812-3.953-1.216.402-2.336 1.052-3.53 1.515s-2.535.73-3.755.34c.082 1.537-.373 3.414-.788 4.895z" class="B D"/><path d="M145.523 241.985c7.423 7.626 20.635 23.848 20.635 23.848l24.31 2.683a7.01 7.01 0 0 1 .821 7.118l-.347.776h-21.35c-3.915 0-7.667-1.57-10.414-4.36l-21.77-22.1c-2.3-2.337-2.15-6.13.328-8.278 2.274-1.97 5.686-1.833 7.785.324z" fill="#fff" class="B"/><g class="D B"><path d="M133.46 226.992l-2.678 6.5c2.39 2.085 5.553 3.118 8.724 3.207l2.028-7.683c-2.333-.81-5.74-1.224-8.074-2.034z"/><path d="M153.78 217.368a14.05 14.05 0 0 1-14.046 14.045 14.05 14.05 0 0 1-14.045-14.045 14.05 14.05 0 0 1 14.045-14.046 14.05 14.05 0 0 1 14.046 14.046z"/></g><path d="M154.57 209.993c-1.71 4.26-5.337 7.707-9.677 9.202-1.067 2.667-3.427 4.383-6.238 4.973-3.442 1.807-9.825 2.052-9.825 2.052-3.573-3.973-5.998-9.393-5.634-14.725.145-2.118.652-4.266 1.864-6.01 1.652-2.38 4.607-3.79 7.497-3.58 3.647-3.313 9.664-4.045 13.626-1.116 1.06.784 1.97 1.76 3.03 2.545s2.344 1.4 3.658 1.264 2.593-1.183 2.604-2.502c.59 2.463.04 5.547-.905 7.897z" class="B q"/><path d="M141.11 222.475c0 2.068-1.677 3.745-3.746 3.745s-3.745-1.677-3.745-3.745 1.676-3.746 3.745-3.746 3.746 1.677 3.746 3.746z" class="B D"/><path d="M147.197 353.275c0 6.523-10.264 11.8-22.927 11.8s-22.927-5.286-22.927-11.8 10.264-11.8 22.927-11.8 22.927 5.287 22.927 11.8zm-20.81-39.67h-5.7v13.878l5.7-2.036v-11.842z" class="T B"/><path d="M120.68 327.483v19.578c0 1.576 1.278 2.855 2.855 2.855s2.854-1.28 2.854-2.855v-21.614l-5.71 2.036z" class="B b"/><path d="M85.526 260.215l2.592 40.438a13.23 13.23 0 0 0 7.01 10.845l9.796 5.187c5.626 2.98 12.13 3.862 18.347 2.485l1.07-.237-18.026-22.216-1.274-29.126c-.082-1.894-1.29-3.555-3.064-4.22l-13.76-5.153a2 2 0 0 0-2.692 1.997z" class="B C"/><path d="M113.12 265.65l2.304 38.02c.318 5.233 4.615 9.337 9.858 9.414l18.3.266 5.097.822-24.34 4.76c-8.9 1.74-17.267-4.844-17.663-13.906l-1.637-37.436c-.082-1.894-1.29-3.555-3.064-4.22l-15.396-5.03 5.813-2.414c1.036-.43 2.2-.432 3.238-.006l14.894 6.105a4.19 4.19 0 0 1 2.594 3.624z" class="B I"/><path d="M392.258 316.053l-16.274 8.238c-.88 1.657-1.742 3.393-1.774 5.263-.038 2.284 1.135 4.296 2.62 6.104 1.058 1.286 1.674 2.868 1.858 4.515 11.952-12.986 13.75-16.553 13.57-24.12z" fill="#ffab3d" class="B"/><path d="M410.24 335.08c.803-3.277 3.096-5.946 4.75-8.884 2.193-3.893 3.29-8.394 3.14-12.857-.088-2.562-.728-5.357-2.785-6.884-2.107-1.564-5-1.32-7.604-1.004l-16.607 2.01c-3.583.433-7.852 3.422-9.538 6.613-1.773 3.354-3.66 6.556-5.475 9.954l-.14.26 16.274-8.238c.178 7.567-1.62 11.134-13.57 24.12.05.43.075.867.063 1.303l-.71 23.238c13.586 4.28 30.793-.678 39.577-11.9-2.166-2.534-4.352-5.1-5.864-8.07s-2.304-6.435-1.51-9.673z" fill="#ffcc60" class="B"/><path d="M338.344 297.73l.32 6.146c.084 1.612.428 3.588 1.96 4.096.82.273 1.75-.017 2.412-.572s1.1-1.34 1.408-2.143c1.272-3.205.936-7.002-.877-9.936-.75-1.212-2.073-2.386-3.44-1.98-.82.242-1.396 1.017-1.634 1.84s-.195 1.696-.15 2.55z" class="B D"/><path d="M392.05 314.692c-.663-2.548-3.22-4.657-5.82-4.24-1.762.282-3.17 1.57-4.466 2.8l-17.342 16.464c-7.906-7.285-14.684-15.793-19.978-25.15-2.508.78-5.3 2.48-6.763 4.66 5.38 8.286 10.316 16.99 17.152 24.123 2.164 2.26 4.612 4.544 7.42 5.758 1 .755 2.384 1.033 3.686.88.02.001.037.004.055.005.22-.042.437-.078.65-.13 1.894-.462 3.5-1.66 5.068-2.834l12.743-9.585c2.105-1.582 4.24-3.197 5.794-5.324s2.464-4.878 1.802-7.426z" fill="#ffcc60" class="B"/><g class="D B"><path d="M403.712 302.962l1.337 5.082c-2.84 2.213-6.755 2.297-10.04.82l-1.456-6.204 10.16.3z"/><path d="M412.24 291.34a14.96 14.96 0 0 1-14.958 14.958 14.96 14.96 0 0 1-14.958-14.958 14.96 14.96 0 0 1 14.958-14.958 14.96 14.96 0 0 1 14.958 14.958z"/><path d="M389.852 298.896c0 2.08-1.686 3.765-3.765 3.765s-3.764-1.686-3.764-3.765 1.686-3.764 3.764-3.764 3.765 1.686 3.765 3.764z"/></g><g class="q B"><path d="M384.597 281.405a18.91 18.91 0 0 0 1.013 14.953c2.04 3.91 6.222 6.44 10.323 8.064s9.066 1.582 12.638-1.004c3.38-2.447 4.998-6.75 5.234-10.915.274-4.873-1.18-9.9-4.3-13.635s-7.972-6.1-12.85-5.893-10.396 3.837-12.05 8.43z"/><path d="M406.14 282.505c-1.39 2.164-2.1 4.692-2.603 7.214-1.104 5.545-1.26 11.486 1.004 16.667 1.603 3.67 4.633 6.843 8.27 8.358 1.693-.218 3.284-.858 4.4-2.03-3.064-1.095-4.387-4.846-4.08-8.085s1.793-6.235 2.628-9.38c.69-2.6.927-5.37.248-7.973s-2.362-5.013-4.78-6.186c-1.032-.5-2.197-.723-3.346-.7-.666.626-1.26 1.34-1.75 2.104z"/></g><path d="M404.54 306.386c-2.263-5.18-2.108-11.122-1.004-16.667.503-2.522 1.212-5.05 2.603-7.214.49-.765 1.084-1.478 1.75-2.104-1.544.045-3.06.567-4.177 1.63-3.87 3.678-4.636 9.06-4.616 14.397.01 3.424.298 6.905 1.534 10.098s3.524 6.097 6.664 7.463c1.65.718 3.645.997 5.517.756-3.638-1.515-6.668-4.687-8.27-8.358z" fill="#8c4e46" class="B"/><path d="M378.15 421c0 7.425 11.686 13.444 26.1 13.444s26.1-6.02 26.1-13.444-11.686-13.442-26.1-13.442-26.1 6.02-26.1 13.442zm28.675-42.724h-5.15v22.88l5.15-2.777v-20.104z" class="T B"/><path d="M401.676 401.157v14.3c0 1.422 1.153 2.575 2.575 2.575s2.574-1.153 2.574-2.575V398.38l-5.15 2.777z" class="B b"/><path d="M397.07 391.62c-.135-.01-.28-.01-.424-.006l.424.006z" fill="#fff" class="B"/><path d="M397.07 391.62c-.135-.01-.28-.01-.424-.006l.424.006z" fill="none" stroke="#231f20"/><g class="B"><path d="M432.543 315.686l-7.088-3.52c-.008-.005-.017-.008-.024-.013l-.014-.006v.001a2.46 2.46 0 0 0-2.374.063l-26.622 15.484c-2.465 1.434-3.84 4.192-3.508 7.024 1.315 11.202 2.56 22.528 3.197 33.783l.233 4.727c.16 3.975.276 8-.58 11.886-.4 1.77-1.018 3.514-1.877 5.115-.14.017-.268.01-.4.01-5.424.14-10.814-1.38-15.732-3.7-3.275-1.544-6.482-3.462-9.585-5.492v4.692c0 1.095.516 2.132 1.402 2.775 10.604 7.7 21.28 12.793 27.25 10.11l14.322-6.952 1.345-8.352-.034.013c4.2-2.58 8.257-5.332 11.998-8.247 2.578-2 4.1-5.082 4.242-8.347.676-15.52-.397-31.47-1.533-47.065l5.38-3.99z" class="I"/><path d="M431.532 378.603c-10.328 8.05-23.017 14.915-34.7 20.024 3.228-2.325 5.164-6.112 6.02-9.996s.74-7.912.58-11.886c-.522-12.806-1.93-25.74-3.43-38.5-.332-2.832 1.044-5.59 3.51-7.024l26.622-15.485a2.48 2.48 0 0 1 3.717 1.959c1.26 17.328 2.69 35.22 1.935 52.572-.142 3.266-1.665 6.337-4.242 8.346z" class="C"/><path d="M336.163 254.237c5.29-7.457 15.237-21.084 19.487-24.298a11.66 11.66 0 0 0-3.883 7.21 14.2 14.2 0 0 0-.097 1.146c-.45 1.068-.822 2.17-1.092 3.298-.694 2.906-.758 5.95-.238 8.892l-5.146 6.125a10.94 10.94 0 0 0-6.504 1.215l4.227 1.495 10.672 12.682-8.104 2-8.883-10.324c-2.302-2.675-2.482-6.572-.44-9.45z" class="S"/><path d="M327.555 266.795c.23 0 .45-.128.556-.35l5.93-12.27a.62.62 0 0 0-.287-.827.62.62 0 0 0-.826.288l-5.93 12.27a.62.62 0 0 0 .557.888z" class="C"/><path d="M337.917 267.362l-4.575-4.5c-.62-.6-1.566-.74-2.326-.322l-5.188 2.85a1.06 1.06 0 0 0 .825 1.939l1.573-.493-.688 2.46a1.72 1.72 0 0 0 .527 1.76l1.033.9c1.438 1.252 3.464 1.58 5.225.845l2.305-.964 1.29-4.485z" class="D"/><path d="M364.72 244.612l-6.007 25.07-20.518-3.557c-1.31 0-2.33 1.423-2.806 2.643a4.76 4.76 0 0 0 .178 3.817l19.696 7.007a8.75 8.75 0 0 0 11.17-5.29l9.45-26.362c1.212-3.38-.888-7.042-4.417-7.703-3.056-.572-6.023 1.352-6.747 4.375z" class="S"/><path d="M358.41 233.46l.2 1.55c.09.67.625 1.286 1.578 1.683 1.91.798 4.78.43 6.412-.823.817-.627 1.17-1.356 1.08-2.028l-.917-7.128c-1.924 3.096-4.918 5.523-8.352 6.745z" class="D"/><path d="M366.76 226.716l-.482-3.738c-.09-.672-.624-1.286-1.58-1.685-1.907-.797-4.78-.43-6.413.825-.816.627-1.168 1.355-1.077 2.027l1.2 9.316c3.434-1.222 6.428-3.65 8.352-6.745z" class="J"/><path d="M371.394 213.614c.996 7.732-4.465 14.807-12.197 15.802a14.12 14.12 0 0 1-15.802-12.198 14.12 14.12 0 0 1 12.199-15.801c7.73-.995 14.805 4.466 15.8 12.197z" class="D"/><path d="M369.76 219.473c-8.862.68-17.948-3.412-23.3-10.5-2.146 1.165-3.163 6-3.163 6-1.33-1.566-2.433-3.383-2.786-5.407s.052-4.228 1.344-5.826 3.526-2.465 5.5-1.892c2.607-4.497 8.33-7.28 13.452-6.388s9.502 4.793 11.39 9.637 1.382 10.467-.944 15.116l-1.482-.75z" class="C"/><path d="M373.05 218.278a3.66 3.66 0 0 1-3.161 4.094 3.66 3.66 0 0 1-4.094-3.16 3.66 3.66 0 0 1 3.16-4.095 3.66 3.66 0 0 1 4.095 3.161z" class="D"/><path d="M258.26 353.34l-.118-1.29c-.42-3.697-1.178-7.37-2.27-10.932l-9.318.716c3.537 4.275 7.493 7.994 11.705 11.505z" class="o"/><path d="M246.554 341.834l9.318-.716c-1.523-4.974-3.713-9.726-6.707-13.972-4.474-6.34-10.526-11.837-17.79-14.287-5.773-1.947-12.916.63-15.606 6.096-2.235 4.54-2.132 9.896-1.208 14.873s2.612 9.794 3.412 14.792a42.67 42.67 0 0 1-2.383 22.164c5.113 5.73 11.552 10.26 19.03 12.012 3.25.76 6.6 1.075 9.934.953 7.2-.264 12.952-6.11 13.407-13.3.36-5.692.647-12.46.297-17.11-4.212-3.51-8.168-7.23-11.705-11.505z" class="S"/><path d="M300.025 329.794c-.526.806-1.146 1.68-2.088 1.883-1.002.216-1.975-.41-2.81-1.003-.697-.496-1.443-1.058-1.66-1.887-.143-.55-.025-1.13.095-1.688.312-1.465.63-2.94 1.237-4.3s1.537-2.64 2.83-3.396c1.34-.785 3.077-.943 4.46-.234s2.288 2.336 1.987 3.86c-.16.816-.624 1.534-1.08 2.23l-2.97 4.546z" class="D"/><path d="M299.42 333.178c-1.314-3.546-5.246-6.452-9-6.927-2.796 3.687-5.632 7.42-9.264 10.288s-8.205 4.827-12.813 4.4c-4.128-.382-7.832-2.592-11.372-4.747l-5.39-3.28c-2.252-1.37-5.176-.783-6.732 1.344-.02.03-.042.058-.063.087-1.835 2.51-.996 6.07 1.77 7.49 4.586 2.355 9.16 4.876 13.76 7.025 3.59 1.676 7.374 3.392 11.328 3.138 3.682-.238 7.025-2.158 10.116-4.173 6.222-4.056 12.313-9.492 17.662-14.646z" class="S"/><g class="D"><path d="M258.58 298.934c0 9.147-7.413 16.56-16.56 16.56s-16.56-7.414-16.56-16.56 7.415-16.56 16.56-16.56 16.56 7.414 16.56 16.56z"/><path d="M230.988 308.727l-2.394 5.797c2.145 2.725 5.666 4.585 9.132 4.696 1.108-1.913 2.164-3.985 3.272-5.9-2.81-2.384-6.412-3.793-10-4.594z"/></g><path d="M242.647 319.684a11.38 11.38 0 0 1-8.566.456c-2.768-.973-5.108-3.052-6.385-5.694.53-1.058 1.685-2.048 2.213-3.105 2.803 3.414 6.427 5.616 10.83 5.953.53.728 1.38 1.662 1.907 2.4z" fill="#fff"/><path d="M256.695 294.602c-.723 4.647-4.537 8.653-9.143 9.605-.944 3.68-3.916 7.13-7.53 8.302s-7.804.372-10.73-2.052c-1.838-1.524-3.158-3.606-4.036-5.825a19.51 19.51 0 0 1 .836-15.975c2.546-4.875 7.28-8.553 12.632-9.816s11.23-.086 15.686 3.136c1.9-.636 4.083-.246 5.914.568s3.27 2.615 3.354 4.616c.07 1.663-.778 3.27-2 4.412s-3.42 2.485-4.993 3.03z" class="C"/><path d="M256.757 308.203a4.84 4.84 0 0 1-4.839 4.839 4.84 4.84 0 0 1-4.838-4.839 4.84 4.84 0 0 1 4.838-4.838 4.84 4.84 0 0 1 4.839 4.838z" class="D"/><path d="M256.925 421.3c0 7.425-11.686 13.444-26.1 13.444s-26.1-6.02-26.1-13.444 11.685-13.442 26.1-13.442 26.1 6.018 26.1 13.442zm-28.675-42.735h5.15v22.88l-5.15-2.777v-20.104z" class="T"/><path d="M233.4 401.456v14.3c0 1.423-1.152 2.575-2.574 2.575s-2.575-1.152-2.575-2.575V398.68l5.15 2.777z" class="b"/><path d="M241.197 390.544c.125-.01.258-.008.39-.005l-.39.005z" fill="#fff"/></g><path d="M241.197 390.544c.125-.01.258-.008.39-.005l-.39.005z" fill="none" stroke="#231f20"/><g class="B"><path d="M202.533 315.985l7.088-3.52c.007-.004.016-.008.024-.012l.013-.007.001.001c.71-.362 1.59-.392 2.373.063l26.622 15.484a7.16 7.16 0 0 1 3.509 7.024c-1.315 11.2-2.56 22.528-3.198 33.783l-.232 4.727c-.162 3.975-.276 8 .58 11.886a19.93 19.93 0 0 0 1.877 5.115c.14.017.268.01.4.01 5.424.14 10.814-1.38 15.732-3.7 3.275-1.544 6.482-3.462 9.585-5.493v4.694c0 1.093-.516 2.13-1.402 2.774-10.604 7.7-21.28 12.794-27.25 10.11l-14.32-6.952-1.346-8.352.034.012c-4.2-2.577-8.257-5.332-11.998-8.247-2.578-2.01-4.1-5.08-4.242-8.345-.676-15.522.397-31.47 1.534-47.065l-5.38-3.992z" class="I"/><path d="M203.543 378.903c10.328 8.05 23.018 14.914 34.7 20.023-3.228-2.325-5.164-6.112-6.02-9.997s-.74-7.91-.58-11.885c.522-12.806 1.93-25.74 3.43-38.5a7.16 7.16 0 0 0-3.509-7.025l-26.622-15.483c-1.584-.922-3.583.13-3.716 1.958-1.26 17.328-2.692 35.22-1.936 52.573.143 3.265 1.664 6.336 4.242 8.346z" class="C"/><path d="M138.54 81.135l.006 2.5-45.517 26.28-.007-2.5 45.518-26.28zm19.26-18.34l.007 2.488-64.8 37.407-.007-2.5 64.8-37.405z" class="n"/><path d="M138.545 83.624l-.006-2.49-45.518 26.28.007 2.49 45.517-26.28zm19.252-18.34l-.007-2.49L93 100.2l.007 2.5 64.79-37.406zm-.02-7.213l-.006-2.496-64.8 37.406.007 2.496 64.79-37.406zm2.02-9.206c3.532-2.04 6.4-.406 6.42 3.66l.04 14.08c.012 4.06-2.847 9-6.38 11.05l-.094 8.267-6.78-4.297-61.42 35.46c-3.54 2.043-6.4.4-6.42-3.66l-.04-14.08c-.012-4.066 2.84-9.007 6.38-11.05l68.295-39.43z" fill="#fc648b"/><path d="M157.77 55.576l.007 2.496-64.8 37.406-.007-2.496 64.8-37.406zM90.638 192.663l.008 2.487L51.5 217.752l-.007-2.488 39.146-22.6zm25.382-21.85l.007 2.487-64.55 37.267-.008-2.487 64.55-37.267z" class="n"/><path d="M90.646 195.15l-.008-2.487-39.146 22.6.007 2.488 39.147-22.602zm25.382-21.85l-.007-2.487-64.55 37.267.008 2.487 64.55-37.267zm.53-12.686c3.518-2.032 6.385-.406 6.397 3.645l.04 14.03c.01 4.043-2.837 8.977-6.356 11.008L56.9 223.8l8.58 4.944-15.12-1.17-.648.374c-3.52 2.032-6.386.398-6.398-3.645l-.04-14.03c-.012-4.05 2.837-8.977 6.356-11.008l66.934-38.644z" fill="#3aafff"/><path d="M369.986 122.97l-.007 2.3-34.162-19.724.006-2.308 34.163 19.723zm14.48 1.66l-.007 2.308-48.623-28.072.007-2.308 48.623 28.072zm.018-6.697l-.006 2.316-48.624-28.072.007-2.316 48.623 28.072z" class="n"/><path d="M369.98 125.28l.007-2.31-34.163-19.723-.006 2.308 34.162 19.724zm14.48 1.66l.007-2.308-48.623-28.072-.007 2.308 48.623 28.072zm.02-6.69l.006-2.316L335.86 89.86l-.007 2.316 48.624 28.072zm.25-7.763c3.276 1.89 5.92 6.474 5.912 10.244l-.038 13.06c-.01 3.764-2.673 5.29-5.95 3.398l-43.01-24.834-6.11 3.862.022-7.376-.604-.348c-3.276-1.89-5.928-6.484-5.917-10.248l.037-13.06c.01-3.77 2.68-5.285 5.955-3.394l49.703 28.696z" fill="#3aafff"/><path d="M415.13 240.67l-.007 2.308-25.04-14.457.006-2.308 25.042 14.457zm35.068 13.53l-.007 2.315-60.1-34.693.006-2.316 60.1 34.694zm.02-6.68l-.007 2.3-60.1-34.694.007-2.308 60.1 34.693z" class="n"/><path d="M415.123 242.978l.006-2.308-25.04-14.457-.006 2.308 25.04 14.457zm35.087 6.85l.007-2.31-60.09-34.693-.007 2.308 60.09 34.694zm-.02 6.696l.007-2.315-60.09-34.694-.006 2.316 60.1 34.693zm.627-14.303c3.276 1.89 5.927 6.485 5.916 10.25l-.036 13.06c-.01 3.77-2.68 5.284-5.956 3.393l-13.5 6.613 7.88-9.852-55.656-32.134c-3.277-1.89-5.928-6.477-5.917-10.248l.037-13.06c.01-3.764 2.68-5.285 5.955-3.394l61.267 35.372z" fill="#fc648b"/></g></svg>