<svg xmlns="http://www.w3.org/2000/svg" width="100%" height="100%" viewBox="0 0 2000 2000" fill-rule="evenodd" stroke-linejoin="round" stroke-miterlimit="2" xmlns:v="https://vecta.io/nano"><style><![CDATA[.B{fill:#f6bb96}.C{fill:#1d366b}.D{fill-opacity:.1}.E{fill:#f45b69}.F{fill:#aa5b69}.G{fill:#fff}.H{fill:#1a2d51}.I{fill-rule:nonzero}.J{fill:#3880ff}.K{fill:#e20613}.L{fill:#95caff}.M{fill:#402f6d}.N{fill:#f19d89}.O{fill:#e85b0d}.P{fill:#6185be}.Q{fill-opacity:.2}.R{fill:#f5b691}]]></style><g class="I"><path d="M1556.93 356.217H311.583c-30.622 0-55.45-11.532-55.45-25.756V118.796c0-14.224 24.826-25.755 55.45-25.755H1556.93c30.616 0 55.442 11.53 55.442 25.755V330.46c0 14.224-24.826 25.756-55.442 25.756z" class="D E"/><g fill="#f3e3e2"><path d="M936.26 1418.57l2.193-2.594c-100.217-84.918-182.92-186.467-245.8-301.813l-2.985 1.63c63.092 115.7 146.06 217.584 246.602 302.778z"/><path d="M694.364 1120.4s-2.325-44.05-21.613-31.393c-16.53 10.853 21.613 31.393 21.613 31.393zm17.202 30.542s-33.103-29.15-37.546-6.517c-3.8 19.412 37.546 6.517 37.546 6.517z"/><path d="M711.568 1150.945s7.954-43.386 25.458-28.348c15.004 12.883-25.458 28.348-25.458 28.348zm16.79 27.47s-33.1-29.162-37.545-6.517c-3.8 19.4 37.545 6.517 37.545 6.517z"/><path d="M728.36 1178.428s7.954-43.386 25.458-28.36c15.004 12.896-25.458 28.36-25.458 28.36zm18.168 27.258s-33.103-29.162-37.546-6.517c-3.8 19.412 37.546 6.517 37.546 6.517z"/><path d="M746.53 1205.698s7.955-43.386 25.46-28.348c15.002 12.883-25.46 28.348-25.46 28.348zm18.245 26.105s-33.1-29.15-37.545-6.517c-3.8 19.412 37.545 6.517 37.545 6.517z"/><path d="M764.777 1231.815s7.954-43.386 25.458-28.348c15.004 12.883-25.458 28.348-25.458 28.348zm20.9 26.857s-33.103-29.162-37.546-6.517c-3.8 19.4 37.546 6.517 37.546 6.517z"/><path d="M785.677 1258.684s7.955-43.386 25.46-28.36c15.004 12.883-25.46 28.36-25.46 28.36zm21.455 27.884s-33.103-29.15-37.546-6.504c-3.8 19.4 37.546 6.504 37.546 6.504z"/><path d="M807.134 1286.58s7.955-43.386 25.46-28.348c15.004 12.883-25.46 28.348-25.46 28.348zm21.126 24.2s-33.103-29.15-37.546-6.517c-3.8 19.412 37.546 6.517 37.546 6.517z"/><path d="M828.262 1310.793s7.955-43.386 25.46-28.348c15.004 12.883-25.46 28.348-25.46 28.348zm23.704 26.43s-33.1-29.15-37.546-6.517c-3.8 19.412 37.546 6.517 37.546 6.517z"/><path d="M851.97 1337.236s7.954-43.386 25.46-28.348c15.002 12.883-25.46 28.348-25.46 28.348z"/></g><g class="J D"><path d="M1082.923 1679.904c45.078-7.557 90.332-2.97 134.358 11.09-28.01 52.96-67.022 100.07-113.855 137.453-17.545 13.998-37.045 26.744-57.636 36.18 2.594-7.256 5-14.562 7.306-21.844 16.693-52.798 29.802-107.777 29.827-162.88z"/><path d="M926.34 1744.62c43.556-27.558 90.777-50.054 140.994-61.646 5.2-1.203 10.39-2.193 15.6-3.07-.025 55.104-13.134 110.083-29.827 162.88-2.306 7.28-4.712 14.587-7.306 21.844-28.95 13.284-60.08 20-91.11 14.16-28.907-27.496-56.07-56.245-80.675-87.65 12.747-19.776 32.445-33.937 52.333-46.52z"/></g><g class="G"><path d="M1042.47 1790.363c.464.263 1.04.326 1.567.088 52.497-23.197 102.513-52.272 148.67-86.384a1.7 1.7 0 0 0 .363-2.369c-.564-.764-1.63-.915-2.38-.363-45.956 33.962-95.76 62.912-148.03 86.008a1.7 1.7 0 0 0-.865 2.243c.15.338.388.602.677.777z"/><path d="M1144.38 1735.133l30.566 7.394a1.702 1.702 0 0 0 .802-3.309l-27.546-6.667 6-40.504c.138-.927-.514-1.78-1.44-1.93-.927-.138-1.792.514-1.93 1.44l-6.442 43.574zm-41.08 22.447l43.3 16.994c.877.338 1.867-.088 2.206-.965.35-.877-.063-1.867-.965-2.206l-40.604-15.928 13.547-62.56c.2-.915-.388-1.83-1.303-2.03a1.71 1.71 0 0 0-2.018 1.303l-14.16 65.393zm-35.365 18.546l49.402 29.426a1.7 1.7 0 0 0 2.331-.602 1.71 1.71 0 0 0-.589-2.331l-47.3-28.172 17.457-81.522a1.7 1.7 0 0 0-1.303-2.018c-.915-.188-1.83.388-2.018 1.303l-17.97 83.916z"/></g><path d="M957.6 1862.373c16.292-8.096 28.862-22.007 40.228-36.193 24.9-31.092 46.23-65.43 59.465-103.002 13.22-37.572 14.537-76.785 6.717-115.848-43.086 16.956-82.625 42.885-115.346 75.632-29.52 29.538-54.564 68.288-51.448 109.92 18.638 24.563 38.377 47.898 60.384 69.49z" class="D J"/><g class="G"><path d="M972.7 1733.09a1.36 1.36 0 0 1 .063-1.203 605.64 605.64 0 0 1 79.116-106.762 1.31 1.31 0 1 1 1.93 1.78c-30.04 32.383-56.533 68.15-78.765 106.31-.376.627-1.178.84-1.805.464-.238-.138-.426-.35-.54-.59z"/><path d="M1023.872 1659.564l-3.058-24.112a1.31 1.31 0 0 1 1.128-1.466c.727-.088 1.4.426 1.48 1.14l2.757 21.73 31.62-1.115c.727-.025 1.328.54 1.353 1.266s-.54 1.328-1.266 1.353l-34.012 1.203zm-20.78 29.636l-9.324-34.714c-.188-.702.226-1.416.927-1.604s1.43.213 1.604.927l8.747 32.546 49.214-5.025a1.311 1.311 0 1 1 .276 2.607l-51.445 5.264zm-17.27 25.57l-18.36-40.48a1.3 1.3 0 0 1 .652-1.73 1.31 1.31 0 0 1 1.742.652l17.57 38.75 64.115-6.404a1.32 1.32 0 0 1 1.441 1.178 1.32 1.32 0 0 1-1.178 1.43l-65.982 6.604z"/></g><g class="J D"><path d="M798.782 1491.207c-61.57-50.304-104.512-120.848-120.92-198.648l3.345-.702c16.247 77.035 58.77 146.9 119.736 196.705l-2.162 2.644z"/><path d="M652.266 1405.612c25.947-11.943 58.66-7.37 80.335 11.24-12.214 9.575-27.68 15.665-43.13 14.212s-28.924-12.332-37.204-25.453zm46.336-51.832c-5.022-28.122 7.643-58.626 31.102-74.917 6.2 14.237 8.194 30.73 2.896 45.316s-19.2 24.9-34 29.6z"/><path d="M618.9 1342.236c25.947-11.943 58.66-7.37 80.335 11.23-12.214 9.575-27.68 15.665-43.13 14.212s-28.924-12.32-37.204-25.44zm113.087 74.93c-5.022-28.122 7.643-58.626 31.102-74.917 6.2 14.224 8.194 30.73 2.896 45.316s-19.212 24.9-34 29.6z"/></g><path d="M781.766 1475.792c-5.022-28.122 7.643-58.626 31.102-74.917 6.2 14.224 8.192 30.73 2.896 45.316s-19.212 24.89-34 29.6z" fill="#edeaf5"/><g class="J D"><path d="M702.055 1464.237c25.947-11.93 58.66-7.356 80.335 11.24-12.214 9.575-27.68 15.665-43.13 14.212s-28.924-12.32-37.204-25.453zM679 1294.188c-10.44-9.625-34.92-38.36-2.516-78.802 14.87 11.417 22.854 29.864 21.6 48.575-.754 11.166-9.586 24.287-19.073 30.228zm125.775 339.598c-11.263-22.57-25.947-47.823-50.813-52.096-10.632-1.83-21.47.652-32.237 1.303-30.622 1.88-61.795-12.03-80.833-36.093-14.3-18.07-25.38-43.524-48.218-46.494-11.73-1.53-23.697 3.8-35.302 1.516-12.627-2.506-21.666-13.26-29.983-23.084-14.873-17.57-31.73-34.877-53.565-42.158-21.832-7.294-49.713-1.24-60.588 19.05-7.26 13.547-5.505 30.616 1.496 44.3s18.615 24.438 30.906 33.674c8.82 6.617 18.372 12.883 24.197 22.245 14.292 22.972 1.03 55.054 13.6 79.003 17.116 32.596 67.325 28.285 93.876 53.788 14.042 13.497 20.9 34.927 38.615 43 20.336 9.286 44.246-3.822 66.274-.038 10.08 1.73 19.015 6.868 27.72 12.432 1.288-1.253 2.622-2.444 3.984-3.584 5.18-4.3 10.815-8.108 16.956-10.878 6-2.694 12.4-4.386 18.882-5.44 23.538-3.847 48.094.6 69.595 10.903 11.913 5.715 22.87 13.22 32.814 21.93 6.198-46.883-7.826-97.4-47.387-123.292z"/><path d="M749.752 1724.243c-6.483 1.053-12.892 2.745-18.882 5.44-6.14 2.77-11.775 6.58-16.956 10.878-1.362 1.14-2.696 2.33-3.984 3.584l10.38 6.667c39.528 24.826 93.756 34.84 131.696 7.645.064-.45.095-.915.155-1.38-9.944-8.7-20.9-16.217-32.814-21.93-21.5-10.314-46.057-14.75-69.595-10.903z"/><path d="M878.332 1782.154c-.806 22.984-3.21 46.332-12.208 67.498-8.998 21.154-25.444 40.078-47.218 47.485-21.278 7.23-45.068 2.72-65.414-6.83-9.778-4.587-20.245-10.464-30.715-7.82-12.06 3.045-18.81 16.167-29.986 21.63-28.82 14.1-60.032-29.263-90.698-19.838-8.303 2.544-14.938 8.685-22.468 13.02-17.076 9.813-39.45 9.637-56.362-.464-18.773-11.204-30.428-33.022-50.905-40.667-9.6-3.597-20.13-3.61-30.224-5.44-31.144-5.64-58.043-30.265-66.41-60.78-3.777-13.785-2.565-31.305 9.67-38.687 7.67-4.637 17.362-3.797 26.184-2.23a201.31 201.31 0 0 1 78.904 32.546c5.472 3.797 10.986 7.958 17.51 9.286 18.112 3.697 32.123-14.863 48.467-23.498 23.86-12.595 53.75-3.083 75.91 12.307 11.74 8.146 23.96 18.385 38.213 17.294 19.638-1.49 30.432-22.683 44.813-36.143 20.375-19.06 53.44-22.91 77.65-9.036 32.654 18.71 72.124 2.87 106.865 17.357.962.4 2.342.664 2.815-.263s-25.204 12.62-24.39 13.272z"/></g><g class="G"><path d="M799.366 1704.768a1.2 1.2 0 0 1-.361-.05c-129.816-28.16-251.2-104.318-333.03-208.962-.578-.74-.446-1.805.292-2.38s1.808-.45 2.387.288c81.347 104.03 202.018 179.737 331.07 207.746.92.188 1.5 1.1 1.3 2.018a1.71 1.71 0 0 1-1.659 1.341z"/><path d="M522.53 1556.362l-2.065-.125a419.7 419.7 0 0 1-42.994-5.063 1.69 1.69 0 0 1-1.39-1.955c.156-.927 1.034-1.54 1.96-1.4a415.73 415.73 0 0 0 40.577 4.875l-7.593-54.252a1.7 1.7 0 0 1 1.464-1.905c.92-.138 1.785.54 1.906 1.466l8.135 58.35zm-17.8 58.575a1.7 1.7 0 0 1-1.686-1.504 1.69 1.69 0 0 1 1.496-1.88l74.75-8.484-9.548-78.802a1.7 1.7 0 0 1 1.484-1.892 1.69 1.69 0 0 1 1.894 1.479l9.958 82.2-78.155 8.86c-.065.013-.13.013-.193.013zm76.454 52.323c-.72 0-1.387-.45-1.618-1.178a1.71 1.71 0 0 1 1.1-2.143l62.53-19.976-8.964-75.118c-.112-.927.555-1.767 1.488-1.88a1.69 1.69 0 0 1 1.89 1.48l9.296 77.9-65.203 20.84a1.86 1.86 0 0 1-.518.075zm76.48 41.28a1.7 1.7 0 0 1-1.53-.952 1.71 1.71 0 0 1 .787-2.281l57.7-28.035-10-78.163c-.12-.94.54-1.792 1.47-1.905.94-.1 1.785.54 1.902 1.466l10.32 80.595-59.908 29.1c-.238.125-.5.175-.74.175zm-35.485 126.224c-58.8 0-117.55-10.74-172.293-32.42-.873-.338-1.3-1.328-.955-2.206a1.69 1.69 0 0 1 2.206-.952c123.514 48.926 267.717 41.732 385.746-19.237.832-.426 1.86-.1 2.3.74a1.69 1.69 0 0 1-.731 2.281c-66.577 34.388-141.44 51.796-216.264 51.796z"/></g><path d="M446.996 1834.74a1.7 1.7 0 0 1-1.516-.927c-.426-.84-.094-1.855.74-2.28l37.39-19.1-14.168-23.91a1.69 1.69 0 0 1 .597-2.318c.812-.49 1.852-.213 2.328.59l16.014 27.02-40.613 20.74a1.71 1.71 0 0 1-.771.188z" class="D J"/><path d="M501.547 1860.418c-.467 0-.935-.2-1.272-.576-.623-.702-.56-1.78.143-2.394l36.602-32.5L519 1798.37c-.528-.777-.325-1.83.452-2.356.777-.514 1.833-.326 2.36.45L541.5 1825.5l-38.834 34.476a1.7 1.7 0 0 1-1.128.439zm59.27 20.202c-.43 0-.86-.163-1.192-.5-.668-.664-.677-1.742-.02-2.406l44.534-45.24-27.97-50.2c-.46-.827-.163-1.855.657-2.318.8-.45 1.854-.163 2.3.664l29.2 52.422-46.32 47.046a1.7 1.7 0 0 1-1.212.514zm70.25-8.422a1.69 1.69 0 0 1-.931-.276c-.786-.514-1.004-1.58-.5-2.356l24.76-37.697-27.606-37.133c-.56-.752-.402-1.817.35-2.38a1.7 1.7 0 0 1 2.379.351l29.023 39.038-26.064 39.7c-.326.5-.868.764-1.42.764zm56.027 6.066a1.74 1.74 0 0 1-.815-.213 1.7 1.7 0 0 1-.674-2.306l28.296-51.633-25.974-25.478a1.69 1.69 0 0 1-.023-2.394c.653-.677 1.733-.677 2.402-.025l27.814 27.27-29.535 53.888c-.308.564-.9.9-1.493.9zm70.046-8.422a1.6 1.6 0 0 1-.534-.088 1.69 1.69 0 0 1-1.08-2.143l19.76-59.74-38.7-29.64c-.748-.564-.9-1.642-.317-2.38s1.64-.9 2.38-.326l40.632 31.117-20.52 62.034a1.7 1.7 0 0 1-1.613 1.165z" class="G"/><path d="M1019.084 1367.777c7.582-12.432 17.27-26.23 31.782-27.47 6.203-.526 12.32 1.43 18.472 2.33 17.52 2.594 36.13-3.885 48.262-16.793 9.11-9.687 16.73-23.786 30.015-24.375 6.818-.3 13.435 3.36 20.227 2.607 7.38-.827 13.11-6.567 18.372-11.805 9.412-9.374 19.964-18.498 32.872-21.618 12.92-3.12 28.65 1.73 33.912 13.923 3.51 8.146 1.667 17.883-3.033 25.415-4.7 7.52-11.906 13.134-19.425 17.846-5.4 3.37-11.204 6.504-15 11.605-9.35 12.507-3.296 31.606-11.705 44.765-11.442 17.91-40.103 12.97-56.633 26.33-8.735 7.068-13.735 19.06-24.312 22.846-12.156 4.336-25.265-4.374-38.1-3.27-5.9.5-11.28 3.008-16.555 5.8-.677-.8-1.39-1.54-2.118-2.256-2.77-2.732-5.815-5.2-9.224-7.093-3.31-1.842-6.905-3.12-10.6-4.048-13.347-3.37-27.684-2.03-40.554 2.845-7.13 2.707-13.798 6.492-19.95 11.016-1.266-27.27 9.274-55.63 33.298-68.59z" class="D J"/><path d="M1046.292 1422.505c3.684.927 7.28 2.206 10.6 4.048 3.41 1.892 6.454 4.36 9.224 7.093.727.714 1.44 1.466 2.118 2.256l-6.304 3.32c-23.95 12.344-55.618 15.44-76.108-2.055l-.025-.802c6.153-4.524 12.82-8.31 19.95-11.016 12.87-4.875 27.207-6.216 40.554-2.845z" fill="#dad0e5"/><path d="M969.507 1449.5c-.664 13.26-.426 26.806 3.7 39.414s12.67 24.3 24.826 29.626c11.88 5.2 25.79 3.772 37.96-.714 5.84-2.156 12.156-5.025 18.046-2.995 6.78 2.344 10.026 10.226 16.18 13.91 15.89 9.524 35.967-13.886 53.137-6.955 4.65 1.867 8.17 5.727 12.282 8.585 9.336 6.48 22.22 7.482 32.446 2.506 11.342-5.527 19.112-17.507 31.268-20.904 5.702-1.592 11.755-1.078 17.645-1.642 18.184-1.717 34.865-14.55 41.18-31.694 2.845-7.745 3.008-17.883-3.672-22.72-4.186-3.045-9.8-3.045-14.95-2.57-16.48 1.516-32.61 6.617-46.97 14.85-3.334 1.905-6.705 4.035-10.527 4.474-10.6 1.24-17.746-10.126-26.72-15.89-13.11-8.41-30.767-4.41-44.264 3.36-7.143 4.11-14.675 9.4-22.82 8.07-11.216-1.817-16.392-14.537-24-22.984-10.778-11.968-29.614-15.803-44.214-9.01-19.7 9.16-41.62-1.88-62.3 4.75-.576.175-1.38.263-1.604-.288-.226-.564 13.873 8.484 13.372 8.823z" class="D J"/><g class="G"><path d="M1018.72 1408.87c.063 0 .138 0 .2-.013 76.045-9.825 149.597-47.672 201.78-103.842.376-.4.35-1.015-.05-1.39-.388-.363-1.015-.338-1.39.05-51.883 55.843-124.996 93.465-200.6 103.24a.97.97 0 0 0-.84 1.103c.063.464.44.802.9.852z"/><path d="M1185.2 1337.098l1.2.025c8.296.163 16.705-.1 24.977-.802.54-.038.94-.514.9-1.053s-.514-.94-1.053-.902a242.75 242.75 0 0 1-23.573.815l7.018-30.83c.125-.526-.213-1.053-.74-1.165-.526-.125-1.053.226-1.178.752l-7.28 31.995-.25 1.165zm7.37 34.552a.97.97 0 0 0 1.04-.777c.113-.526-.238-1.053-.764-1.153l-42.572-8.547 9.35-44.853c.113-.526-.226-1.053-.752-1.165a.99.99 0 0 0-1.165.764l-9.763 46.795 44.514 8.923c.038.013.075.013.113.013zm-46.544 26.355c.426.025.827-.2 1-.602.213-.5-.025-1.078-.526-1.3l-34.977-14.562 8.835-42.747c.113-.54-.226-1.053-.764-1.165-.526-.113-1.04.238-1.153.764l-9.174 44.34 36.48 15.2c.1.038.2.063.288.075zm-46.006 19.975a.96.96 0 0 0 .927-.476.98.98 0 0 0-.338-1.341l-31.82-18.95 9.6-44.464a.98.98 0 0 0-.752-1.165.97.97 0 0 0-1.165.752l-9.888 45.843 33.022 19.676a.99.99 0 0 0 .414.125zm14.224 74.342c33.812 2.882 68.125-.414 100.67-10.2.526-.163.815-.714.664-1.228-.163-.514-.702-.815-1.228-.652-73.426 22.07-156.013 10.865-220.905-30a.982.982 0 1 0-1.04 1.667c36.607 23.034 78.802 36.72 121.838 40.4z"/><path d="M1215 1500.894c.35.038.714-.138.915-.45a.99.99 0 0 0-.313-1.353l-20.565-12.82 9.3-13.046a1 1 0 0 0-.226-1.38c-.44-.313-1.053-.2-1.366.238l-10.54 14.75 22.345 13.923a1.12 1.12 0 0 0 .439.138zm-32.634 12.094c.263.025.54-.063.752-.263.4-.376.414-1.003.038-1.4l-19.45-20.478 11.667-14.4a.98.98 0 0 0-.15-1.38.99.99 0 0 0-1.379.138l-12.758 15.74 20.653 21.73a.99.99 0 0 0 .627.301zm-35.076 8.7c.238.025.5-.05.702-.226a.98.98 0 0 0 .138-1.38l-23.398-28.197 18.548-27.496c.3-.45.188-1.065-.263-1.366s-1.065-.188-1.366.263l-19.362 28.724 24.325 29.325a1 1 0 0 0 .677.351zm-40-8.284a1.08 1.08 0 0 0 .55-.113c.476-.263.652-.852.388-1.328l-12.382-22.896 17.695-20a1 1 0 0 0-.088-1.391c-.414-.363-1.028-.326-1.4.088l-18.598 21.03 13.033 24.1c.175.3.464.5.8.514zm-32.522.74a.9.9 0 0 0 .476-.088c.5-.213.727-.8.5-1.3l-13.735-31.08 16.18-13.372a.99.99 0 0 0 .138-1.39.99.99 0 0 0-1.379-.125l-17.332 14.324 14.337 32.433c.15.35.464.55.815.6zm-39.878-8.283a.85.85 0 0 0 .313-.025.98.98 0 0 0 .727-1.178l-8.434-35.328 23.723-15.14a.99.99 0 0 0 .3-1.353.99.99 0 0 0-1.366-.301l-24.9 15.9 8.76 36.682a.97.97 0 0 0 .865.752z"/></g></g><path d="M1390.15 756.5c-21.68-45.022-51.883-84.248-89.756-116.6-37.747-32.173-82.725-57.208-133.72-74.414-50.818-17.1-106.173-25.785-164.548-25.785-80.24 0-153.885 13.407-218.882 39.85-65.038 26.45-120.987 62.833-166.292 108.137-3.864 3.865-4.094 10.056-.528 14.196L758.1 866.363a10.44 10.44 0 0 0 7.696 3.624c3.008.046 5.814-1.14 7.838-3.305 30.233-32.308 63.7-55.53 99.46-69.012 36.143-13.604 74.633-20.5 114.385-20.5 25.78 0 49.502 3.896 70.506 11.577 20.954 7.676 38.787 17.73 52.974 29.877 14.024 12.03 25.227 26.28 33.273 42.334 7.92 15.847 11.93 31.813 11.93 47.44 0 28.135-9.825 57.147-29.187 86.222-19.45 29.175-59.628 57.786-119.407 85.044l-74.945 34.213c-28.724 13.247-54 27.86-75.103 43.412-21.758 16.04-39.742 36.92-53.45 62.034-13.5 24.74-23.718 55.066-30.402 90.17-6.606 34.677-9.954 77.787-9.954 128.154v79.793c0 5.765 4.675 10.44 10.44 10.44h232.863c5.765 0 10.44-4.675 10.44-10.44v-78.163c0-37.835 6.216-65.97 18.498-83.615 12.37-17.82 31.443-32.496 56.86-43.7l84.856-39.163a514.85 514.85 0 0 0 96.398-60.668c29.9-23.786 56.282-51.307 78.477-81.823 22.232-30.566 39.715-64.954 51.96-102.213 12.23-37.27 18.435-77.537 18.435-119.695 0-55.605-11.028-106.713-32.784-151.898zm-378.246 869.365H769.266c-5.766 0-10.44 4.675-10.44 10.44v242.636c0 5.765 4.675 10.44 10.44 10.44h242.637c5.765 0 10.44-4.675 10.44-10.44v-242.636c0-5.765-4.675-10.44-10.44-10.44z" class="C"/><g class="I"><path d="M897.167 1327.862h132.482l18.222 76.158h-132.45l-18.254-76.158zm22.3 93.077h132.488l18.222 76.133H937.725l-18.257-76.133zM941.773 1514h132.453l18.247 76.12H959.995L941.773 1514zm22.27 93.04h132.478l18.26 76.158H982.3l-18.247-76.158zm22.295 93.077h132.5l18.222 76.12h-131.275c-.376 0-.777.038-1.153.088l-18.284-76.208zm-129.44-466.5l156.082 651.6c.94 3.885 4.474 6.517 8.372 6.517.664 0 1.328-.088 1.98-.226 4.624-1.078 7.494-5.64 6.43-10.19l-21.117-88.164h132.478l22.044 92.062c.915 3.885 4.45 6.517 8.36 6.517.652 0 1.316-.088 1.98-.226 4.65-1.078 7.52-5.64 6.43-10.19l-156.114-651.587c-1.1-4.537-5.74-7.356-10.364-6.29-4.612 1.078-7.482 5.614-6.39 10.176l18.535 77.35H893.12l-19.46-81.234c-1.1-4.537-5.74-7.356-10.362-6.29-4.62 1.078-7.5 5.614-6.4 10.176z" class="E"/><path d="M861.72 976.22c-.03.8.258 1.58.688 2.256.574.84 1.407 1.516 2.297 2.105a17.83 17.83 0 0 0 2.354 1.353c1.808 2.594 4.65 4.436 7.606 5.665 3.357 1.44 6.974 2.23 10.418 3.42 1.06.363 2.18.815 3.014 1.516l17.823 31.556c4.247-5.614 10.62-9.612 17.594-11.078-5.252-7.106-10.246-14.362-14.782-21.92-3.588-6.003-6.888-12.18-11.136-17.758s-9.5-10.602-15.986-13.397c-.805-.338-1.75-.614-2.498-.163-1.262.815-.43 2.757.49 3.923l7.088 8.96c-14.78 2.594-26.778-3.547-27.323-.313-.173.94.2 1.892.803 2.594.43.514.976.902 1.55 1.278z" class="B"/><path d="M920.616 1404.02h44.943l-.576-23.648-16.467-1.44c-.175 3.045-1.73 6.003-3.9 8.21-2.67 2.732-6.166 4.512-9.725 6.003-3.53 1.466-7.205 2.682-10.59 4.487-1.234.64-2.44 1.404-3.243 2.532s-1.12 2.682-.43 3.86z" class="H"/><path d="M976.75 1124.19l70.845.05c-2.38-14.6-3.847-29.35-4.374-44.126-.338-10.515-.226-21.092.376-31.63-1.115-1.19-2.03-2.544-2.782-4.035-3.41-7.018-1.49-16.016-6.028-22.408-2.23-3.158-5.827-5.276-7.657-8.685-2.068-3.76-1.58-8.158-1.266-12.495-4.16-.338-8.36-.564-12.545-.74v.226c-2.118-.138-4.273-.138-6.404-.025-8.898.426-17.67 2.933-25.4 7.28-7.294 4.085-13.522 9.7-20.415 14.374-6.742 4.6-14.086 8.26-21.518 11.73-5.488-6.792-10.912-13.673-16.078-20.69-6.974 1.466-13.347 5.464-17.594 11.078l15.9 28.135c2.84 5.05 6.198 10.515 11.795 12.294 5.4 1.692 11.164-.59 16.365-2.82l39.226-17.006c-3.296 4.487-7.03 8.66-11.13 12.444.627 3.46 1.58 7.67 2.87 12.846 3.41 13.848-.727 38.123-4.424 54.202.088.025.175.025.226 0z" class="E"/><path d="M989.208 1044.697l-12.08 5.226c.113 2.03.426 4.36.952 7.22 4.098-3.785 7.833-7.958 11.13-12.444z" class="F"/><path d="M995.963 1404.02h44.94l-.55-22.972-16.868.05c-.602 2.256-1.892 4.374-3.56 6.04-2.67 2.732-6.178 4.512-9.7 6.003-3.56 1.466-7.23 2.682-10.6 4.487-1.24.64-2.444 1.404-3.246 2.532s-1.115 2.682-.426 3.86z" class="H"/><path d="M1023.396 961.972c-.426-2.48-2.33-4.762-4.825-5.414-2.206-.564-4.825.4-6.003 2.318a24.73 24.73 0 0 1-2.945-11.229c-.063-1.68.05-3.434-.69-4.963-.802-1.654-2.532-2.67-3.998-3.822-2.807-2.23-4.988-5.25-6.19-8.6a6.32 6.32 0 0 0-.664.627c-2.67 2.57-5.276 5.552-6.404 10.577-.564 2.532-.564 5.213-1.053 7.77-.464 2.57-1.504 5.188-3.534 6.855-1.1.877-2.532 1.667-2.694 3.02-.15 1.24.9 2.28 1.63 3.296 2.043 2.77 2.293 6.404 2.67 9.813.288 2.707.664 5.44 1.78 7.958 1.115 2.48 3.07 4.737 5.652 5.715 2.82 1.015 6.14.54 8.848 1.53.163.338.288.677.4 1.015 1.253 3.835 1.805 7.895 1.54 11.893 2.13-.113 4.286-.113 6.404.025v-.226c4.186.175 8.384.4 12.545.74.088-1 .138-1.98.175-2.933.25-9.474-3.847-18.974-10.94-25.403 2.38-.088 4.8-1.53 6.316-3.446 1.58-1.993 2.444-4.624 1.98-7.106z" class="B"/><path d="M1009.76 1228.532l.313 19.036c7.356-18.836 13.234-38.21 17.545-57.91-6.38 12.77-12.344 25.74-17.858 38.875z" class="P"/><path d="M1025.864 1000.86c-.313 4.336-.802 8.735 1.266 12.495 1.83 3.41 5.426 5.527 7.657 8.685 4.537 6.39 2.62 15.4 6.028 22.408.752 1.49 1.667 2.845 2.782 4.035 3.108 3.47 7.494 5.84 12.03 7.47.49.2.978.363 1.466.54 6.19 2.03 12.996 3.095 19.375 1.805.602-.138 1.165-.25 1.742-.426 6.918-1.892 13.146-7.156 14.638-14.036 2.33-10.828-6.968-20.79-8.21-31.782-.652-5.752.978-11.53.64-17.307-.464-7.732-4.624-15.15-11.028-19.688-5.34-3.772-12.23-5.7-16.304-10.765-5.188-6.404-7.143-13.76-8.635-21.793-2.156-11.53-9.675-20.052-20.728-24.475-8.773-3.47-33.085-4-30.503 12.858a6.32 6.32 0 0 1 .664-.627c1.203 3.36 3.384 6.38 6.19 8.6 1.466 1.153 3.196 2.168 3.998 3.822.74 1.53.627 3.283.69 4.963a24.73 24.73 0 0 0 2.945 11.229c1.178-1.917 3.797-2.882 6.003-2.318 2.494.652 4.4 2.933 4.825 5.414.464 2.48-.4 5.113-1.98 7.106-1.516 1.917-3.935 3.36-6.316 3.446 7.093 6.43 11.19 15.928 10.94 25.403-.038.952-.088 1.942-.175 2.933z" class="C"/></g><path d="M1010.074 1247.568c.952 48.863 2.82 102.69 7.47 133.53h5.94l16.868-.05 4.374-.038c-7.983-78.264 8.635-157.242 6.88-235.88-1.54-6.905-2.895-13.873-4-20.89-23.598 0-47.22-.025-70.845-.05a4020.32 4020.32 0 0 0-32.082 254.404l3.847.338 16.467 1.44a24.96 24.96 0 0 1 1.692.138c8.07-52.11 22.596-103.253 43.086-151.978 5.514-13.134 11.48-26.105 17.858-38.875-4.31 19.7-10.19 39.075-17.545 57.91z" class="L"/><g class="I"><path d="M1043.597 1048.482c-.602 10.54-.714 21.117-.376 31.63 4.048.852 8.133 1.53 12.23 2.055-.288-8.735-.226-17.47.175-26.217-4.537-1.63-8.923-3.998-12.03-7.47z" class="F"/><path d="M1055.628 1055.95c-.4 8.747-.464 17.482-.175 26.217a167.32 167.32 0 0 0 12.57 1.241c5.025.288 10.966-.025 13.8-4.136 3.07-4.46.54-10.464-2.068-15.202l-3.296-5.777c-6.38 1.29-13.184.226-19.375-1.805-.49-.175-.978-.338-1.466-.54z" class="E"/><path d="M1331.487 1447.194c-2.47-.426-4.787-1.792-6.316-3.797-2.005-2.532-2.632-5.903-2.745-9.123-.163-3.158.263-6.366.05-9.474-.9-.113-1.792-.263-2.582-.69-.627-.376-1.216-.952-1.416-1.642a1.77 1.77 0 0 1-.263-1.253c.15-1.216 1.266-2.005 1.993-3.008 1.48-2.005 1.38-4.687 1.53-7.168.263-4.374 1.48-8.697 3.584-12.545 1.316 5.326 4.637 10.226 9.224 13.284 2.105 1.416 4.587 2.632 5.7 4.95v.05c1.642-1.53 3.96-2.206 6.066-1.792 2.37.476 4.424 2.38 5.063 4.7.627 2.318-.163 5-2.005 6.58-1.43 1.216-3.484 1.692-5.276 1.266-.9 4.16-1.73 8.334-2.105 12.595-.313 4.11 0 8.334 1.316 12.282 4.85 2.005 10.126 2.582 15.44 2.582.163 2.632.526 5.276 1.216 7.858l1.103 2.582c-9.11 2.206-18.598 2.945-27.984 2.206 1.065-1.416 2.005-2.945 2.745-4.587.376-.627.64-1.316.902-1.993l-.59-14.186c-1.53.476-3.108.59-4.637.326z" class="B"/><path d="M1358.206 1519.755c5.326 4.424 10.865 8.534 16.555 12.382-1.053.74-2.168 1.43-3.22 2.105l-6.905 4.436a149.49 149.49 0 0 1-23.285-34.413c5.314 5.477 10.953 10.64 16.856 15.5zm9.964-33.46a143.77 143.77 0 0 1 2.682 11.855l-18.02-18.7c5.013 2.532 10.126 4.85 15.34 6.855z" class="H"/><path d="M1347.83 1889.53c-18.974 3.697-38.31 5.276-57.548 4.637-.9-.05-1.892-.1-2.532-.727-1.63-1.53.476-4.06 2.43-5.113 6.316-3.384 13.384-4.963 20.127-7.33a54.3 54.3 0 0 0 3.634-1.416l4.21 5.364 29.2-7.845.476 12.432z" class="M"/><path d="M1318.153 1884.943l-4.21-5.364c5.477-2.38 10.54-5.64 13.76-10.54-6.066-40.43-10.276-81.108-12.658-121.9l35.53-1.73c-1.115 43.737-4.487 88.527-3.22 131.688l-29.2 7.845z" class="B"/><path d="M1340.235 1416.728c-1.103-2.318-3.584-3.534-5.7-4.95-4.587-3.058-7.908-7.958-9.224-13.284-.263-.94-.476-1.892-.576-2.845.213-.263.426-.526.576-.8 5.426-7.056 14.5-11.28 23.347-10.702 10.226.69 19.713 7.695 23.398 17.244 2.958 7.682 2.218 16.167 1.905 24.388-.326 8.12-.063 16.705 4.26 23.56-1.48 1.955-3.684 3.27-6.003 4.11-2.532.84-5.213 1.103-7.858 1.316-1.842.113-3.735.213-5.64.213-5.314 0-10.6-.576-15.44-2.582-1.316-3.948-1.63-8.17-1.316-12.282.376-4.26 1.216-8.434 2.105-12.595 1.792.426 3.847-.05 5.276-1.266 1.842-1.58 2.632-4.26 2.005-6.58-.64-2.318-2.694-4.223-5.063-4.7-2.105-.414-4.424.263-6.066 1.792v-.05z" class="C"/><path d="M1437.785 1888.74c-5.477 1.115-11.116.902-16.705.063-1.842-.276-4.06-.952-4.424-2.795-.213-.952.2-2.005.9-2.745s1.63-1.165 2.532-1.58c3.47-1.48 7.532-2.37 10.276-4.85.576-1.742 1.053-3.534 1.53-5.326 1.266.952 2.732 1.692 4.26 2.218 5.44-10.753 9.75-22.032 12.97-33.624 6.266 5.163 11.38 6.905 11.38 15.44 0 0-14.963 23.185-22.708 33.198z" class="M"/><path d="M1321.687 1581.514c-2.845 2.218-5.376 4.85-7.482 7.795l.576-7.056c.8.263 1.692.263 2.48.163 1.48-.163 2.895-.74 4.424-.902z" fill="#e94f94"/><path d="M1399.362 1527.926l-27.508-28.724c-5.7 6.003-10.327 12.958-13.648 20.553 5.326 4.424 10.865 8.534 16.555 12.382-1.053.74-2.168 1.43-3.22 2.105l-6.905 4.436-25.666 16.492-14.537-3.27c-1.103-.263-2.43-.476-3.27.313-.526.426-.74 1.216-.526 1.905.313.84 1.216 1.316 2.005 1.68l6.066 2.958-.163.363c-1.316 1.43-3.058 2.268-4.8 3.008-1.53.313-3.058.627-4.524 1.153-.852.263-1.642.576-2.43 1.003-2.42 1.366-4.474 3.797-4.587 6.542-.1 1.68.476 3.31.426 4.95-.113 1.63-.74 3.32-.05 4.8.414.9 1.266 1.416 2.206 1.68.8.263 1.692.263 2.48.163 1.48-.163 2.895-.74 4.424-.902-2.845 2.218-5.376 4.85-7.482 7.795a18.42 18.42 0 0 0-1.153 1.642c-.426.69-.8 1.742-.163 2.206.313.263.627.263 1.003.113.363-.05.69-.313 1.003-.526l24.074-17.658v-.05l33.047-15.014c.952-.426 1.842-.902 2.795-1.328 7.005-3.32 13.96-6.692 20.34-11.066 3.058-2.055 8.434-13.384 4.21-19.7z" class="B"/><g class="C"><path d="M1333.066 1467.634c-5.477 7.432-14.274 12.495-21.33 19.024-3.17-1.053-6.28-2.268-9.387-3.584 3.42-8.108 8.17-15.653 14.024-22.295 6.48.952 12.958 1.692 19.437 2.268-.74 1.642-1.68 3.17-2.745 4.587z"/><path d="M1319.005 1562.54c-3.584-11.693-6.116-23.71-7.432-35.88-.376-3.22-.69-6.642-2.632-9.174-1.328-1.792-3.27-2.945-4.75-4.587-3.27-3.684-3.534-9.324-1.842-13.91 1.692-4.637 5.113-8.372 8.697-11.755.213-.2.414-.414.69-.576 7.056-6.53 15.853-11.592 21.33-19.024 9.387.74 18.873 0 27.984-2.206 2.845 6.792 5.226 13.748 7.118 20.866-5.213-2.005-10.327-4.324-15.34-6.855l18.02 18.71c.326.363.64.69 1.003 1.053-5.7 6.003-10.327 12.958-13.648 20.553-5.903-4.85-11.542-10.013-16.856-15.5a149.49 149.49 0 0 0 23.285 34.413l-25.666 16.492-14.537-3.27c-1.103-.263-2.43-.476-3.27.313-.526.426-.74 1.216-.526 1.905.313.84 1.216 1.316 2.005 1.68l6.066 2.958-.163.363c-1.316 1.43-3.058 2.268-4.8 3.008-1.53.313-3.058.627-4.524 1.153l-.213-.74z"/></g><path d="M1313.077 1393.092c-3.47.163-6.98.69-10.038 1.404-2.118.526-4.7 1.942-4.11 4.048.576 2.118 3.847 2.168 5.05 4 1.053 1.58.163 3.634-.677 5.326l-20.666 39.727c-1.68 3.32-3.42 6.642-4.324 10.226-.9 3.634-.9 7.595.74 10.903 2.43 4.85 7.757 7.432 12.708 9.65l10.6 4.687c3.42-8.108 8.17-15.653 14.024-22.295-4.637-.627-9.286-1.416-13.86-2.256 3.697-9.336 7.77-18.523 12.018-27.608-3.208-12.307-3.735-25.315-1.454-37.822z" class="B"/><path d="M1325.32 1394.86c-3.246-1.58-7.707-1.993-12.244-1.767-2.28 12.507-1.755 25.516 1.454 37.822l3.948-8.447a1.77 1.77 0 0 1-.263-1.253c.15-1.216 1.266-2.005 1.993-3.008 1.48-2.005 1.38-4.687 1.53-7.168.263-4.374 1.48-8.697 3.584-12.545-.263-.94-.476-1.892-.576-2.845.213-.263.426-.526.576-.8zm81.26 346.276l-35.353 2.895a593.45 593.45 0 0 0 13.384 31.13c11.24 4.186 22.696 7.782 34.288 10.828-4.9-14.475-8.597-29.488-12.32-44.853z" class="N"/><path d="M1441.156 1831.57c-10.013-14.374-16.868-29.65-22.257-45.58-11.592-3.045-23.047-6.642-34.288-10.828a600.11 600.11 0 0 0 49.903 87.45c-1.003 2.895-1.792 5.903-2.632 8.898 1.266.952 2.732 1.692 4.26 2.218 5.44-10.753 9.75-22.032 12.97-33.624-2.532-2.055-5.276-4.687-7.958-8.534z" class="B"/><path d="M1372.117 1560.222l-.1-.2c-10.903 5.163-21.98 10.113-33.047 15.014v.05l-2.845 2.093c12.344-3.42 24.814-6.416 37.384-8.885-1.466-2.243-1.567-5.34-1.39-8.07z" class="F"/><path d="M1387.293 1647.76c-1.253-7.908-1.366-16.08.326-23.874 2.055-9.963 1.153-40.53-13.284-54.44-.35-.326-.564-.752-.827-1.153-12.57 2.47-25.04 5.464-37.384 8.885l-21.23 15.565c-.313.213-.64.476-1.003.526a1273.59 1273.59 0 0 0-2.369 154.033l3.522-.163 35.53-1.73 20.653-1.38 35.353-2.895c.263 0 .54-.05.852-.1-12.23-43.474-12.908-47.535-20.14-93.277z" class="E"/><path d="M1581.13 1503.275a216.75 216.75 0 0 0 15.578 59.49l-10.54 1.216-1.353-24.5c-.138-2.707-.326-5.502-1.78-7.745-1.39-2.193-3.772-3.547-5.452-5.552-2.52-3.083-3.133-7.42-2.48-11.342.326-1.955 2.807-6.905 5.414-11.843.138.088.276.088.426.088.038.1.088.138.188.188z" class="C"/><path d="M1581.078 1503.087c0 .05 0 .138.05.188-.1-.05-.15-.088-.188-.188.038 0 .088.05.138 0z" class="K"/><path d="M1600.716 1422.555c1.404.8 1.917 2.52 2.57 4 .702 1.54 1.68 2.945 2.895 4.11.927-1.817 3.12-3.083 5.276-2.945 2.47.138 4.712 1.968 5.64 4.248.9 2.28.614 4.988-.602 7.18-.802 1.454-1.917 2.67-3.27 3.647.752 2.707 2.33 5.176 4.524 6.905.978.74 2.055 1.404 2.62 2.52.464.978.414 2.193 1.028 3.12.69 1.028 2.005 1.404 3.258 1.68l4.85 1.128c-.038.038-.088.088-.088.138-1.216 1.216-1.404 3.17-1.404 4.95.05 4.524.752 9.048 2.005 13.435-1.63 1.44-4.098 1.955-6.39 2.093-6.153.376-12.357-.55-18.096-2.745v-.05c.464-4.474.226-9.098-.652-13.535-3.735.614-7.845-.326-10.264-3.17-2.055-2.42-2.62-5.8-2.707-8.96-.05-2.895.276-5.827-.05-8.722-.9 0-1.78-.088-2.62-.414-1.165-.476-2.193-1.592-2.143-2.807 0-1.68 1.592-2.757 2.757-3.96 2.243-2.344 2.983-5.74 3.36-9.01.226-1.955.326-3.96.702-5.878.188.564.376 1.115.8 1.54 1.44 1.49 4.148.464 6.015 1.49z" class="B"/><path d="M1633.425 1849.214a291.78 291.78 0 0 1 22.959-4.85c2.005 15.44 4.3 30.604 6.818 45.304-12.695 2.38-25.716 3.31-38.637 2.707-1.078-.05-2.193-.1-3.17-.564-1.028-.426-1.917-1.266-2.055-2.33-.238-1.78 1.404-3.17 2.983-4 2.193-1.128 4.524-1.917 6.63-3.133 2.093-1.216 4.06-3.033 4.662-5.414.514-1.817.138-3.772-.188-5.64l-4-21.092c1.353-.326 2.657-.702 4-.978z" class="M"/><path d="M1514.583 1342.95c1.817 1.592 2.43 4.248 2.193 6.63-.226 2.43-1.216 4.662-2.005 6.955-.8 2.28-1.404 5.552-1.065 7.933l3.496 6.717-.138.05c-5.138 3.12-9.662 7.18-13.347 11.893l-2.845-7.043h-.05c-1.303-.94-5.464-.752-6.717-1.68-1.68-1.165-3.36-2.38-4.762-3.872-1.353-1.54-2.43-3.41-2.57-5.464-.138-1.68.326-3.446-.088-5.138-.376-1.44-1.404-2.694-1.73-4.198-.414-1.817.326-3.684 1.303-5.226 1.028-1.58 2.293-2.983 3.083-4.662.752-1.49 1.078-3.12 1.63-4.712.564-1.592 1.353-3.12 2.757-4.06 2.055-1.404 4.95-.978 7.043.426 2.055 1.39 3.496 3.584 4.712 5.74.376.69.978 1.44 1.68 1.253.476-.138.752-.652 1.028-1.078 1.353-2.005 4.574-2.005 6.39-.464z" class="B"/><path d="M1517.202 1371.186l4.474 8.26c-5.038 3.735-9.838 7.795-14.324 12.27l-.05-.05-3.584-8.534c3.684-4.712 8.21-8.773 13.347-11.893l.138-.05z" class="C"/><path d="M1582.758 1848.462c6.767-.514 13.535-.74 20.34-.652h.238l-.05 44.377c-12.08 2.005-24.45 2.607-36.67 1.73-1.54-.15-3.41-.514-3.872-1.968-.564-1.767 1.353-3.22 2.983-4.06l7.23-3.634c2.43-1.266 4.988-2.62 6.304-5.038.927-1.78 1.065-3.835 1.165-5.84.276-8.21-.138-16.467-1.165-24.626a41.08 41.08 0 0 1 3.496-.288z" class="M"/><path d="M1609.6 1721.925c-4.06 41.757-5.84 84.317-6.254 125.886h-.238c-6.805-.088-13.572.138-20.34.652l-2.243-152.53a734.87 734.87 0 0 0 31.97-.702l-2.895 26.694zm71.195-394.552c2.845 2.005 5.364 4.9 5.652 8.346.514 5.928-5.364 10.828-5.364 16.756h-.514l-.238 6.4c-5.038-3.22-11.24-4.624-17.17-3.785a53.15 53.15 0 0 0 .414-3.96c-.84-2.38-2.707-4.3-4.474-6.066-1.917-1.917-3.872-3.872-4.712-6.4s-.238-5.8 2.143-7.093c1.128-.614 2.57-.752 3.46-1.68 1.028-1.078.877-2.807.978-4.35.088-1.44.464-2.882 1.253-4.048.802-1.216 2.105-2.105 3.547-2.243 2.243-.188 4.198 1.44 6.066 2.745 2.857 1.968 6.116 3.32 8.96 5.376z" class="B"/><path d="M1680.32 1358.867c-.276 6.855-.84 13.76-1.63 20.578-4.95-4.386-11.43-7.093-18.01-7.23 1.065-5.702 1.855-11.392 2.47-17.132 5.928-.84 12.13.564 17.17 3.785z" class="C"/><path d="M1629.603 1458.197c-.05.05-.138.05-.188.1 0-.05.05-.1.088-.138.05 0 .05.038.1.038z" class="K"/><path d="M1648.965 1591.414c.188-7.695-.514-15.578-2.757-22.86-14.976.978-29.902 2.657-44.7 4.9-1.73-3.5-3.32-7.093-4.812-10.7l-10.54 1.216c-.05 0-.15 0-.188.05-1.353 42.497-10.966 66.86-11.292 131.85l5.827.05a734.87 734.87 0 0 0 31.97-.702c10.953-.55 21.97-1.353 32.884-2.47l9.75-1.078c-4.524-21.693-6.34-88.8-6.153-100.27zm7.933-169.424c1.303 3.133.978 6.905-.84 9.75-1.165 1.83-2.945 3.32-3.634 5.414-1.165 3.547 1.303 7.745-.426 11.066-1.115 2.23-3.684 3.22-5.965 4.06l-16.43 5.915c-.05 0-.05-.038-.1-.038-1.63-.376-3.208-.802-4.85-1.128-1.253-.276-2.57-.652-3.258-1.68-.614-.927-.564-2.143-1.028-3.12-.564-1.115-1.642-1.78-2.62-2.52-2.193-1.73-3.772-4.198-4.524-6.905 1.353-.978 2.47-2.193 3.27-3.647 1.216-2.193 1.5-4.9.602-7.18-.927-2.28-3.17-4.1-5.64-4.248-2.156-.138-4.35 1.128-5.276 2.945-1.216-1.165-2.193-2.57-2.895-4.1-.652-1.5-1.165-3.22-2.57-4-1.867-1.028-4.574 0-6.015-1.5-.414-.426-.602-.978-.8-1.54-.188-.514-.326-.978-.564-1.44-.84-1.592-2.757-2.43-3.684-3.973-1.078-1.817-.514-4.148.05-6.153.602-2.055 1.203-4.3.276-6.166l.238-.088c-.514-1.54-.15-3.32.652-4.712 1.028-1.83 2.707-3.183 4.336-4.436 4.436-3.496 9.424-7.143 15.076-6.905 2.882.138 5.7 1.353 8.585 1.253 3.396-.088 6.717-1.905 10.126-1.53 5.226.652 8.26 6.066 12.645 8.998 1.817 1.266 3.96 2.105 5.878 3.22 1.905 1.115 3.735 2.707 4.386 4.85.363 1.128.363 2.293.226 3.46-.188 2.143-.8 4.336-.414 6.48.55 3.647 3.735 6.216 5.176 9.612z" class="C"/><path d="M1580.94 1503.087c-.15 0-.288 0-.426-.088a.35.35 0 0 1 .1-.238c.088.138.175.238.326.326z" class="K"/><path d="M1537.028 1447.983c-9.474-10.828-19.55-26.13-27.533-37.985l-4.336 4.16c-3.083-5.84-4.098-8.36-5.414-14.425 2.43-2.795 4.95-5.502 7.607-8.02 4.487-4.474 9.286-8.534 14.324-12.27 19.976 35.742 45.63 68.263 75.732 96.022 2.33 1.49 5.464 1.817 8.02.752h.05c0-.05.05-.15.05-.188 5.74 2.193 11.943 3.12 18.096 2.745 2.293-.138 4.762-.652 6.39-2.093-1.253-4.386-1.955-8.9-2.005-13.435 0-1.78.188-3.735 1.404-4.95.05-.05.138-.05.188-.1l16.43-5.915c2.28-.84 4.85-1.83 5.965-4.06 1.73-3.32-.74-7.52.426-11.066.69-2.093 2.47-3.584 3.634-5.414 1.817-2.845 2.143-6.617.84-9.75-1.44-3.396-4.624-5.965-5.176-9.612-.376-2.143.226-4.336.414-6.48 3.647-11.016 6.53-22.307 8.547-33.687 6.58.138 13.06 2.845 18.01 7.23 1.63 1.49 3.12 3.17 4.336 4.988-.326 9.048.238 10.076-2.193 19.412l-5.827-3.27c-6.73 31.318-19.187 68.363-35.228 97.1l15.114 70.368-8.685.514c-14.976.978-29.902 2.657-44.7 4.9-1.73-3.496-3.32-7.093-4.812-10.7a216.75 216.75 0 0 1-15.578-59.49c-.05-.05-.05-.138-.05-.188-.05.05-.1 0-.138 0-.15-.088-.238-.188-.326-.326-16.517-16.28-31.03-34.852-43.587-54.778z" class="E"/><path d="M1612.484 1695.23l-2.895 26.694 4.512 28.548a365.59 365.59 0 0 0 23.937-57.072c-8.51.764-17.044 1.404-25.553 1.83z" class="N"/><path d="M1656.384 1844.364c-6.53-49.19-10.54-101.26-11.016-151.602-2.43.25-4.888.426-7.33.64a365.59 365.59 0 0 1-23.937 57.072c5.477 33.072 11.893 66.007 19.325 98.74a291.78 291.78 0 0 1 22.959-4.85z" class="B"/><path d="M612.098 1654.226c-.578 1.704-.044 3.572.222 5.376.467 3.334-.066 6.818-1.488 9.863-.023.038-.023.063-.045.113-1.955-1.755-3.887-3.56-5.488-5.652-1.71-2.256-3-4.9-3.222-7.732-.222-2.682.534-5.35 1.312-7.945 1.266-4.273 2.622-8.585 4.977-12.332 4.5-7.206 12.73-11.906 21.218-12.18 8.176-.263 16.375 3.622 21.35 10.113l.2-.163c6.3 2.958 10.776 9.45 11.31 16.38.466 6.38-2.42 12.908-7.4 16.88.023-.013.023-.038.023-.038l-.356-.05c-1.577-.727-2.377-2.48-2.82-4.148-.445-1.692-.667-3.496-1.6-4.938-.667-1.04-1.623-1.817-2.422-2.757-2.488-2.907-3.065-6.905-3.376-10.765l-.2.013c-7.443 7.72-18.486 11.755-29.15 10.74 2.666-2.33 4.888-5.176 6.532-8.31l-.91-.476c-1.755 3.61-7.376 4.198-8.665 8.008z" class="M"/><path d="M611.43 1675.48l.89 6.29-.4.088a8.01 8.01 0 0 1-4.998-3.283c-1.157-1.717-1.6-3.847-1.246-5.865.223-1.228.778-2.47 1.8-3.158.98-.664 2.422-.714 3.267.088.044.025.09.05.1.088l.578 5.752z" class="B"/><path d="M581.37 1879.956l.068 9.888c-3.245-.94-6.467-2.03-9.644-3.246a85.6 85.6 0 0 0 .267-10.139c3.044 1.253 6.155 2.43 9.31 3.496z" class="N"/><path d="M571.794 1886.598l-.843 7.33c-11.042.464-22.085.514-33.128.088-2.5-.088-5.354-.376-6.886-2.38-1.023-1.328-1.178-3.133-1.3-4.8-.222-4.085-.31-8.22.6-12.194.845-3.66 2.6-7.193 5.42-9.6 10.664 9.224 22.973 16.505 36.125 21.555z" class="C"/><path d="M572.06 1876.46a85.6 85.6 0 0 1-.267 10.139c-13.153-5.05-25.462-12.332-36.125-21.555.244-.238.5-.464.8-.664 2.466-1.805 5.42-2.644 8.487-2.82 3.1 2.356 6.465 4.424 9.82 6.4 5.533 3.233 11.3 6.028 17.286 8.5zm9.3 3.496c15.198 5.264 31.438 8.534 47.813 10.502-11.397 1.38-22.86 2.156-34.104 2.52-4.6-.777-9.154-1.83-13.64-3.133l-.068-9.888z" class="H"/><path d="M677.13 1866.195l-.223 27.095h-.49c-15.352-.188-31.372-.9-47.235-2.832-16.375-1.968-32.615-5.238-47.813-10.502-3.154-1.065-6.265-2.243-9.31-3.496-5.977-2.48-11.753-5.276-17.286-8.51-3.355-1.968-6.7-4.035-9.82-6.39-2.466-1.83-4.8-3.847-6.886-6.116-4.733-5.126-8.244-11.68-8.554-18.66s2.955-14.312 9.042-17.733c5.31-2.97 11.5-2.657 17.553-1.178 2.533.627 5.044 1.454 7.443 2.344 6.088 2.218 12.065 4.725 17.974 7.37 12.465 5.577 24.662 11.78 37.127 17.382l10.53 4.6c15.11 6.304 31.35 12.106 47.947 15.703v.927z" class="C"/><path d="M689.572 1759.045c2.177 6.78 1.733 14.374-1.134 20.88l-7.91-16.342c2.644-2.118 5.488-4.21 8.443-6.178a20.46 20.46 0 0 1 .6 1.642z" class="N"/><path d="M713.4 1861.558c3.067.175 6.022 1.015 8.488 2.82 3.288 2.42 5.3 6.266 6.22 10.264.91 3.973.822 8.108.6 12.194-.112 1.667-.267 3.47-1.3 4.8-1.533 2.005-4.376 2.293-6.91 2.38-11.042.426-22.084.376-33.105-.088-1.4-8.848-1.555-17.846-.444-26.706 1.71-.175 3.4-.514 5.043-.952 5.02-1.34 9.842-3.384 14.952-4.31 2.09-.4 4.29-.576 6.443-.4z" class="C"/><path d="M676.907 1893.3v-.602l.223-26.493c3.11 1.253 6.487 1.43 9.843 1.028-1.112 8.86-.956 17.858.444 26.706-3.666-.138-7.333-.338-10.998-.576v-.063h.49z" class="B"/><path d="M610.832 1669.64c.02.025.02.05.02.088-.02-.038-.066-.063-.1-.088.02-.025.02-.05.044-.063.023.013.023.038.045.063z" class="K"/><path d="M573.906 1783.77l.466.2-.066.15c-.8 1.855-1.6 3.735-1.555 5.74l8.775 11.04v26.68c-5.91-2.644-11.886-5.15-17.974-7.37-2.4-.9-4.9-1.717-7.443-2.344-2.332-2.105-4.62-4.236-6.865-6.454-5.643-5.564-11.33-12.294-11.11-20.202.266-9.976 12.886-28.61 12.886-28.61h.023l7.176-14.713c5.844 2.682 11.82 6.066 17.375 9.825a20.52 20.52 0 0 0-.667 1.529 37.18 37.18 0 0 0-1.021 24.526z" class="B"/><path d="M676.573 1766.928l.9-23.573a29.45 29.45 0 0 1 11.508 14.049c-2.955 1.968-5.8 4.06-8.443 6.178-1.377 1.103-2.688 2.218-3.955 3.346z" class="F"/><path d="M657.622 1668.2c1.1.15 2 1.065 2.377 2.105.4 1.065.377 2.218.222 3.31-.288 1.917-.978 3.785-2.2 5.264-1.155 1.43-2.844 2.444-4.666 2.632.422-1.98.644-4.023.845-6.028l.555-5.64.377.038c.155-1.103 1.377-1.855 2.49-1.68z" class="B"/><path d="M610.832 1669.64c-.023-.025-.023-.05-.045-.063.023-.05.023-.075.045-.113v.175z" class="K"/><path d="M620.673 1694.742c-2.777-2.218-4.688-4.75-5.7-6.28-1.377-2.005-2.156-4.3-2.644-6.692-.466-2.068-.688-4.198-.89-6.29l-.578-5.752c0-.038 0-.063-.02-.088v-.175c1.42-3.045 1.955-6.53 1.488-9.863-.266-1.805-.8-3.672-.222-5.376 1.288-3.8 6.9-4.4 8.665-8.008l.91.476c-1.644 3.133-3.866 5.978-6.532 8.31 10.664 1.015 21.707-3.02 29.15-10.74l.2-.013c.31 3.86.89 7.858 3.376 10.765.8.94 1.756 1.717 2.422 2.757.932 1.44 1.154 3.246 1.6 4.938.444 1.667 1.244 3.42 2.82 4.148l.356.05s0 .025-.023.038l-.288 2.895-.555 5.64c-.2 2.005-.422 4.048-.845 6.028-.49 2.48-1.288 4.862-2.71 6.955-1.2 1.767-3.6 4.95-7.176 7.394-2.822 1.905-6.355 3.36-10.665 3.36-5.088 0-9.13-2.043-12.13-4.474z" class="B"/></g><path d="M583.836 1788.458h97.937c1.31 0 2.377 1.29 2.332 2.845l-.932 33.524c-14.686 6.23-28.906 13.585-43.458 20.14l-10.532 4.6-10.53-4.6-37.127-17.382v-36.368c0-1.53 1.023-2.757 2.31-2.757z" class="L"/><g class="I"><path d="M713.078 1762.604h.02s12.62 18.635 12.887 28.61c.222 7.908-5.465 14.638-11.11 20.202-1.867 1.842-3.778 3.66-5.733 5.414-4.82.226-9.798 1.717-14.352 3.384a247.09 247.09 0 0 0-11.62 4.612l.644-23.4 9.998-10.113c-1.422-3.27-3.355-7.244-5.378-11.38 2.867-6.504 3.31-14.1 1.134-20.88a20.46 20.46 0 0 0-.6-1.642c5.42-3.597 11.24-6.893 16.93-9.512 2.49 4.862 4.888 9.863 7.177 14.713z" class="B"/><path d="M620.673 1694.742c3 2.43 7.043 4.474 12.13 4.474 4.3 0 7.843-1.454 10.665-3.36a208.73 208.73 0 0 0 .866 7.394h-.023c-2.755 5.54-6.265 9.6-12.42 9.362-6.02-.25-9.2-4.023-11.486-9.512v-.54l.266-7.82zm-36.37 69.416c-3.6 8.3-6.3 11.567-9.932 19.813l-.466-.2a37.18 37.18 0 0 1 1.021-24.526 20.52 20.52 0 0 1 .667-1.529c3.067 2.055 6 4.2 8.7 6.442z" class="N"/><path d="M586.68 1743.718l.866 23.2-3.243-2.77c-2.71-2.23-5.643-4.386-8.7-6.442 2.466-5.477 6.333-10.314 11.087-13.998z" class="F"/><path d="M580.66 1715.232c10.398-8.397 26.462-10.778 39.748-12.67v.54c2.287 5.49 5.465 9.26 11.486 9.512 6.155.238 9.665-3.822 12.42-9.362h.023c13.376 1.892 28.617 3.496 39.126 11.98 8.132 6.554 15.62 19.174 22.44 32.66-5.688 2.62-11.508 5.915-16.93 9.512a29.45 29.45 0 0 0-11.508-14.049l-1.712 45.103H588.37l-1.688-44.74c-4.755 3.684-8.62 8.522-11.087 13.998-5.554-3.76-11.53-7.143-17.375-9.825 6.82-13.485 14.31-26.105 22.44-32.66z" class="E"/><path d="M571.794 1886.598l-.843 7.33c3.495-.125 7-.326 10.487-.55v-3.534a122.22 122.22 0 0 1-9.644-3.246z" class="B"/><path d="M581.437 1889.844v3.534l.5-.025v-.063l13.13-.313c-4.6-.777-9.154-1.83-13.64-3.133zm142.436-38.95c2.827-4.236 4.737-9.06 4.98-14.1.3-6.98-2.978-14.312-9.065-17.733-3.267-1.842-6.9-2.42-10.644-2.218-4.82.226-9.798 1.717-14.352 3.384a247.09 247.09 0 0 0-11.62 4.612c-14.686 6.23-28.906 13.585-43.458 20.14l-10.532 4.6a371.81 371.81 0 0 0 15.858 6.203 389.81 389.81 0 0 0 78.833-4.875z" class="C"/><path d="M645.04 1855.768c10.397 3.797 21.162 7.13 32.09 9.5v.927c3.11 1.253 6.487 1.43 9.842 1.028 1.71-.175 3.4-.514 5.044-.952 5.02-1.34 9.842-3.384 14.952-4.31 2.09-.4 4.29-.576 6.443-.4 2.466-1.842 4.8-3.872 6.888-6.116a36.74 36.74 0 0 0 3.575-4.549c-26.026 4.286-52.475 5.928-78.833 4.875z" class="H"/><path d="M620.088 1816.78c0 5.013 4.072 9.086 9.095 9.086s9.096-4.073 9.096-9.086a9.1 9.1 0 0 0-9.096-9.098 9.1 9.1 0 0 0-9.095 9.098zm841.358-1508.065H407.068c-16.613 0-30.08-13.468-30.08-30.08v-108.01c0-16.613 13.468-30.08 30.08-30.08h1054.378c16.605 0 30.077 13.467 30.077 30.08v108.008c0 16.613-13.472 30.08-30.077 30.08z" class="G"/><path d="M512.226 1889.818l-39.988-.865c-2.21-.1-4.547-.226-6.32-1.466-2.242-1.554-3.084-4.574-2.803-7.256.25-2.557 1.34-4.925 2.49-7.23.155.038.312.063.436.125 8.004 2.243 15.79 5.264 23.233 9.01 1.37-2.782 3.113-5.364 5.2-7.67 4.795 3.146 10.152 5.64 15.26 8.196 1.682.84 3.488 1.83 4.173 3.584.56 1.454-.28 3.484-1.65 3.822l-.03-.25z" class="H"/><path d="M486.004 1867.46c2.43 2.707 5.325 4.988 8.472 7.005-2.088 2.306-3.83 4.888-5.2 7.67-7.444-3.747-15.23-6.767-23.233-9.01-1.122-19.237-9.062-37.734-17.2-55.68l24.29-5.878 12.862 55.894z" class="B"/><path d="M399.738 1626.768c6.26 24.876 7.1 51.13 2.4 76.36l-7.537-20.2 5.138-56.17zm-39.55 261.182c1.9 1.065 4.423 4.1 4.36 6.354h-23.73a177.82 177.82 0 0 1-15.573-21.079c-1.028-1.592-2.023-3.3-2.2-5.176-.25-2.644 1.152-5.163 2.396-7.494l2.805-5.74 13.64 25.415c2.43-1.867 5.264-3.233 8.252-4.023a20.7 20.7 0 0 0 .312 1.404c.623 2.644 1.558 5.426 3.643 7.193 1.744 1.504 4.08 2.055 6.104 3.146z" class="H"/><path d="M347.98 1858.74c.343 5.9.872 11.743 2.15 17.47-2.99.8-5.824 2.156-8.252 4.023l-13.64-25.415c4.827-10.615 7.724-21.956 9.903-33.574 6.727 1.466 13.516 2.745 20.336 3.86l-10.496 33.636z" class="B"/><path d="M448.85 1817.445l-12.208 2.958c-9.093-39.74-20.617-78.94-34.506-117.276 4.702-25.227 3.86-51.482-2.4-76.36L381.365 1828.3c-7.66-.84-15.292-1.93-22.9-3.208-6.82-1.115-13.61-2.394-20.336-3.86 4.983-26.43 6.166-54.277 17.502-78.502l-.28-.125c-.592-39.74-6-92.463-6.633-132.202-3.613-17.633-2.305-36.28 4.05-53.137l-1.34-6.755 11.803-1.303.56-14.01 51.135-1.065-.435 10.99-.25 5.953 58.89 260.482-24.29 5.878z" class="C"/><path d="M421.85 1501.596l9 42.76a321.32 321.32 0 0 0-12.986.564 387.78 387.78 0 0 0-2.429-22.395l.654-16.13c2.024-1.43 4.048-3.02 5.76-4.8z" class="E"/><path d="M336.488 1520.845l17.222-25.917c-3.395 12.557-9.622 24.388-18.094 34.3l.872-8.384z" class="F"/><path d="M378 1365.383l-1.307.4 1.307-.4zm-60.103 274.393c-.063.25-.094.526-.125.815 0-.288.03-.564.125-.815z" fill="#93c01f"/><path d="M324.093 1632.08c-.498.44-1.338.627-1.9.25-.623-.426-.654-1.328-.654-2.118l.094-5.564a126.18 126.18 0 0 0-3.737 15.126c-.094.25-.125.526-.125.815-.093.5-.063 1.028-.063 1.554 0 .877-.218 1.867-.965 2.306-.56.313-1.214.25-1.837.188-2.647-.25-5.388-.564-7.66-1.905a9.54 9.54 0 0 1-3.613-3.822s0-.038-.03-.038c-.934-8.873-.466-17.91 1.34-26.656.28-15.452-2.523-31.055-3.55-46.47 6.79.125 13.58-.464 20.243-1.68l.03 45.066c4.514 5.915 5.918 14.136 3.456 21.18-.248.652-.53 1.303-1.028 1.767z" class="B"/><path d="M450.782 1487.773l-26.097-2.933-1.308-3.108-6.85-15.515a1323.96 1323.96 0 0 1 34.257 21.555zm-35.347 34.752a387.78 387.78 0 0 1 2.429 22.395l-3.362.213.435-11 .5-11.617z" class="F"/><path d="M396.158 1429.448a40.72 40.72 0 0 0 7.506-.351c1.993-.276 4.048-.74 5.606-2.018 1.62-1.316 2.49-3.334 3.083-5.364l3.83 10.6c-6.695 2.582-14.045 3.522-21.207 2.644l.372-3.446c0-.1.03-.188.03-.288.063-.652.343-1.24.78-1.767z" class="C"/><path d="M524.807 1388.68c.717 8.058-.155 16.442-3.612 23.786h-.125c-2.366 19.813-5.636 39.49-9.78 59.014l-20.803-11.893c5.95-16.04 11.368-32.295 16.257-48.675-3.768-6.354-6-13.572-6.57-20.93-.094-1.1-.125-2.206.342-3.208.467-.965 1.588-1.742 2.617-1.404.686 1.742.934 3.61 1.4 5.426.436 1.805 1.152 3.61 2.49 4.888.53.5 1.122.865 1.713 1.278.653-3.772 1.276-7.57 1.775-11.367.373-2.807.872-6.015 3.238-7.57 2.585-1.717 6.29-.5 8.254 1.892 1.93 2.43 2.52 5.64 2.802 8.76z" class="B"/><g class="E"><path d="M490.488 1459.588l20.803 11.893-3.425 15.29c-1.028 2.306-3.395 3.898-5.918 4.587-2.865.777-5.885.5-8.844.25l-25.008-2.243-17.314-1.592a1323.96 1323.96 0 0 0-34.257-21.555l-7.008-15.878.8-3.835c26.004 5.426 51.354 14.086 76.487 22.86l3.674-9.775z"/><path d="M424.685 1484.84c1.09 2.807 1.867 5.74 1.464 8.697-.406 3.146-2.088 5.752-4.3 8.058-1.713 1.78-3.737 3.37-5.76 4.8l-.654 16.13c-2.678-19.588-6.727-38.963-12.178-57.95a337.34 337.34 0 0 0-6.447-20.553c4.548.714 9.032 1.554 13.516 2.48l-.8 3.835 13.86 31.393 1.308 3.108z"/></g><path d="M415.684 1378.116c1.494 5.452.187 11.655-3.55 15.853-.218-1.178-.373-2.37-.373-3.584a52.55 52.55 0 0 1-24.697-9.926c-.217 9.186-5.294 18.122-13.017 23.097a165.38 165.38 0 0 1-1.806 24.513l.28.038-.624 6.003-.342-.025c-7.443.802-14.98.313-22.236-1.504 3.924-7.28 5.2-15.715 6.167-23.974.996-8.66 1.682-17.47 4.92-25.566 3.02-7.595 8.657-14.575 16.288-17.257.435-.15.87-.276 1.307-.4.094-.038.157-.038.25-.063 2.772-.69 5.7-.902 8.565-.69 5.388-1.742 11.367-1.767 16.662.313 5.792 2.268 10.557 7.193 12.208 13.17z" class="C"/><path d="M412.134 1393.97c.623 3.46 1.93 6.755 3.86 9.712.686 1.065 1.495 2.243 1.214 3.496-.218.84-.872 1.466-1.65 1.83-.686.35-1.495.5-2.273.627.436 3.86.187 7.782-.778 11.517-.063.188-.093.376-.155.564-.592 2.03-1.464 4.048-3.083 5.364-1.558 1.278-3.613 1.742-5.606 2.018a40.72 40.72 0 0 1-7.506.351c-.436.526-.717 1.115-.78 1.767 0 .1-.03.188-.03.288l-.372 3.446-.935 8.635c.935.125 1.87.276 2.77.44a337.34 337.34 0 0 1 6.447 20.553c-12.114 4.787-26.22 4.198-37.963-1.404l.063-19.4c1.87-.564 3.768-1.003 5.637-1.34h.03l1.495-14.324-.28-.038a165.38 165.38 0 0 0 1.806-24.513c7.724-4.975 12.8-13.91 13.017-23.097a52.55 52.55 0 0 0 24.697 9.926c0 1.216.155 2.406.373 3.584z" class="B"/><g class="E"><path d="M365.295 1463.172l-.187 18.585-2.585-.025-8.813 13.196-17.222 25.917-7.193 10.778c-2.647 3.923-5.295 7.97-6.573 12.52-1.088 3.885-1.088 7.996-1.088 12.043v7.883c-6.665 1.216-13.455 1.805-20.243 1.68-.717-10.64-.592-21.23 1.994-31.606 2.834-11.392 8.47-21.856 14.076-32.195l25.007-46.194c6.82-5.414 14.824-9.625 22.9-11.98l-.063 19.4z"/><path d="M363.8 1535.207l-.56 14.01c-3.924.526-7.88.927-11.803 1.303-6.042.5-12.084.877-18.125 1.065l2.305-22.357c8.472-9.913 14.7-21.743 18.094-34.3l8.813-13.196 2.585.025-1.307 53.45z"/></g><path d="M415.435 1522.525l-.5 11.617-51.135 1.065 1.307-53.45.187-18.585c11.74 5.602 25.85 6.19 37.963 1.404 5.45 18.986 9.5 38.36 12.178 57.95z" class="G"/><path d="M40.237 1805.865c-1.37-.1-2.71.088-3.955.464l2.99-1.366.966.902z" class="K"/><path d="M19.247 1847.848c-1.307 2.832-3.27 5.452-5.698 7.344-6.2-21.643-10.715-43.788-13.547-66.145 7.88-.338 19.308-3.772 26.658-7.23 1.805 8.722 6.227 16.918 12.61 23.147l-2.99 1.366c-4.048 1.178-7.536 4.36-9.622 8.096-2.772 5.013-3.49 10.903-4.05 16.605-.53 5.727-.996 11.58-3.364 16.818z" fill="#f18a32"/><path d="M201.026 1509.04l10.308 53.01c-4.173-6.103-8.2-12.37-12-18.723-.498-4.487-.8-8.998-.965-13.5l2.647-20.778z" class="P"/></g><path d="M266.986 1529.442l.17.226a10.04 10.04 0 0 1-.763 12.896c-10.854 11.48-21.105 22.596-32.572 33.524-3.924 3.747-10.184 3.146-13.392-1.178-3.114-4.236-6.166-8.497-9.093-12.858l-10.308-53.01 3.332-26.78.84-.338c8.097 20.74 14.762 41.005 25.287 60.693l25.755-27.746 10.744 14.575z" class="L"/><g class="I"><path d="M201.026 1509.04l-2.647 20.778c.155 4.512.467 9.023.965 13.5.872 8.033 2.305 16.004 4.266 23.86 1.87 7.444 4.173 15.377 1.558 22.57-2.087 5.765-7.007 9.85-12.738 12.27-1.246.564-2.553 1.028-3.86 1.404-1.526-4.574-2.74-9.2-3.706-13.923-7.1-34.4-.53-71.246-4.423-106.56-.53-4.888-1.246-9.725-2.273-14.512l.093-.84c8.098 3.334 16.32 6.254 24.727 8.747v.025l2.212 5.552-.84.338-3.332 26.78zm-9.84-115.697c-4.765 1.34-9.592 2.306-14.512 2.845-.373 6.467-3.488 12.758-8.408 16.93.063 1.867.03 3.772-.467 5.614-.53 1.993-1.744 3.923-3.582 4.888-.56.313-1.4.44-1.712-.125-.125-.188-.125-.44-.125-.652l-.25-4.862c-1.775-1.867-4.95-1.993-7.132-.6-2.242 1.466-3.394 4.26-3.362 6.943 0 1.592.405 3.208 1.37 4.487.996 1.278 2.523 2.08 4.1 2.33 1.214.226 2.46.1 3.644-.213.904 4.888.06 10.088-2.275 14.475-1.588-6.655-16.536-7.595-19.1-26.03-1.153-8.32-.343-17.03 3.767-24.35 4.112-7.294 11.243-12.933 19.465-14.675 6.883-1.466 14.294-.25 20.928-2.682 1.93-.714 4.048-1.704 5.948-.927 1.776.714 2.585 2.745 3 4.612.8 4 .373 8.22-1.246 11.956-.03.025-.03.025-.063.025z" class="C"/><path d="M191.185 1393.343c.03 0 .03 0 .063-.025 0 .025 0 .063-.03.088 0-.025-.03-.025-.03-.063zm-12.925 74.253l-.093.84a5.35 5.35 0 0 0-.187-.965c.093.063.187.088.28.125z" class="K"/><path d="M163.687 1640.74c8.69 28.598 11.71 58.89 8.875 88.665h-.03l-11.865-38.65c1.464-16.505 2.336-33.787 3.022-50.016z" class="H"/><path d="M280.378 1894.305H228.15c-.124-7.38-1.806-14.725-4.857-21.418h26.875c1.807 3.32 5.077 5.853 8.502 7.62 4.08 2.118 8.533 3.46 12.645 5.552 3.706 1.867 7.225 4.537 9.062 8.246z" fill="#f18a32"/><path d="M25.756 1773.845l90.47-44.778c0-49.452-9.56-70.318-6.57-126.788 2.242 1.34 4.64 2.43 7.162 3.208 6.696 2.093 14.045 2.055 20.74-.025.343-5.05.998-10.026 1.93-14.976 15.074.063 30.115.363 45.375-.978.965 4.712 2.18 9.35 3.706 13.923 1.308-.376 2.615-.84 3.86-1.404 22.174 91.498 35.69 178.985 58.766 270.858h-34.662l-43.973-143.48c2.834-29.777-.187-60.067-8.875-88.665-.686 16.23-1.558 33.51-3.022 50.016-2.615 29.802-7.193 57.122-16.35 71.408-35.004 16.417-70.01 26.97-105.045 42.797-6.384-6.23-10.807-14.425-12.61-23.147-.56-2.607-.872-5.29-.904-7.97z" class="C"/><path d="M180.44 1482.948c3.893 35.316-2.678 72.16 4.423 106.56-15.26 1.34-30.302 1.04-45.375.978 1.837-10.226 4.64-20.315 7.6-30.278 4.795-16.23 9.964-32.42 12.082-49.2 1.308-10.6 1.34-21.555-.686-32.02 6.354 4.273 14.544 5.8 21.956 3.96z" class="G"/><path d="M40.05 1611.59c-.654 2.594.124 5.452.747 8.096.748 3.183 1.06 7.018-1.307 9.224-1.214 1.115-2.896 1.592-4.205 2.582-1.682 1.316-2.647 3.334-4.205 4.762-2.523 2.28-6.415 2.557-9.592 1.404-3.207-1.153-5.822-3.484-8.066-6.04-2.71-3.02-5.107-6.88-4.36-10.84.592-3.233 3.146-5.752 5.886-7.557 2.74-1.817 5.792-3.146 8.315-5.238.716-.59 1.37-1.278 1.96-2.018 4.702 2.77 10.278 4.11 15.758 3.797l-.934 1.83z" class="B"/><path d="M27.344 1600.538c4.64 2.895 9.78 5.013 15.104 6.23l-1.464 2.995c-5.48.313-11.056-1.028-15.758-3.797 1.246-1.592 2.087-3.496 2.118-5.426z" class="C"/></g><path d="M72.22 1546.51l-29.773 60.255c-5.325-1.216-10.463-3.334-15.104-6.23l-.063-.038c-3.54-2.23-4.852-6.767-3.222-10.627 8.73-20.603 15.005-37.41 22.905-59.804l63.655-47.96 1.993 2.607c1.278 11.467 2.118 22.984 2.493 34.514-.623 1.867-1.214 3.76-1.744 5.665-13.67 6.73-27.53 15.703-41.14 21.618z" class="L"/><path d="M158.485 1478.988c-1.152-5.765-2.896-11.367-5.418-16.693l-1.59 5.138c-13.05 3.735-36.003 9.4-40.86 14.675l1.993 2.607c1.278 11.467 2.118 22.984 2.493 34.514-.623 1.867-1.214 3.76-1.744 5.665a480.73 480.73 0 0 0-14.98 66.797c2.896 4.336 6.79 7.945 11.274 10.6 2.242 1.34 4.64 2.43 7.162 3.208 6.696 2.093 14.045 2.055 20.74-.025.343-5.05.998-10.026 1.93-14.976 1.837-10.226 4.64-20.315 7.6-30.278 4.795-16.23 9.964-32.42 12.082-49.2 1.308-10.6 1.34-21.555-.686-32.02z" class="C I"/><path d="M155.727 1454.074l-2.66 8.22c2.52 5.326 4.266 10.928 5.418 16.693.402.276.83.5 1.247.752 1.647-8.685.252-17.92-4.004-25.666z" class="P"/><g class="I"><path d="M199.002 1419.26c-3.022-3.797-3.55-8.935-4.112-13.735-.466-4.236-1.183-8.747-3.674-12.12 0-.025-.03-.025-.03-.063-4.765 1.34-9.592 2.306-14.512 2.845-.373 6.467-3.488 12.758-8.408 16.93.063 1.867.03 3.772-.467 5.614-.53 1.993-1.744 3.923-3.582 4.888-.56.313-1.4.44-1.712-.125-.125-.188-.125-.44-.125-.652l-.25-4.862c-1.775-1.867-4.95-1.993-7.132-.59-2.242 1.466-3.394 4.26-3.362 6.943 0 1.592.404 3.208 1.37 4.487.996 1.278 2.523 2.08 4.11 2.33 1.214.226 2.46.1 3.644-.213.904 4.888.06 10.088-2.275 14.475 0 .038 0 .038-.03.063l-2.727 8.597c4.256 7.745 5.65 16.98 4.004 25.666 6.16 3.66 13.765 4.925 20.71 3.208-.53-4.888-1.246-9.725-2.273-14.512a5.35 5.35 0 0 0-.187-.965c.093.063.187.088.28.125.653-5.978 1.058-11.993 1.12-18.034 2.772.376 5.574.4 8.346.088 2.118-.25 4.33-.714 6-2.055 2.74-2.18 3.456-6.04 3.3-9.524s-.934-6.98-.436-10.44l-.03-.238c.934-.1 1.867-.25 2.74-.627 1.06-.44 1.993-1.34 2.21-2.47.406-1.892-1.307-3.51-2.52-5.038z" class="B"/><path d="M256.242 1514.868l10.744 14.575c.91-1.14 1.895-2.23 2.912-3.283l-10.205-15-3.45 3.7z" class="C"/><path d="M288.942 1499.954l-3.364-8.41c-.935-2.344-2.024-4.837-4.205-6.078-1.993-1.1-4.67-.815-6.384.69-1.464 1.303-2.18 3.296-3.768 4.424-1.682 1.178-3.986 1.115-5.76 2.18-2.585 1.58-3.24 5.038-3.146 8.096.06 2.607.436 5.29-.25 7.745l-2.372 2.557 10.205 15c3.47-3.584 7.512-6.63 11.943-8.898 3.144-1.654 6.79-3.146 8.284-6.38 1.62-3.42.218-7.42-1.183-10.928z" class="B"/><g class="E"><path d="M332.845 798.342H79.842c-14.684 0-26.587-11.903-26.587-26.587V691.38c0-14.683 11.903-26.587 26.587-26.587h253.003c14.683 0 26.586 11.904 26.586 26.587v80.374c0 14.684-11.903 26.587-26.586 26.587z" class="Q"/><path d="M284.486 798.504L329.12 850.5l-129.297-51.995h84.664z" class="D"/><path d="M1676.06 650.436h209.776c12.17 0 22.044-9.87 22.044-22.044v-66.64c0-12.174-9.875-22.043-22.044-22.043H1676.06c-12.17 0-22.044 9.87-22.044 22.043v66.64c0 12.175 9.875 22.044 22.044 22.044z" class="Q"/><path d="M1716.163 650.436l-37.008 43.1 107.2-43.1h-70.193zm157.58 834.956l-37.008 43.1 107.2-43.1h-70.193zm-300.923-275.954l-51.144 59.566 148.143-59.566h-97zm-997.667-25.998l44.632 51.996-129.297-51.996h84.665z" class="D"/><path d="M595.888 1183.992H419.64a22.58 22.58 0 0 1-22.568-22.57v-94.505a22.58 22.58 0 0 1 22.568-22.57H595.9c12.463 0 22.567 10.113 22.567 22.57v94.505c0 12.457-10.103 22.57-22.567 22.57zm1120.137 25.892h-176.6c-14.763 0-26.73-11.968-26.73-26.744v-122.615c0-14.763 11.968-26.73 26.73-26.73h176.6c14.763 0 26.73 11.968 26.73 26.73v122.615c0 14.775-11.968 26.744-26.73 26.744zm268.402 276.122h-120.685a15.58 15.58 0 0 1-15.578-15.578v-55.505c0-8.6 6.968-15.6 15.578-15.6h120.685c8.597 0 15.578 6.98 15.578 15.6v55.505a15.59 15.59 0 0 1-15.578 15.578z" class="Q"/></g><path d="M926.903 565.073l1.976 11.565-.327.124c.658 1.93 1.05 4.15-.274 5.59-1.553 1.682-4.398 1.123-6.483.132-5.944-2.882-10.685-8.22-12.797-14.465-1.056-3.124-1.444-6.37-1.75-9.667-.28-3.43-.435-6.875-1.053-10.264-.03-.253-.055-.464-.123-.67 7.354.365 14.744-.046 21.96-1.206.207.66.5 1.308.83 1.953.006.043.006.043.01.085 1.442 2.777 3.62 5.255 4.86 8.142.053.08.1.117.1.2a13.87 13.87 0 0 1 .216 10.065c-.288.803-.778 1.717-1.617 1.86-1.128.22-2.043-.996-2.135-2.14-.05-1.15.417-2.23.54-3.357s-.207-2.455-1.242-2.887c-1.078-.427-2.3.445-2.684 1.518-.427 1.077-.24 2.293-.02 3.423z" class="R"/><path d="M813.83 545.8c-4.05 7.28-4.327 16.42-1.065 24.07l-7.785 1.397c-10.73 2.177-20.3 10.116-31.042 12.892-4.435 1.17-10.457 1.59-12.282-2.597-1.3-2.925.462-6.17 2.152-8.85l12.27-19.377c2.88-4.533 6.632-9.64 12.05-9.73 3.286-.05 6.292 1.857 9.41 2.897 5.294 1.72 10.88.884 16.292-.702z" fill="#201b56"/><path d="M865.44 525.412c1.495-1.803 2.115-4.485 1.47-6.673l1.066-.383c-7.547-20.99-27.724-37.826-29-59.65 2.532 1.152 5.452 1.617 8.216 1.5 5.484-.27 10.636-2.594 15.62-4.898 3.143 7.364 9.033 13.374 16.14 17.06 1.37.734 2.768 1.337 4.198 1.85.033.638.065 1.275.14 1.907 2.228 21.197 15.17 48.728 22.55 70.807-.112.142-.177.32-.287.46-2.895 5.134-7.442 9.3-12.853 11.622.342.001.686.004.98-.03l.005.043c-26.6 6.845-54.164 6.498-80.924 10.842-3.262-7.648-2.984-16.79 1.065-24.07 2.315-.66 4.573-1.442 6.785-2.262l36.034-12.975c3.235-1.197 6.633-2.458 8.793-5.152z" class="L"/><path d="M893.895 402.566c-2.8 11.662-5.295 23.375-7.527 35.143-2.28 12.07-4.24 24.32-3.215 36.5-1.43-.514-2.827-1.117-4.198-1.85.264-23.974 5.373-47.842 14.94-69.802z" class="F"/><path d="M928.406 546.125l.456 2.04c-.332-.644-.624-1.293-.83-1.953.127-.015.253-.03.375-.088z" class="O"/><path d="M929.542 431.537c-1.66 15.846-1.72 31.843-.3 47.708-2.23.308-4.522.452-6.747.42.778-16.425 3.162-32.656 7.047-48.126z" class="F"/><path d="M1012.016 333.634c.038-1.8.25-3.622.777-5.35-.088 1.806-.338 3.59-.777 5.35z" class="O"/><path d="M1016.553 563.58l-2.08-8.432c-.727 7.483-2.544 14.882-5.39 21.85-.852 2.112-2.193 4.494-4.474 4.723-1.905.184-3.634-1.406-4.324-3.206-.44-1.23-.514-2.545-.414-3.84l-.426-.034c-1.366-10.696-3.02-21.36-4.837-31.96l22.17-1.615c.288 2.103.564 4.42.8 7.003 1.216 4.172 2.193 8.417 2.882 12.696.175 1.176.326 2.44-.175 3.527-.564 1.05-2.068 1.658-2.97.9-.44-.42-.64-1.035-.752-1.62z" class="R"/><path d="M998.97 393.847c4.223 6.68 5.727 15.01 6.843 22.955 4.8 34.23 6.366 68.846 7.92 103.377.35 7.61 1.892 12.728 3.045 20.886l-22.17 1.615c-1.717-9.756-3.61-19.535-5.752-29.2-4.574-21.173-10.1-42.106-16.58-62.752 9.31-14.792 11.492-33.82 5.84-50.334v-.043c1.153-2.83 2.732-5.413 4.963-7.517l6-8.538c2.28 1.567 4.487 3.184 6.43 5.176 1.316 1.34 2.48 2.826 3.47 4.375z" class="E"/><path d="M965.008 324.786c-.35-.728-1.065-1.327-1.817-1.58-1.078-.386-2.256-.244-3.3.18-.74.302-1.366.803-1.892 1.38.313-1.704.827-3.434 1.454-5.047 2.92-7.36 9.136-13.36 16.593-16.045l.063.164c2.832-1.406 5.9-2.285 8.986-2.524 9.098-.743 18.447 3.787 23.498 11.393 3.02 4.557 4.46 10.115 4.2 15.574-.526 1.73-.74 3.55-.777 5.35-.013.642-.013 1.285.063 1.916l-2.644 6.557c-2.857-2.138-4.675-5.472-5.54-8.873-.902-3.612-.965-7.282-.84-10.973-8.22 4.955-18.322 6.672-27.696 4.753-1.015-.22-2.018-.442-2.933-.9a33.37 33.37 0 0 1-4.925 4.564c-.388.303-.827.57-1.328.714-.5.102-1.065.04-1.404-.345-.4-.466-.35-1.114-.25-1.682l.5-4.6zm-7.344 7.972c.9 1.092 2.143 1.84 3.496 2.107l-.927 7.335c-1.466-3-2.318-6.18-2.62-9.435l.05-.006z" class="C"/><path d="M895.953 394.37l-2.058 8.197c-9.567 21.96-14.675 45.828-14.94 69.802-7.108-3.684-12.998-9.695-16.14-17.06-4.984 2.303-10.136 4.628-15.62 4.898-2.765.115-5.685-.35-8.216-1.5a32.74 32.74 0 0 1-.089-2.896c.206-11.91 6.38-22.865 13.303-32.582 15.242-21.355 35.012-39.488 57.58-52.823-6.687 6.312-11.25 15.022-13.556 24.02l-.263-.054z" class="E"/><path d="M906.194 548.09l-.207-.66c.046.038.046.038.084-.01.068.207.093.417.123.67z" class="O"/><path d="M963.19 323.207c.752.252 1.466.85 1.817 1.58l-.49 4.59c-.1.568-.15 1.216.25 1.682.338.386.902.446 1.404.345.5-.145.94-.41 1.328-.714a33.37 33.37 0 0 0 4.925-4.564c.915.45 1.917.67 2.933.89 9.374 1.92 19.475.202 27.696-4.753-.125 3.69-.063 7.36.84 10.973.865 3.4 2.682 6.735 5.54 8.873-2.57 6.036-5.552 11.822-9.562 17a25.01 25.01 0 0 1-1.642 1.993c-1.24 1.39-2.594 2.66-4.136 3.657-2.268 1.466-5.025 2.35-7.732 1.904-2.52-.425-4.925-1.935-7.507-1.712-1.654.154-3.07 1.135-3.985 2.483.702 5.817 5.978 10.36 7.57 11.84.865.753 1.717 1.464 2.607 2.127-8.622 5.86-20.114 7.4-29.952 3.783-10.6-3.9-18.848-13.615-20.944-24.74l-.045-.378c1.927-.316 3.807-.668 5.737-1.07 6.504-1.374 14.074-3.13 19.262-11.274.514-1.73.84-3.65 1.128-5.522.414-2.7.652-5.336.927-7.335-1.353-.266-2.607-1.015-3.496-2.107-.55-.618-.978-1.337-1.203-2.123-.59-2.068.088-4.33 1.53-5.868.526-.576 1.153-1.078 1.892-1.38 1.053-.425 2.23-.566 3.31-.18z" class="R"/><path d="M929.242 479.244c8.207-1.064 16.203-4.284 22.832-9.306l8.484 9.806c8.722 10.033 17.207 20.652 21.48 33.224.2.617.4 1.192.564 1.857 3.534 12.8 1.328 33.318-10.978 37.008a712.07 712.07 0 0 1-37.812 4.507l-.08.053c-1.242-2.887-3.42-5.365-4.86-8.142-.004-.043-.004-.043-.01-.085-.164-.664-.333-1.37-.456-2.04-1.092-4.488-1.97-9-2.725-13.527l9.75-5.737c1.516-.907 3.22-2.05 3.396-3.782s-1.2-3.15-2.394-4.33c-5-4.88-9.672-10.092-13.927-15.656a250.12 250.12 0 0 1-.013-23.428c2.226.034 4.518-.1 6.747-.42zM906.194 548.1c.618 3.4.772 6.834 1.053 10.264-4.5.28-9.05.48-13.564.633-.295.035-.638.033-.98.03 5.4-2.312 9.958-6.488 12.853-11.622a1.49 1.49 0 0 0 .431.034c.07.25.14.455.207.66z" class="L"/><path d="M905.844 546.933c.02.17.08.332.144.495a1.49 1.49 0 0 1-.431-.034c.1-.142.175-.32.287-.46z" class="O"/><path d="M978.117 400.394c5.652 16.514 3.47 35.543-5.84 50.334l-4.8-14.777c2.23-2.49 3.86-5.633 4.9-8.793 1.917-5.787 2.206-11.978 3.283-17.964.5-2.968 1.253-6.007 2.456-8.8z" class="F"/><path d="M986.363 366.66c2.707.447 5.464-.437 7.732-1.904 1.54-.998 2.895-2.268 4.136-3.657l1.642-1.993c4-5.18 6.993-10.966 9.562-17 .94-2.164 1.792-4.36 2.644-6.557.2 3.866 1.216 7.764 2.52 11.458 2.33 6.648 5.502 13.154 6.116 20.177.614 7.24-1.654 14.818-6.667 20.034-3.923 4.1-9.487 6.56-15.076 6.628-1-1.55-2.156-3.035-3.47-4.375-1.942-1.99-4.148-3.61-6.43-5.176l-4.023-2.9c-.9-.663-1.742-1.374-2.607-2.127-1.592-1.48-6.868-6.022-7.57-11.84.915-1.347 2.33-2.328 3.985-2.483 2.582-.223 4.988 1.287 7.507 1.712z" class="C"/><path d="M928.032 546.212c-7.216 1.16-14.606 1.57-21.96 1.206-.038.048-.038.048-.084.01-.063-.163-.124-.326-.144-.495-7.378-22.08-20.32-49.6-22.55-70.807-.075-.633-.108-1.27-.14-1.907-1.026-12.19.935-24.44 3.215-36.5 2.232-11.768 4.727-23.48 7.527-35.143.617-2.725 1.316-5.46 2.058-8.197l.263.054c2.306-8.997 6.87-17.707 13.556-24.02.04-.005.08-.053.08-.053 3.08-2.846 6.564-5.186 10.476-6.806 4.396-1.85 9.088-2.666 13.78-3.48l.045.378c2.095 11.124 10.354 20.83 20.944 24.74 9.838 3.616 21.33 2.075 29.952-3.783 1.316.998 2.67 1.95 4.023 2.9l-6 8.538c-2.23 2.104-3.8 4.686-4.963 7.517v.043c-1.203 2.795-1.955 5.834-2.456 8.8-1.078 5.985-1.366 12.176-3.283 17.964-1.04 3.16-2.67 6.304-4.9 8.793-1.805 2.053-4 3.683-6.592 4.548-3.496 1.228-7.28.996-10.9 1.554-4.913.757-9.512 3.058-13.134 6.355 4.048 7.81 9.45 14.82 15.214 21.53-6.63 5.023-14.625 8.242-22.832 9.306-1.42-15.865-1.36-31.862.3-47.708-3.885 15.47-6.27 31.7-7.047 48.126a250.12 250.12 0 0 0 .013 23.428c.407 9.87 1.456 19.75 3.174 29.507.753 4.528 1.633 9.04 2.725 13.527-.122.058-.248.073-.375.088z" class="E"/></g></svg>